<?xml version="1.0" encoding="UTF-8" standalone="no"?>
<!-- Created with Inkscape (http://www.inkscape.org/) -->

<svg
   xmlns:dc="http://purl.org/dc/elements/1.1/"
   xmlns:cc="http://creativecommons.org/ns#"
   xmlns:rdf="http://www.w3.org/1999/02/22-rdf-syntax-ns#"
   xmlns:svg="http://www.w3.org/2000/svg"
   xmlns="http://www.w3.org/2000/svg"
   xmlns:sodipodi="http://sodipodi.sourceforge.net/DTD/sodipodi-0.dtd"
   xmlns:inkscape="http://www.inkscape.org/namespaces/inkscape"
   width="500mm"
   height="500mm"
   viewBox="0 0 500 500"
   version="1.1"
   id="svg8"
   inkscape:version="0.92.1 r15371"
   sodipodi:docname="mermaid_hollyn.svg">
  <defs
     id="defs2">
    <inkscape:path-effect
       effect="spiro"
       id="path-effect11755"
       is_visible="true" />
    <inkscape:path-effect
       effect="taper_stroke"
       id="path-effect12045"
       is_visible="true"
       stroke_width="0.26458332"
       attach_start="0.031794078"
       end_offset="0.65021"
       smoothing="0.5"
       jointype="extrapolated"
       miter_limit="100" />
    <inkscape:path-effect
       miter_limit="100"
       jointype="extrapolated"
       smoothing="0.5"
       end_offset="0.65021"
       attach_start="0.031794078"
       stroke_width="0.26458332"
       is_visible="true"
       id="path-effect12049"
       effect="taper_stroke" />
    <inkscape:path-effect
       miter_limit="100"
       jointype="extrapolated"
       smoothing="0.5"
       end_offset="0.65021"
       attach_start="0.031794078"
       stroke_width="0.26458332"
       is_visible="true"
       id="path-effect12053"
       effect="taper_stroke" />
    <inkscape:path-effect
       effect="taper_stroke"
       id="path-effect12057"
       is_visible="true"
       stroke_width="0.26458332"
       attach_start="0.031794078"
       end_offset="0.65021"
       smoothing="0.5"
       jointype="extrapolated"
       miter_limit="100" />
  </defs>
  <sodipodi:namedview
     id="base"
     pagecolor="#ffffff"
     bordercolor="#666666"
     borderopacity="1.0"
     inkscape:pageopacity="0.0"
     inkscape:pageshadow="2"
     inkscape:zoom="0.175"
     inkscape:cx="1275.0407"
     inkscape:cy="1059.5305"
     inkscape:document-units="mm"
     inkscape:current-layer="g13776"
     showgrid="false"
     inkscape:window-width="1366"
     inkscape:window-height="715"
     inkscape:window-x="-8"
     inkscape:window-y="-8"
     inkscape:window-maximized="1" />
  <metadata
     id="metadata5">
    <rdf:RDF>
      <cc:Work
         rdf:about="">
        <dc:format>image/svg+xml</dc:format>
        <dc:type
           rdf:resource="http://purl.org/dc/dcmitype/StillImage" />
        <dc:title />
      </cc:Work>
    </rdf:RDF>
  </metadata>
  <g
     inkscape:label="Layer 1"
     inkscape:groupmode="layer"
     id="layer1"
     transform="translate(0,203)">
    <g
       transform="matrix(7.4324138,0,0,7.4324138,3335.6419,-1510.5309)"
       id="g13776">
      <path
         sodipodi:nodetypes="ccccccccccccccccccccccccccccccccccccccccccccscccccscccscccccscsccscccccccccccssccccccccccccccccccccccsccccscccccccsccccccsccscscccsccccccccscccccccccccccccccccc"
         inkscape:connector-curvature="0"
         id="path12273"
         d="m -400.37872,176.46821 c -0.61568,-0.002 -0.94465,0.0841 -1.67419,0.35019 -1.39572,0.50904 -2.57215,1.54974 -3.62767,3.20918 -1.17101,1.84095 -2.76877,3.32682 -4.50346,4.18796 -1.36413,0.6772 -1.46921,0.70486 -2.68401,0.70403 -1.48261,-8.8e-4 -2.13484,-0.25479 -2.75988,-1.07425 -0.31924,-0.41855 -0.41956,-0.73164 -0.46546,-1.45245 -0.055,-0.86316 -0.0314,-0.94586 0.38832,-1.3656 0.34581,-0.34581 0.57409,-0.44545 1.00982,-0.44069 0.75954,0.008 1.50603,0.4322 1.82914,1.03869 l 0.26614,0.49995 0.006,-0.42194 c 0.013,-0.88672 -1.71707,-2.01377 -3.0732,-2.00218 -0.55696,0.005 -1.49426,0.47368 -2.04269,1.0221 -1.05036,1.05037 -1.60916,2.96849 -1.21389,4.1662 0.0992,0.30042 0.28869,0.61173 0.53249,0.89841 0.32256,0.34105 0.71843,0.62995 1.1249,0.87685 0.0666,0.0401 0.13323,0.0785 0.19976,0.11573 0.1827,0.0833 0.30168,0.14416 0.36419,0.19114 0.79918,0.39097 1.57117,0.59189 2.19893,0.6911 0.76132,0.12031 1.24859,0.0985 1.24859,0.0985 0,0 -0.45135,0.18116 -1.257,0.26506 -4.15965,0.65997 -7.42327,1.79218 -8.75261,5.74838 -0.20497,0.63211 -0.54463,1.41412 -0.75467,1.73777 -2.04515,3.15124 -6.31736,5.67614 -9.28468,5.4872 -0.8135,-0.0518 -0.99883,-0.1183 -1.29708,-0.46505 -0.45172,-0.52514 -0.47489,-1.62221 -0.0517,-2.4517 1.16335,-2.28036 5.91985,-3.23548 6.57309,-1.31992 l 0.17541,0.51482 0.008,-0.56137 c 0.009,-0.60319 -0.19318,-1.09569 -0.5674,-1.38306 -1.08572,-0.62574 -2.421,-0.81587 -3.55872,-0.41698 -3.50612,1.1563 -5.82059,3.53623 -5.07927,8.00872 0.11814,1.40911 1.59321,2.52698 3.4583,3.10897 1.205,0.3872 3.26341,0.87966 4.93401,0.87966 1.16002,-0.09 4.65039,1.11875 4.76852,1.13977 1.18119,0.22977 1.57971,0.0495 2.65407,-0.28123 1.05672,-0.29941 2.21069,-1.12262 3.97764,-2.83766 1.00412,-0.97462 1.78734,-1.66503 1.74057,-1.53412 -0.0468,0.1309 -0.16898,1.14676 -0.27174,2.25754 -0.0181,1.77817 -0.9039,2.01505 0.89818,6.42159 l 0.001,-1.00141 c 0,-0.60054 0.0889,-1.17024 0.22067,-1.42293 -0.0354,-1.48799 0.84889,-2.92409 0.95292,-3.76149 0.87934,-3.94774 2.0989,-5.44004 6.62222,-8.10333 2.67662,-1.57598 3.64283,-2.34511 4.67564,-3.72228 l 0.31117,-0.41483 -0.0849,0.5618 c -0.10983,0.72672 -0.595,1.87883 -0.9066,2.15303 -0.13411,0.11802 -0.60789,0.29086 -1.05291,0.38401 -1.06239,0.22239 -1.79297,0.72039 -2.0942,1.42724 -0.6991,1.64051 -2.67875,6.06284 -3.32705,7.43249 -0.96169,2.35686 -2.35266,4.53871 -3.55247,6.55713 -0.31918,0.42539 -1.10965,2.23413 -1.62355,2.99089 -0.56199,0.82757 -1.12521,1.31625 -1.5171,1.31625 -0.11479,0 -0.46026,-0.28128 -0.7676,-0.62516 -0.85643,-0.95824 -1.19833,-1.13694 -2.19699,-1.14795 -0.48547,-0.005 -1.21362,-0.065 -1.61817,-0.13231 -0.40456,-0.0674 -0.75831,-0.10146 -0.78591,-0.0759 -0.18339,0.17015 0.25119,0.71775 0.83246,1.04904 0.75198,0.42859 1.35095,0.91643 1.35095,1.10033 0,0.0643 -0.0993,0.0788 -0.22088,0.0321 -0.2768,-0.10622 -0.95595,0.0558 -0.95595,0.22799 0,0.0706 0.15438,0.16707 0.34307,0.21442 0.18868,0.0474 0.79348,0.41871 1.34406,0.82514 1.26006,0.93016 1.70627,0.95885 3.20789,0.20623 2.77822,-1.39246 4.48305,-2.87565 5.74751,-5.00039 0.97025,-2.08088 3.41817,-7.09915 4.82994,-8.97868 0.7756,-1.02165 1.07095,-1.08132 1.46903,-0.29695 0.4592,0.90481 1.07502,1.76375 2.13924,2.98398 0.35249,0.33857 1.00396,1.44102 1.17489,1.87569 0.40553,0.99901 -1.0843,3.08885 -3.92161,4.75925 -1.01887,0.59659 -1.76417,1.18687 -2.72625,2.15949 -2.19565,2.21973 -3.28554,4.39821 -3.98174,7.95852 -1.19871,6.13018 -1.58068,7.64631 -2.3418,9.29373 -1.13209,2.45036 -2.54753,3.85549 -4.81227,4.77714 -2.58871,1.05344 -5.31854,0.7899 -6.86142,-0.66266 -0.74681,-0.70308 -1.09069,-1.49386 -1.16864,-2.68725 -0.0797,-1.22023 0.14314,-2.00839 1.31303,-4.64352 2.24715,-5.06163 2.69892,-6.62588 2.68983,-9.31378 -0.006,-1.62405 -0.0585,-2.05666 -0.35082,-2.86869 -0.18935,-0.52593 -0.39147,-0.98941 -0.44911,-1.02986 -0.0576,-0.0405 -0.21688,-0.29216 -0.35384,-0.55943 -0.27591,-0.53841 -1.79578,-2.11679 -2.29634,-2.38469 -0.3075,-0.16456 -0.31505,-0.15224 -0.19502,0.3198 0.0687,0.27009 0.1186,0.92708 0.11076,1.45978 -0.0114,0.76993 -0.10077,1.127 -0.4353,1.74164 -0.44287,0.8137 -1.63593,2.00199 -2.63487,2.62411 -1.63796,1.02007 -3.32715,3.3102 -3.79448,5.14477 l -0.19588,0.76975 -0.25925,-0.99042 c -2.23948,-5.96587 -8.85014,-9.1257 -13.63254,-7.87102 2.22632,2.92508 2.72927,5.06206 3.53264,9.65577 0.001,0.42848 0.45571,2.54162 0.74799,3.47725 0.60564,1.93882 1.99414,3.91614 3.54298,5.04543 1.77079,1.29112 4.83527,2.27428 8.61298,2.76332 0.82448,0.10673 1.45847,0.26817 1.61988,0.41267 2.45591,2.19853 6.2416,3.92586 9.67732,4.41553 2.22034,0.31646 5.93284,0.11495 8.16475,-0.44328 5.16012,-1.29059 10.01736,-3.94163 13.2841,-7.25038 2.00191,-2.02767 3.40074,-4.2717 4.32006,-6.92952 0.63622,-1.8394 0.95475,-4.34622 0.92065,-6.83818 -0.0185,-1.34899 -0.14025,-2.69362 -0.37092,-3.92567 -0.0819,-0.43733 -0.007,-0.38855 1.21389,0.78893 0.71575,0.69032 1.5,1.37981 1.74273,1.53218 0.59869,0.37583 1.31752,0.34676 2.25819,-0.0912 0.43282,-0.2015 1.04504,-0.36635 1.36065,-0.36635 0.73684,0 0.77378,-0.34996 0.064,-0.60662 -0.69176,-0.25014 -0.47417,-0.472 0.76868,-0.7842 1.81726,-0.45647 1.81687,-0.7928 -0.002,-1.17639 -2.00848,-0.42368 -2.38737,-0.39419 -3.37554,0.2629 -0.67384,0.44807 -0.89341,0.52797 -1.11929,0.40708 -0.808,-0.43243 -1.42239,-2.35991 -2.00024,-6.27484 -0.12002,-0.81311 -0.3965,-1.93845 -0.61439,-2.50084 -0.33953,-0.87631 -0.39156,-1.21189 -0.36354,-2.34655 0.0276,-1.11809 0.0845,-1.39265 0.36656,-1.76535 0.59396,-0.96998 0.68299,-3.6518 -0.41354,-4.55646 -0.46928,-0.29004 -0.57668,-0.98454 -0.91996,-2.10993 -0.21378,-0.70091 -0.48024,-1.41383 -0.59196,-1.58434 -0.32114,-0.49013 -1.19767,-0.67367 -2.68251,-0.56158 -0.72041,0.0543 -1.48241,0.0555 -1.69338,0.003 -0.3627,-0.091 -0.38358,-0.14676 -0.38358,-1.02512 0,-0.5109 0.0415,-0.97053 0.0922,-1.02124 0.0507,-0.0507 0.27074,8e-5 0.48895,0.11292 0.75662,0.39126 3.23779,-0.22655 3.84038,-0.83806 0.8665,-0.87934 0.54215,-1.96436 0.7926,-3.40054 0.12318,-0.70633 0.29044,-1.4083 0.3715,-1.55977 0.0811,-0.15147 0.66819,-0.64043 1.30484,-1.08654 2.43668,-1.70743 3.21968,-3.29785 2.52821,-5.13593 -0.52896,-1.40614 -2.05719,-2.64356 -3.68134,-2.98076 -0.28319,-0.0588 -0.7797,-0.22455 -1.10334,-0.36828 -0.32364,-0.14373 -0.98572,-0.37594 -1.47119,-0.51612 -0.48547,-0.14017 -1.23102,-0.42059 -1.65696,-0.62321 -0.58221,-0.27697 -1.10224,-0.38711 -2.09484,-0.44371 -0.29438,-0.0168 -0.53133,-0.0272 -0.73657,-0.0278 z m 9.3183,4.52975 c 0.007,-9.9e-4 0.0149,-8.8e-4 0.0231,0 0.03,0.003 0.0659,0.019 0.10926,0.0422 0.42092,0.22527 0.99581,1.19609 0.99581,1.68173 0,0.50685 -0.68981,1.57178 -1.3975,2.15734 -0.24273,0.20085 -0.60691,0.45085 -0.80919,0.55555 -0.35171,0.18206 -0.35755,0.17832 -0.13641,-0.0883 0.12719,-0.15337 0.42398,-0.7093 0.65964,-1.23523 0.35138,-0.78416 0.42869,-1.15863 0.43078,-2.0817 0.002,-0.77799 0.0158,-1.01671 0.12455,-1.03158 z m -21.08572,16.36677 0.66201,0.008 -0.73571,0.26247 c -1.80857,0.64514 -3.85119,1.9608 -4.69848,3.02623 -0.23778,0.29899 -0.81389,1.16938 -1.28027,1.9343 -1.59084,2.60921 -2.31701,3.40282 -3.67874,4.02074 v 2.2e-4 c -0.60839,0.27606 -1.06336,0.31302 -2.40559,0.1961 -1.40273,-0.12219 -1.41259,-0.16796 -0.17456,-0.81415 1.47265,-0.76864 2.32297,-1.54414 4.02613,-3.67142 0.75978,-0.94896 1.79289,-2.09308 2.29569,-2.54243 1.58102,-1.413 4.13065,-2.44327 5.98952,-2.42025 z"
         style="fill:#00999e;fill-opacity:1;stroke-width:0.14711253" />
    </g>
  </g>
</svg>
