<svg id="svg" version="1.1" width="512" height="499" xmlns="http://www.w3.org/2000/svg"><path d="M209.674 6.042 C 204.842 9.843,188.131 46.966,183.982 63.118 C 182.906 67.307,181.343 76.982,180.509 84.618 C 178.039 107.232,176.038 120.640,174.472 125.080 C 172.517 130.621,172.582 131.000,175.497 131.000 C 176.946 131.000,179.618 129.533,181.862 127.506 L 185.730 124.011 186.377 128.756 C 186.732 131.365,187.972 137.223,189.130 141.773 L 191.237 150.046 188.932 158.023 C 187.664 162.410,186.148 165.997,185.563 165.994 C 184.979 165.990,183.226 165.323,181.669 164.511 C 177.839 162.513,161.662 157.000,159.631 157.000 C 157.445 157.000,157.569 155.750,159.900 154.294 C 162.711 152.539,166.791 143.284,167.523 137.000 C 168.931 124.913,160.329 103.077,150.774 94.486 C 147.995 91.988,145.561 90.105,145.365 90.302 C 145.168 90.498,146.326 93.098,147.937 96.079 C 154.586 108.385,157.787 129.341,154.660 140.097 C 153.776 143.139,151.688 147.511,150.020 149.814 L 146.987 154.000 131.744 154.000 C 106.297 154.000,83.290 159.798,57.702 172.657 C 49.083 176.988,28.581 182.950,19.670 183.716 C 15.832 184.046,12.217 184.926,11.420 185.723 C 9.858 187.285,9.554 191.749,10.869 193.822 C 11.970 195.559,18.158 196.946,24.940 196.976 L 30.380 197.000 27.033 200.250 C 22.846 204.316,17.891 211.978,13.436 221.274 L 10.000 228.444 10.000 281.184 C 10.000 331.078,10.106 334.210,11.958 339.212 C 15.675 349.253,16.239 353.589,16.868 377.000 L 17.500 400.500 22.808 395.075 C 25.727 392.091,29.552 387.033,31.308 383.836 C 33.064 380.639,34.725 378.028,35.000 378.034 C 35.275 378.039,37.031 382.871,38.902 388.772 C 40.772 394.672,42.899 400.372,43.627 401.438 C 44.890 403.286,45.137 403.182,48.936 399.188 C 51.127 396.885,53.551 395.000,54.322 395.000 C 55.093 395.000,58.823 396.396,62.612 398.102 C 67.681 400.384,71.616 403.259,77.510 408.987 L 85.520 416.770 80.367 417.302 C 77.534 417.594,72.054 419.221,68.190 420.917 C 62.909 423.234,59.680 424.000,55.184 424.000 C 50.090 424.000,47.864 424.670,40.167 428.524 C 30.319 433.453,26.567 437.179,22.950 445.617 C 21.799 448.302,19.133 452.750,17.027 455.500 C 10.742 463.704,10.000 466.498,10.000 481.972 L 10.000 495.701 19.197 496.353 C 24.912 496.759,28.774 496.626,29.397 496.003 C 30.391 495.009,24.353 494.456,17.454 494.910 L 14.408 495.110 15.182 486.287 C 15.608 481.434,16.624 475.243,17.441 472.529 C 18.258 469.814,18.764 467.431,18.565 467.232 C 17.945 466.612,15.138 476.173,13.789 483.500 L 12.500 490.500 12.205 483.801 C 11.627 470.651,16.172 460.259,26.122 451.978 C 34.957 444.625,40.689 442.000,47.908 442.000 C 51.194 442.000,54.102 442.356,54.370 442.790 C 54.639 443.225,52.627 444.374,49.898 445.343 C 46.905 446.406,42.883 449.064,39.756 452.047 C 36.250 455.391,33.430 457.178,31.037 457.573 C 25.483 458.488,24.099 459.334,27.500 459.733 C 32.658 460.340,33.782 460.976,31.729 462.129 C 30.755 462.676,30.200 463.514,30.495 463.992 C 30.791 464.471,30.527 465.174,29.910 465.556 C 29.114 466.048,29.182 466.501,30.143 467.110 C 31.100 467.716,31.140 467.974,30.278 467.985 C 29.056 468.000,25.388 478.722,26.295 479.628 C 26.559 479.892,27.326 477.809,28.000 475.000 C 29.875 467.185,30.192 469.658,28.524 479.089 C 27.706 483.715,27.065 488.625,27.100 490.000 C 27.163 492.502,28.804 485.100,30.839 473.134 C 32.099 465.725,34.201 462.000,37.120 462.000 C 38.261 462.000,42.723 463.836,47.036 466.079 C 52.970 469.167,56.818 472.180,62.856 478.471 C 71.196 487.157,74.960 492.789,73.167 493.897 C 72.605 494.244,64.313 494.522,54.739 494.514 C 41.474 494.503,37.334 494.797,37.333 495.750 C 37.333 496.741,56.442 497.000,129.544 497.000 C 210.535 497.000,221.908 496.816,223.007 495.491 C 224.190 494.066,222.671 488.389,218.502 478.651 C 217.787 476.982,217.916 476.930,219.828 478.125 C 222.063 479.521,226.000 487.570,226.000 490.744 C 226.000 491.775,226.638 493.491,227.419 494.559 C 228.777 496.417,230.577 496.512,269.449 496.783 C 295.298 496.962,310.686 496.701,311.781 496.063 C 313.078 495.307,312.119 495.053,307.872 495.030 C 301.037 494.993,299.560 493.643,302.015 489.676 L 303.762 486.852 307.381 490.030 C 311.316 493.484,312.112 492.978,309.000 489.000 C 307.924 487.625,307.034 485.228,307.022 483.674 L 307.000 480.848 309.873 483.174 C 311.453 484.453,314.394 488.110,316.408 491.301 L 320.071 497.102 325.264 496.801 C 330.422 496.502,330.459 496.476,330.697 493.000 C 331.170 486.112,337.741 452.384,338.462 453.149 C 338.644 453.342,338.307 462.830,337.713 474.234 C 337.120 485.637,336.949 495.282,337.334 495.667 C 339.221 497.555,339.827 492.190,340.855 464.500 C 341.933 435.469,343.045 425.408,346.510 413.368 C 347.751 409.058,348.429 408.151,350.741 407.709 C 354.024 407.082,354.964 408.263,354.985 413.039 C 354.999 416.241,354.739 416.575,352.269 416.539 C 349.987 416.506,349.334 417.117,348.294 420.251 C 346.823 424.689,348.005 428.927,350.927 429.691 C 353.690 430.414,354.018 433.096,352.978 446.500 C 352.466 453.100,352.037 461.942,352.024 466.150 C 352.001 473.546,351.884 473.916,348.500 477.300 C 344.423 481.377,343.921 485.358,346.990 489.261 C 348.085 490.652,349.142 492.850,349.340 494.145 L 349.699 496.500 425.099 496.763 C 495.156 497.007,500.589 496.905,501.750 495.322 C 502.730 493.986,503.000 472.720,503.000 397.006 L 503.000 300.394 500.099 296.447 C 490.748 283.723,475.954 248.635,466.391 216.500 L 462.523 203.500 462.735 183.750 C 462.851 172.887,462.566 164.000,462.102 164.000 C 459.490 164.000,459.000 218.183,461.475 233.414 C 463.037 243.026,465.740 252.869,465.893 249.500 C 465.943 248.400,465.321 242.550,464.511 236.500 C 463.702 230.450,463.060 223.025,463.086 220.000 L 463.133 214.500 466.486 226.000 C 473.252 249.207,486.298 280.604,494.210 292.725 C 498.684 299.578,498.847 300.025,496.083 297.862 C 493.502 295.842,479.564 277.838,476.500 272.566 C 475.801 271.364,475.480 275.613,475.434 286.673 C 475.365 303.406,473.770 312.080,467.929 327.500 C 465.766 333.209,465.620 333.365,464.902 330.704 C 464.487 329.165,463.829 322.314,463.440 315.477 C 462.992 307.605,462.365 303.274,461.731 303.666 C 460.310 304.544,461.529 329.895,463.394 338.266 C 465.430 347.402,469.518 356.225,475.200 363.750 C 477.796 367.188,479.683 370.000,479.394 370.000 C 476.224 370.000,459.959 356.766,456.089 351.037 C 454.214 348.260,452.460 346.206,452.193 346.473 C 451.927 346.740,452.846 349.555,454.237 352.729 C 456.098 356.974,456.927 361.012,457.373 368.000 C 458.238 381.558,461.802 393.113,468.013 402.500 C 472.442 409.194,472.527 409.595,468.950 406.928 C 467.052 405.513,463.979 403.263,462.119 401.928 C 460.260 400.592,457.412 397.475,455.790 395.000 L 452.842 390.500 453.333 394.097 C 454.050 399.347,458.967 410.327,463.029 415.752 C 465.367 418.875,468.523 421.470,472.387 423.446 C 475.594 425.086,477.727 426.591,477.128 426.791 C 474.977 427.508,465.378 424.013,459.150 420.246 C 441.238 409.409,436.241 397.981,437.282 370.225 C 437.843 355.271,439.596 344.402,444.495 325.500 C 446.116 319.247,447.247 311.753,447.512 305.500 C 447.879 296.867,447.800 296.184,446.933 300.500 C 446.381 303.250,445.307 307.525,444.545 310.000 C 443.783 312.475,442.865 316.750,442.505 319.500 C 442.144 322.250,440.512 329.675,438.877 336.000 C 437.243 342.325,435.439 352.225,434.868 358.000 C 434.298 363.775,433.629 369.933,433.382 371.685 C 433.108 373.636,430.332 378.201,426.217 383.472 L 419.500 392.074 419.270 387.787 C 419.144 385.429,418.520 380.517,417.883 376.871 L 416.725 370.243 421.893 364.033 C 427.733 357.015,431.681 349.657,434.974 339.652 C 436.866 333.903,437.282 330.134,437.565 316.152 C 437.750 306.994,437.932 298.825,437.970 298.000 C 438.008 297.175,437.844 280.300,437.605 260.500 C 437.366 240.700,437.475 217.525,437.846 209.000 L 438.521 193.500 439.818 203.000 C 443.490 229.891,444.205 241.433,443.538 263.000 C 443.172 274.825,442.788 287.425,442.684 291.000 C 442.580 294.575,442.775 299.975,443.117 303.000 L 443.738 308.500 444.072 302.000 C 444.256 298.425,444.482 292.575,444.574 289.000 C 444.666 285.425,445.084 274.175,445.503 264.000 C 446.315 244.269,445.523 231.927,441.814 206.500 C 440.691 198.800,439.554 189.800,439.288 186.500 L 438.804 180.500 442.032 180.280 C 446.979 179.943,449.760 177.545,451.340 172.253 C 452.120 169.639,454.122 164.800,455.788 161.500 C 463.483 146.259,467.602 131.278,466.791 121.489 C 466.264 115.137,461.408 104.565,456.546 99.182 C 452.083 94.243,447.653 92.640,439.993 93.194 L 434.198 93.613 433.032 84.057 C 431.526 71.716,430.700 68.567,425.811 56.500 C 420.680 43.836,416.883 36.267,411.391 27.748 C 403.676 15.782,393.278 6.000,388.273 6.000 C 386.150 6.000,386.451 6.449,390.673 9.590 C 400.864 17.169,410.362 30.168,419.062 48.444 C 426.514 64.097,427.868 68.318,429.562 81.173 C 432.508 103.528,433.201 127.870,433.698 226.500 C 434.202 326.773,434.191 327.564,432.090 336.385 C 430.926 341.272,428.576 347.891,426.869 351.095 C 422.712 358.893,414.505 367.736,407.546 371.915 C 402.482 374.956,399.692 375.970,389.856 378.346 L 387.212 378.985 390.159 375.830 C 396.377 369.173,401.631 357.055,404.034 343.824 C 405.220 337.292,405.495 304.822,404.401 300.463 C 404.061 299.108,403.424 298.000,402.985 298.000 C 402.546 298.000,400.748 301.487,398.990 305.750 C 390.952 325.239,377.376 342.765,362.267 353.160 C 359.920 354.775,358.000 355.724,358.000 355.270 C 358.000 354.815,361.134 350.184,364.964 344.978 C 379.986 324.559,389.834 300.052,392.885 275.500 C 394.555 262.058,395.263 228.379,394.151 215.281 C 393.202 204.110,393.320 201.843,395.527 188.839 C 397.559 176.866,397.932 168.734,396.378 170.288 C 395.883 170.784,386.921 218.238,383.895 236.390 C 382.168 246.749,383.268 260.927,386.531 270.351 C 389.147 277.909,389.201 278.477,387.983 285.601 C 386.787 292.590,385.007 295.657,384.994 290.750 C 384.990 289.512,383.641 283.830,381.994 278.123 C 376.349 258.552,375.532 250.691,375.586 216.500 C 375.636 184.447,376.836 167.458,381.163 137.500 C 383.582 120.757,384.850 87.450,383.135 85.735 C 382.288 84.888,382.000 87.560,382.000 96.241 C 382.000 102.644,381.631 108.110,381.181 108.388 C 380.730 108.667,379.633 105.860,378.743 102.151 C 376.569 93.094,373.369 84.739,370.845 81.530 C 369.705 80.081,368.617 79.049,368.428 79.238 C 368.240 79.427,369.397 83.370,371.000 88.000 C 372.603 92.630,373.755 96.579,373.559 96.775 C 372.307 98.026,345.556 81.529,341.301 76.882 C 338.607 73.939,335.917 67.957,326.288 43.500 C 318.705 24.240,312.869 11.893,312.240 13.781 C 311.902 14.794,326.912 54.893,329.600 60.160 C 330.347 61.623,331.897 65.223,333.045 68.160 C 335.891 75.440,334.042 73.399,312.774 45.783 C 309.929 42.088,307.439 39.227,307.242 39.425 C 306.259 40.407,310.563 47.600,318.056 57.500 C 338.828 84.942,357.831 105.050,371.117 113.644 C 377.978 118.083,379.639 120.412,378.500 124.000 C 377.709 126.492,376.625 126.487,363.401 123.935 C 346.936 120.758,334.811 115.636,321.486 106.230 C 304.853 94.490,288.227 72.649,283.986 56.968 C 282.073 49.895,277.003 18.931,277.002 14.309 C 277.001 12.004,276.550 9.840,276.000 9.500 C 274.112 8.333,274.966 21.420,277.962 39.563 C 281.153 58.890,289.046 88.212,295.930 106.316 C 303.614 126.521,300.430 123.107,287.245 97.000 C 281.166 84.963,275.736 72.524,273.060 64.500 C 268.181 49.876,266.567 46.398,267.491 52.500 C 269.786 67.668,284.996 101.788,298.413 121.870 C 310.460 139.902,316.402 146.643,330.358 158.110 C 331.720 159.230,314.195 154.095,307.838 151.512 C 299.435 148.098,287.733 139.626,280.551 131.757 C 270.043 120.243,257.508 97.480,251.159 78.384 C 246.162 63.354,244.801 54.313,244.105 31.500 C 243.408 8.648,242.849 8.081,239.513 26.838 C 238.763 31.052,236.489 38.775,234.458 44.000 C 232.427 49.225,228.804 61.303,226.406 70.840 C 219.580 97.990,217.723 122.622,220.951 143.213 C 221.396 146.055,221.321 147.698,220.761 147.352 C 218.112 145.715,210.904 134.216,209.103 128.751 C 206.324 120.325,204.696 105.273,205.967 99.764 C 207.025 95.178,207.335 89.332,206.474 90.193 C 206.184 90.483,205.058 93.248,203.972 96.339 C 200.496 106.229,198.600 122.068,198.548 141.655 C 198.522 151.639,198.178 159.610,197.785 159.367 C 196.601 158.635,191.154 140.680,190.048 133.863 C 188.712 125.629,188.726 109.497,190.083 95.015 C 191.179 83.312,194.437 71.095,199.602 59.316 C 204.153 48.939,214.319 33.719,222.250 25.408 C 230.316 16.956,231.549 15.101,227.750 17.133 C 222.740 19.813,213.652 29.867,206.955 40.137 C 192.759 61.909,186.000 84.385,186.000 109.823 L 186.000 118.199 179.885 124.350 C 174.716 129.550,174.094 129.948,175.859 126.924 C 178.326 122.700,180.602 113.255,181.502 103.500 C 183.055 86.683,185.245 70.050,186.639 64.500 C 188.723 56.198,199.439 29.633,203.309 23.174 C 205.064 20.245,209.274 15.183,212.663 11.924 C 217.588 7.191,219.497 5.986,222.163 5.930 C 224.936 5.871,225.162 5.714,223.500 5.000 C 219.630 3.337,212.422 3.880,209.674 6.042 M454.000 4.944 C 452.781 5.777,452.950 5.972,454.900 5.985 C 457.890 6.004,465.087 13.412,469.206 20.711 C 474.217 29.589,482.654 36.209,496.250 41.930 C 499.869 43.453,501.024 44.473,501.100 46.214 C 501.197 48.435,501.221 48.429,501.943 46.000 C 503.035 42.327,501.668 40.520,496.297 38.534 C 483.909 33.953,476.524 27.710,470.966 17.117 C 465.308 6.334,464.047 4.941,459.443 4.390 C 457.275 4.130,454.825 4.379,454.000 4.944 M331.000 25.652 C 331.000 27.015,337.629 37.796,342.737 44.740 C 345.067 47.908,351.205 55.000,356.378 60.500 C 364.195 68.813,365.694 70.024,365.261 67.678 C 364.941 65.948,361.250 61.109,355.726 55.178 C 350.769 49.855,343.346 41.000,339.229 35.500 C 330.391 23.691,331.000 24.419,331.000 25.652 M240.000 44.558 C 240.000 53.484,250.030 86.094,257.181 100.416 C 275.819 137.746,296.055 155.070,325.675 159.051 C 329.979 159.630,334.400 160.325,335.500 160.597 C 337.602 161.117,337.136 160.642,323.684 148.571 C 316.672 142.278,315.629 140.744,316.500 138.001 C 317.503 134.838,331.298 130.509,348.427 127.980 C 356.487 126.790,374.456 127.428,376.990 128.994 C 378.480 129.914,378.274 133.345,374.986 162.500 C 373.353 176.968,372.752 189.371,372.465 214.500 L 372.088 247.500 368.294 250.852 C 361.337 256.998,352.545 262.807,340.359 269.309 C 321.361 279.444,313.293 281.800,307.684 278.851 C 303.625 276.717,254.375 226.556,250.096 220.197 C 244.369 211.688,243.531 209.440,238.900 190.169 C 236.697 181.001,234.633 172.600,234.314 171.500 C 233.742 169.528,233.765 169.527,235.867 171.405 C 238.874 174.091,238.519 172.795,234.805 167.525 L 231.609 162.992 233.838 156.070 C 235.449 151.070,237.019 148.313,239.492 146.141 C 244.911 141.383,254.673 140.729,259.529 144.799 C 262.760 147.508,265.443 154.071,265.473 159.338 C 265.509 165.730,262.535 168.482,256.489 167.654 C 254.271 167.349,251.872 167.461,251.160 167.901 C 249.035 169.214,255.521 171.339,259.622 170.674 C 267.795 169.348,270.311 164.436,268.033 154.255 C 267.021 149.734,267.039 148.594,268.131 147.919 C 270.281 146.590,266.233 142.103,259.961 138.864 C 253.277 135.412,245.328 135.010,239.984 137.855 C 235.984 139.985,231.379 146.115,230.486 150.500 C 230.150 152.150,229.373 154.799,228.760 156.387 C 227.683 159.172,227.581 159.013,225.864 151.887 C 224.885 147.824,224.065 141.478,224.042 137.785 C 224.004 131.724,224.292 130.738,226.990 127.664 C 230.639 123.508,241.341 117.748,249.763 115.406 C 253.193 114.452,256.000 113.329,256.000 112.909 C 256.000 111.587,250.813 108.000,248.903 108.000 C 242.469 108.000,227.566 117.039,225.656 122.100 C 223.512 127.781,222.724 125.047,223.394 114.250 C 224.570 95.307,226.043 83.748,228.586 73.500 C 231.775 60.654,238.204 41.000,239.217 41.000 C 239.648 41.000,240.000 42.601,240.000 44.558 M501.160 57.231 C 501.040 59.272,500.344 60.126,498.404 60.613 C 495.808 61.265,486.137 60.574,481.475 59.404 C 478.162 58.573,478.345 59.823,482.400 65.719 C 494.661 83.543,497.573 98.135,492.361 115.638 C 489.268 126.026,488.157 139.916,489.978 145.433 C 490.644 147.452,493.397 151.854,496.095 155.216 C 498.793 158.577,501.007 162.267,501.015 163.414 C 501.028 165.127,501.204 165.232,502.000 164.000 C 503.800 161.215,503.016 158.209,499.352 153.845 C 491.302 144.257,489.902 134.441,494.567 120.288 C 498.021 109.808,498.817 96.796,496.537 88.080 C 494.733 81.187,490.178 71.364,486.529 66.500 L 484.278 63.500 492.631 63.852 C 501.917 64.244,502.471 63.878,501.730 57.845 C 501.379 54.980,501.297 54.892,501.160 57.231 M292.555 80.108 C 294.906 84.748,295.059 87.000,293.021 87.000 C 292.548 87.000,291.384 84.638,290.435 81.750 C 289.485 78.862,288.473 75.864,288.184 75.086 C 286.942 71.736,290.222 75.505,292.555 80.108 M358.000 92.156 C 362.125 94.615,366.918 97.197,368.651 97.894 C 370.384 98.591,372.685 100.137,373.763 101.330 C 375.666 103.436,378.570 112.764,377.618 113.715 C 376.707 114.627,362.398 103.199,352.750 93.853 C 343.023 84.431,339.512 79.110,346.750 84.758 C 348.813 86.368,353.875 89.697,358.000 92.156 M306.538 98.080 C 312.263 103.941,330.048 116.201,335.377 117.959 C 339.498 119.319,340.177 121.000,336.605 121.000 C 332.424 121.000,320.689 125.118,316.337 128.112 C 314.029 129.700,311.719 131.000,311.205 131.000 C 309.393 131.000,296.000 99.915,296.000 95.710 C 296.000 91.162,300.844 92.251,306.538 98.080 M451.501 99.135 C 453.464 100.859,456.924 105.389,459.190 109.203 C 462.762 115.215,463.365 117.091,463.729 123.318 C 464.240 132.066,461.034 145.521,455.620 157.344 L 452.028 165.187 449.514 162.199 C 448.131 160.556,447.000 158.811,447.000 158.322 C 447.000 157.833,448.567 155.000,450.482 152.027 C 454.435 145.892,457.493 137.607,456.437 135.898 C 456.014 135.214,455.238 136.176,454.514 138.281 C 453.847 140.223,452.069 143.913,450.563 146.482 C 448.096 150.692,447.662 151.009,446.163 149.697 C 443.462 147.333,438.000 144.850,438.000 145.987 C 438.000 146.559,440.037 148.015,442.526 149.225 C 445.806 150.818,446.877 151.847,446.417 152.962 C 446.068 153.808,445.342 156.032,444.802 157.904 C 443.896 161.047,444.058 161.495,446.910 163.727 C 448.610 165.057,450.000 167.027,450.000 168.105 C 450.000 171.718,447.130 177.000,444.656 177.941 C 440.463 179.535,438.218 178.247,437.470 173.822 C 436.705 169.294,437.719 160.708,438.931 161.457 C 439.372 161.730,440.580 160.986,441.616 159.805 C 442.652 158.623,442.933 157.988,442.241 158.393 C 441.549 158.798,439.974 158.781,438.741 158.356 C 436.734 157.664,436.865 157.526,440.000 157.041 C 442.885 156.595,443.500 156.075,443.500 154.083 C 443.500 152.754,442.926 151.550,442.225 151.408 C 441.524 151.266,441.411 151.379,441.975 151.658 C 442.539 151.938,443.000 152.765,443.000 153.497 C 443.000 154.459,442.240 154.624,440.250 154.093 C 436.781 153.167,436.544 151.482,435.559 120.749 L 434.830 97.999 437.165 97.063 C 438.449 96.548,441.397 96.098,443.715 96.063 C 447.065 96.013,448.663 96.643,451.501 99.135 M436.667 105.667 C 436.300 106.033,436.036 107.271,436.079 108.417 C 436.122 109.563,436.385 109.938,436.662 109.250 C 436.940 108.563,438.714 108.000,440.605 108.000 C 443.402 108.000,445.064 108.989,449.521 113.307 C 453.805 117.455,455.000 118.188,455.000 116.664 C 455.000 115.592,452.814 112.529,450.143 109.857 C 445.962 105.676,444.732 105.000,441.310 105.000 C 439.123 105.000,437.033 105.300,436.667 105.667 M311.368 114.368 C 307.393 118.343,305.826 121.169,307.750 120.892 C 309.196 120.684,318.288 110.000,317.019 110.000 C 316.314 110.000,313.771 111.966,311.368 114.368 M253.481 111.914 C 254.995 112.506,254.377 112.810,250.858 113.207 C 246.019 113.752,232.793 119.340,230.877 121.648 C 230.260 122.392,229.276 123.000,228.690 123.000 C 226.393 123.000,233.755 116.779,239.375 113.970 C 245.241 111.039,249.610 110.402,253.481 111.914 M441.750 119.816 C 440.238 119.990,439.000 120.530,439.000 121.015 C 439.000 121.769,449.950 121.301,450.801 120.510 C 451.340 120.010,444.575 119.491,441.750 119.816 M441.087 125.420 C 441.318 125.651,443.530 126.527,446.003 127.366 L 450.500 128.892 448.139 126.946 C 446.841 125.876,444.628 125.000,443.223 125.000 C 441.817 125.000,440.856 125.189,441.087 125.420 M217.716 148.908 C 223.814 155.127,225.888 158.755,224.566 160.893 C 224.224 161.447,224.886 162.404,226.038 163.020 C 228.912 164.558,231.538 171.124,235.573 186.863 C 237.458 194.213,239.000 200.419,239.000 200.655 C 239.000 200.891,237.313 199.315,235.250 197.154 C 232.531 194.304,229.713 192.655,225.000 191.158 C 201.380 183.652,193.392 180.057,191.202 175.945 C 189.500 172.748,190.198 162.754,192.491 157.500 L 194.237 153.500 195.287 156.500 C 195.865 158.150,196.374 163.086,196.419 167.470 L 196.500 175.440 200.500 177.611 C 202.700 178.806,205.625 180.117,207.000 180.524 C 209.423 181.243,209.446 181.205,207.750 179.304 C 206.787 178.225,205.741 175.142,205.424 172.454 C 205.108 169.765,204.611 167.179,204.318 166.706 C 203.637 165.604,203.727 156.831,204.586 140.654 L 205.267 127.808 208.322 135.125 C 210.623 140.637,212.941 144.038,217.716 148.908 M241.000 130.081 C 233.864 133.311,228.000 139.900,228.000 144.687 C 228.000 145.749,229.431 144.349,231.531 141.231 C 236.625 133.666,241.864 130.491,249.180 130.535 C 254.359 130.566,254.752 130.433,252.750 129.320 C 249.529 127.532,246.149 127.750,241.000 130.081 M244.655 146.829 C 243.745 147.835,243.000 149.554,243.000 150.651 C 243.000 153.658,246.053 162.000,247.153 162.000 C 247.684 162.000,247.886 161.625,247.603 161.167 C 247.131 160.404,252.180 160.414,259.373 161.190 C 261.179 161.385,262.627 160.907,263.271 159.905 C 265.703 156.116,260.753 148.661,256.157 149.193 C 253.883 149.456,253.456 150.033,253.193 153.197 C 252.956 156.052,252.534 156.758,251.342 156.301 C 250.493 155.975,249.419 156.321,248.956 157.070 C 248.327 158.089,247.849 157.732,247.057 155.651 C 244.856 149.860,245.607 148.446,252.000 146.355 L 255.500 145.210 250.905 145.105 C 247.626 145.030,245.836 145.524,244.655 146.829 M262.020 157.476 C 261.324 158.314,260.365 159.000,259.887 159.000 C 259.410 159.000,259.779 158.113,260.706 157.030 C 261.634 155.946,262.594 155.261,262.839 155.506 C 263.084 155.751,262.716 156.638,262.020 157.476 M201.000 168.559 C 201.000 171.344,200.611 172.878,200.000 172.500 C 198.279 171.437,198.863 164.000,200.667 164.000 C 200.850 164.000,201.000 166.052,201.000 168.559 M441.052 165.902 C 440.492 166.949,439.914 169.311,439.767 171.152 C 439.521 174.239,439.725 174.500,442.392 174.500 C 444.368 174.500,445.921 173.647,447.295 171.807 C 449.200 169.256,449.217 168.981,447.629 166.557 C 445.652 163.539,442.486 163.224,441.052 165.902 M446.000 167.671 C 446.000 169.462,443.241 173.000,441.845 173.000 C 440.532 173.000,440.843 171.169,442.615 168.465 C 444.481 165.616,446.000 165.260,446.000 167.671 M260.500 172.514 C 255.802 174.520,250.779 175.944,248.332 175.965 C 246.039 175.984,243.454 176.272,242.588 176.605 C 239.444 177.811,242.255 179.000,248.251 179.000 C 253.621 179.000,255.224 178.501,261.142 174.985 C 264.859 172.776,268.175 170.526,268.509 169.985 C 269.298 168.709,269.741 168.569,260.500 172.514 M65.525 173.959 C 65.199 174.487,62.245 176.351,58.961 178.102 C 53.165 181.191,48.671 186.276,38.288 201.500 C 34.644 206.842,22.021 231.633,19.880 237.650 C 15.410 250.216,13.658 283.561,16.500 302.000 C 18.327 313.857,18.373 325.974,16.614 332.500 C 15.124 338.028,15.276 338.219,13.030 328.000 C 12.607 326.075,12.205 305.275,12.136 281.777 C 11.998 234.724,12.217 232.449,17.989 221.000 C 22.838 211.382,26.486 206.305,34.265 198.347 L 41.257 191.194 34.976 192.505 C 24.674 194.655,14.000 193.404,14.000 190.048 C 14.000 188.583,15.114 188.096,19.750 187.535 C 29.539 186.352,54.425 178.930,62.000 174.934 C 66.132 172.755,66.298 172.709,65.525 173.959 M273.731 176.500 C 271.555 183.980,267.894 202.280,268.341 203.446 C 269.094 205.408,279.124 213.214,279.883 212.429 C 280.222 212.077,278.299 209.844,275.609 207.467 C 270.087 202.586,270.262 204.335,273.477 186.190 C 274.982 177.697,275.141 171.657,273.731 176.500 M482.000 176.966 C 482.000 177.437,483.462 179.036,485.250 180.519 C 494.591 188.271,501.002 195.297,501.063 197.850 L 501.127 200.500 502.085 198.105 C 503.448 194.697,502.383 191.991,498.172 188.158 L 494.500 184.816 498.148 185.329 C 501.569 185.809,501.823 185.658,502.230 182.889 C 502.695 179.715,501.508 180.194,500.713 183.500 C 500.324 185.119,500.210 185.014,500.116 182.951 C 500.011 180.652,499.663 180.441,496.563 180.803 C 494.305 181.066,491.217 180.331,487.563 178.657 C 484.503 177.257,482.000 176.496,482.000 176.966 M190.563 182.250 L 193.500 185.500 190.250 182.563 C 187.221 179.825,186.540 179.000,187.313 179.000 C 187.485 179.000,188.948 180.463,190.563 182.250 M228.310 196.356 C 230.995 197.478,233.251 200.194,238.861 209.060 C 242.786 215.262,245.739 220.594,245.424 220.910 C 245.108 221.225,244.438 220.747,243.935 219.848 C 243.432 218.949,241.553 216.417,239.760 214.221 C 237.967 212.025,234.555 207.695,232.177 204.597 C 229.624 201.270,225.940 197.929,223.177 196.434 C 218.857 194.097,218.744 193.943,221.697 194.416 C 223.455 194.698,226.431 195.571,228.310 196.356 M336.917 210.517 C 335.803 213.235,317.514 225.386,310.685 227.945 C 309.137 228.525,306.070 229.000,303.869 229.000 C 301.669 229.000,298.918 229.508,297.757 230.130 C 296.596 230.751,293.138 231.237,290.073 231.210 C 285.020 231.165,284.681 231.293,286.441 232.580 C 288.914 234.389,294.766 234.349,298.000 232.500 C 299.375 231.714,302.675 231.055,305.334 231.035 C 309.357 231.006,312.418 229.813,323.585 223.919 C 333.883 218.484,337.141 216.285,337.599 214.461 C 338.219 211.991,337.653 208.719,336.917 210.517 M391.471 247.750 C 391.090 259.988,390.414 270.000,389.969 270.000 C 388.675 270.000,386.000 256.653,386.000 250.198 C 386.000 244.656,389.140 221.128,390.765 214.500 C 391.968 209.591,392.249 222.825,391.471 247.750 M224.538 235.492 C 233.981 244.888,244.830 258.451,247.946 264.753 C 253.150 275.278,253.140 275.152,252.281 322.500 L 251.482 366.500 248.278 373.283 C 246.516 377.014,242.260 383.539,238.821 387.783 C 230.161 398.471,214.659 413.746,207.630 418.516 C 202.076 422.286,201.296 422.518,193.113 422.841 C 188.357 423.028,179.316 422.466,173.023 421.591 C 166.730 420.716,159.987 420.029,158.040 420.063 C 154.843 420.121,154.724 420.217,156.816 421.055 C 158.089 421.566,161.801 424.038,165.064 426.549 C 168.327 429.060,174.598 432.917,179.000 435.120 C 186.771 439.009,187.037 439.262,188.165 443.813 C 189.070 447.465,190.616 449.741,195.164 454.122 C 201.193 459.931,202.073 462.396,200.377 468.723 L 199.781 470.945 195.641 468.113 C 189.731 464.071,186.823 462.716,175.000 458.494 C 162.499 454.031,148.391 447.125,143.805 443.224 C 141.987 441.679,137.537 438.516,133.915 436.197 C 125.839 431.025,123.608 428.650,121.988 423.500 C 120.360 418.322,116.113 411.000,114.738 411.000 C 114.149 411.000,113.904 410.762,114.195 410.472 C 114.485 410.182,116.023 410.458,117.611 411.087 C 121.741 412.721,130.000 414.903,130.000 414.360 C 130.000 414.108,126.513 412.259,122.250 410.252 C 111.073 404.990,105.198 401.294,99.310 395.823 C 96.455 393.170,93.500 391.000,92.742 391.000 C 91.985 391.000,88.020 391.889,83.932 392.976 C 74.364 395.521,65.786 395.540,60.254 393.029 C 50.143 388.439,41.619 380.813,34.052 369.586 C 22.453 352.378,16.579 335.193,21.750 333.594 C 25.972 332.288,41.245 331.143,43.418 331.969 C 45.248 332.665,48.000 337.277,48.000 339.649 C 48.000 339.842,44.950 340.000,41.223 340.000 C 30.766 340.000,27.940 343.032,31.621 350.300 C 35.318 357.601,36.997 358.155,46.000 355.042 C 50.893 353.350,51.149 353.133,48.315 353.070 C 46.563 353.032,43.916 353.461,42.433 354.025 C 38.649 355.464,36.624 354.532,34.680 350.456 C 32.679 346.259,32.520 343.121,34.274 342.448 C 34.975 342.179,38.660 342.306,42.464 342.730 L 49.380 343.500 54.706 350.444 C 57.636 354.263,61.601 358.824,63.517 360.579 C 66.387 363.208,66.987 364.450,66.927 367.635 C 66.887 369.761,66.066 372.850,65.102 374.500 C 63.696 376.909,62.577 377.557,59.425 377.789 C 56.182 378.028,54.300 377.289,48.591 373.532 C 44.790 371.031,41.415 369.259,41.091 369.592 C 40.221 370.486,48.411 377.493,52.710 379.533 C 58.142 382.110,64.323 382.503,70.818 380.684 C 73.943 379.808,77.737 378.838,79.250 378.527 C 80.763 378.216,82.000 377.368,82.000 376.641 C 82.000 375.257,77.942 373.000,75.453 373.000 C 72.598 373.000,70.000 369.165,70.000 364.950 C 70.000 360.642,68.184 356.227,65.493 353.994 C 63.226 352.113,60.027 345.630,57.873 338.552 C 55.793 331.716,56.141 330.261,58.719 335.011 C 62.994 342.889,70.401 353.187,74.020 356.285 C 81.940 363.065,94.718 367.615,97.638 364.696 C 98.609 363.725,97.105 358.736,92.519 347.715 C 90.508 342.884,88.638 337.259,88.363 335.215 C 87.930 331.997,88.402 332.556,91.887 339.399 C 94.100 343.743,97.169 348.638,98.706 350.276 C 106.366 358.440,117.612 365.081,111.524 357.846 C 107.360 352.897,102.218 341.866,97.428 327.607 C 91.686 310.513,91.699 308.679,97.595 302.958 C 103.104 297.613,109.596 288.368,111.448 283.228 C 112.187 281.178,114.148 276.794,115.806 273.487 C 117.464 270.180,119.846 264.330,121.099 260.487 L 123.378 253.500 124.151 257.000 C 124.576 258.925,125.226 263.940,125.597 268.144 L 126.270 275.787 121.885 277.748 C 119.473 278.827,116.621 280.699,115.546 281.909 C 113.780 283.897,114.202 283.819,119.960 281.096 C 126.694 277.912,128.000 277.910,128.000 281.084 C 128.000 282.374,126.381 283.985,123.289 285.775 C 115.677 290.178,108.795 297.275,104.241 305.417 C 101.909 309.588,100.000 313.484,100.000 314.075 C 100.000 315.169,106.834 326.920,109.509 330.427 C 112.374 334.182,112.115 331.092,109.081 325.338 C 107.389 322.127,106.003 318.473,106.002 317.218 C 105.997 311.406,113.173 300.346,120.167 295.385 C 124.618 292.229,131.545 289.309,130.475 291.040 C 129.532 292.566,131.173 292.154,133.145 290.369 C 135.494 288.243,143.909 288.388,148.266 290.629 C 150.044 291.544,153.482 294.033,155.905 296.159 C 158.327 298.285,160.516 299.817,160.769 299.565 C 161.741 298.593,156.536 291.676,152.790 288.963 C 150.629 287.398,145.968 285.154,142.431 283.977 C 136.930 282.146,136.000 281.494,136.000 279.463 C 136.000 277.127,136.064 277.111,139.975 278.491 C 142.161 279.262,145.623 281.030,147.668 282.420 C 149.713 283.810,151.601 284.732,151.864 284.470 C 152.884 283.450,147.563 279.058,142.851 277.031 C 137.525 274.740,136.455 273.306,137.366 269.679 C 137.890 267.589,138.864 267.237,147.344 266.073 C 152.512 265.364,157.679 265.081,158.826 265.445 C 159.972 265.809,162.984 268.413,165.520 271.233 L 170.129 276.360 169.814 285.559 L 169.500 294.759 175.000 292.350 C 178.025 291.024,181.682 289.081,183.127 288.031 C 184.606 286.957,186.630 286.352,187.760 286.647 C 193.027 288.025,202.002 278.495,206.951 266.270 C 209.555 259.837,209.936 259.410,214.596 257.689 C 217.293 256.693,220.175 255.204,221.000 254.379 C 222.574 252.806,222.064 252.200,213.515 245.500 C 211.340 243.796,210.810 242.258,209.931 235.098 C 209.364 230.476,208.247 225.134,207.450 223.225 C 206.652 221.317,206.000 219.541,206.000 219.279 C 206.000 218.497,218.046 229.032,224.538 235.492 M440.478 255.500 C 440.464 278.256,440.715 286.172,441.287 281.000 C 442.341 271.483,442.347 236.412,441.297 228.500 C 440.794 224.711,440.492 234.662,440.478 255.500 M230.215 233.489 C 231.303 235.613,230.967 235.303,226.985 230.507 C 224.588 227.620,224.583 227.584,226.843 229.496 C 228.131 230.586,229.649 232.383,230.215 233.489 M140.339 242.154 L 143.991 248.808 140.630 250.791 L 137.270 252.773 136.725 245.137 C 136.425 240.936,135.848 236.600,135.443 235.500 C 134.133 231.945,136.508 235.173,140.339 242.154 M261.691 239.369 C 262.548 241.027,263.627 243.759,264.088 245.442 L 264.927 248.500 262.474 245.500 C 261.125 243.850,259.353 240.542,258.537 238.150 C 257.203 234.239,257.208 233.928,258.592 235.077 C 259.439 235.779,260.833 237.711,261.691 239.369 M271.587 248.493 C 272.710 250.206,272.990 251.848,272.483 253.743 L 271.746 256.500 270.497 253.500 C 268.281 248.180,267.820 246.000,268.910 246.000 C 269.484 246.000,270.689 247.122,271.587 248.493 M165.149 262.500 C 166.572 265.130,154.462 253.380,151.751 249.500 C 150.598 247.850,152.897 249.650,156.861 253.500 C 160.824 257.350,164.554 261.400,165.149 262.500 M374.943 261.500 C 376.525 270.839,380.656 285.405,383.059 290.115 C 384.126 292.208,385.000 294.852,385.000 295.992 C 385.000 302.490,374.003 326.902,367.697 334.403 C 357.108 346.997,354.781 352.359,353.549 367.000 C 352.736 376.655,351.912 382.245,351.380 381.713 C 349.767 380.100,347.959 362.564,348.059 349.500 C 348.162 335.914,347.929 333.746,345.587 326.500 C 344.164 322.100,343.000 317.769,343.000 316.875 C 343.000 315.981,345.505 309.918,348.568 303.401 C 351.630 296.884,356.605 285.465,359.625 278.026 C 365.562 263.397,372.108 251.424,373.128 253.327 C 373.474 253.972,374.290 257.650,374.943 261.500 M281.382 259.351 C 298.668 277.612,302.727 281.434,306.701 283.192 L 311.053 285.117 309.103 287.808 C 305.624 292.610,295.686 301.689,287.645 307.411 C 280.053 312.813,276.480 314.537,278.887 311.636 C 280.893 309.219,286.317 281.837,286.441 273.500 C 286.500 269.519,286.483 269.501,282.924 269.772 C 278.970 270.072,277.458 268.805,274.846 263.000 C 273.194 259.330,273.873 255.000,276.099 255.000 C 276.739 255.000,279.116 256.958,281.382 259.351 M216.500 265.412 C 213.268 266.848,210.372 269.735,207.383 274.500 C 205.677 277.219,205.876 277.136,209.500 273.615 C 214.157 269.091,220.199 266.053,224.601 266.022 C 226.307 266.010,229.835 267.134,232.441 268.520 C 238.148 271.554,238.131 269.517,232.422 266.266 C 227.936 263.712,221.145 263.347,216.500 265.412 M201.000 268.763 C 201.000 269.971,193.884 280.217,193.389 279.722 C 192.773 279.106,199.236 268.000,200.211 268.000 C 200.645 268.000,201.000 268.344,201.000 268.763 M269.119 284.881 C 270.353 287.694,271.382 293.437,271.994 300.932 C 272.964 312.800,276.261 328.738,279.952 339.399 C 282.788 347.590,289.989 360.838,295.492 367.990 C 300.534 374.542,300.455 374.574,290.656 369.968 C 283.357 366.538,280.321 362.947,279.049 356.242 C 277.272 346.874,272.136 326.770,266.386 306.678 C 261.612 289.994,261.002 286.814,261.018 278.678 L 261.036 269.500 264.116 275.000 C 265.810 278.025,268.061 282.471,269.119 284.881 M216.852 273.016 C 209.794 276.745,203.862 286.074,204.071 293.116 C 204.129 295.078,204.457 294.791,205.924 291.499 C 209.411 283.673,220.032 276.787,226.220 278.340 C 229.666 279.205,236.344 284.274,239.514 288.430 C 243.073 293.095,244.902 298.393,244.956 304.191 C 245.028 311.878,246.579 310.498,247.752 301.703 C 248.985 292.458,248.149 289.435,242.084 281.202 C 235.249 271.923,225.132 268.641,216.852 273.016 M283.983 275.060 C 283.442 276.945,283.000 280.177,283.000 282.243 C 283.000 284.310,282.550 286.000,282.000 286.000 C 280.252 286.000,280.810 274.867,282.661 272.823 C 284.857 270.395,285.169 270.923,283.983 275.060 M187.922 276.750 C 185.037 280.568,181.573 284.000,180.605 284.000 C 180.043 284.000,181.571 281.975,184.000 279.500 C 188.549 274.865,190.246 273.675,187.922 276.750 M334.316 283.250 C 339.159 288.146,339.441 291.796,336.598 312.848 C 334.852 325.776,333.355 333.344,332.028 335.945 C 329.270 341.351,310.982 364.243,311.011 362.253 C 311.035 360.642,316.890 343.103,319.879 335.689 C 321.611 331.393,325.497 323.255,328.514 317.605 C 331.531 311.954,333.986 306.244,333.969 304.916 C 333.941 302.767,333.659 302.941,331.415 306.500 C 321.491 322.238,309.587 352.195,306.925 368.129 L 305.651 375.758 300.538 369.129 C 292.172 358.280,291.690 357.281,292.384 352.217 C 293.885 341.267,303.343 316.658,308.608 310.005 C 312.919 304.557,311.481 303.598,305.471 307.914 C 296.548 314.321,277.925 321.608,278.047 318.644 C 278.073 318.015,283.971 313.478,291.154 308.561 C 302.058 301.098,305.216 298.330,310.286 291.790 C 315.428 285.155,317.057 283.741,320.929 282.548 C 327.793 280.433,331.734 280.639,334.316 283.250 M214.073 285.062 C 208.584 289.038,206.710 293.570,206.655 303.000 C 206.603 311.882,208.960 320.585,212.431 324.331 C 214.348 326.399,215.841 327.000,219.067 327.000 C 222.580 327.000,223.752 326.430,226.571 323.352 C 228.409 321.346,230.607 317.666,231.456 315.174 C 233.327 309.685,233.385 308.336,231.750 308.324 C 231.063 308.319,229.431 307.970,228.125 307.550 C 226.486 307.023,225.962 307.129,226.434 307.893 C 226.810 308.502,227.766 309.000,228.559 309.000 C 230.653 309.000,230.335 311.405,227.501 316.997 C 224.855 322.219,222.631 324.000,218.754 324.000 C 212.803 324.000,209.483 316.616,209.537 303.500 C 209.577 293.813,211.024 289.498,215.217 286.561 C 220.075 283.158,225.596 286.216,228.057 293.673 C 229.085 296.789,228.967 297.406,226.928 299.576 C 224.260 302.416,224.577 302.557,228.846 300.427 C 232.543 298.583,232.823 296.366,230.098 290.500 C 225.898 281.456,221.235 279.874,214.073 285.062 M487.873 299.238 C 487.368 301.582,483.481 314.616,479.237 328.203 C 470.843 355.072,470.635 355.355,467.964 343.500 C 466.902 338.788,467.048 337.954,470.512 329.000 C 472.534 323.775,474.993 318.150,475.977 316.500 C 478.779 311.804,484.744 299.730,485.447 297.332 C 485.904 295.774,485.263 294.226,483.169 291.832 C 481.566 289.999,479.934 286.925,479.541 285.000 C 478.873 281.720,479.141 281.924,483.810 288.238 C 488.630 294.755,488.763 295.115,487.873 299.238 M351.618 289.662 C 350.772 291.223,350.062 292.184,350.040 291.797 C 349.972 290.608,352.299 285.965,352.741 286.407 C 352.969 286.636,352.464 288.100,351.618 289.662 M481.678 297.454 C 481.100 300.855,478.082 308.415,477.524 307.857 C 477.327 307.660,477.665 304.029,478.276 299.788 C 479.204 293.349,479.619 292.269,480.791 293.242 C 481.686 293.984,482.008 295.513,481.678 297.454 M125.500 294.659 C 117.008 299.128,113.838 304.567,113.890 314.576 C 113.973 330.554,124.152 342.102,135.880 339.526 C 141.922 338.199,146.981 329.626,146.994 320.691 C 147.001 315.962,145.301 316.700,144.472 321.785 C 142.952 331.104,138.354 337.003,132.615 336.996 C 120.589 336.982,111.929 316.708,118.511 303.979 C 119.361 302.336,121.816 299.827,123.967 298.403 C 129.843 294.514,133.614 295.892,139.899 304.222 C 140.983 305.658,140.933 306.210,139.599 307.544 C 137.053 310.090,137.740 310.977,141.000 309.350 C 142.650 308.527,144.000 307.392,144.000 306.828 C 144.000 304.081,140.244 298.465,136.681 295.884 C 132.195 292.634,129.838 292.376,125.500 294.659 M212.676 297.348 C 212.001 302.269,214.220 317.620,215.840 319.240 C 217.322 320.722,218.285 312.771,217.477 305.714 C 217.086 302.296,215.989 297.974,215.038 296.108 L 213.311 292.716 212.676 297.348 M497.206 303.767 C 499.725 305.927,500.400 312.982,498.978 322.278 C 497.691 330.690,491.721 352.450,488.050 362.109 C 486.923 365.074,485.990 368.400,485.976 369.500 C 485.955 371.139,485.232 370.739,481.975 367.289 C 477.598 362.652,477.104 360.080,479.492 354.366 C 481.904 348.592,490.662 319.163,492.468 310.761 C 493.383 306.504,493.807 302.497,493.411 301.856 C 492.569 300.493,494.554 301.493,497.206 303.767 M277.064 310.336 C 276.312 311.088,276.026 310.095,276.090 306.950 L 276.180 302.500 277.154 305.886 C 277.817 308.191,277.788 309.612,277.064 310.336 M124.184 313.291 C 124.502 319.338,125.270 322.925,127.021 326.541 L 129.423 331.500 130.351 327.580 C 130.979 324.929,130.910 322.641,130.139 320.509 C 129.513 318.776,129.000 315.905,129.000 314.129 C 129.000 310.477,126.509 305.000,124.849 305.000 C 124.103 305.000,123.889 307.665,124.184 313.291 M341.962 325.401 C 343.434 329.272,342.684 329.685,340.114 326.418 C 337.950 323.667,337.400 318.736,338.728 314.000 C 339.297 311.971,339.565 312.539,340.149 317.012 C 340.545 320.044,341.361 323.819,341.962 325.401 M401.724 329.486 C 401.350 339.680,400.617 345.540,399.037 350.984 C 396.939 358.206,390.409 372.033,389.126 371.969 C 388.782 371.951,386.560 367.114,384.188 361.219 C 381.817 355.323,379.377 349.319,378.767 347.876 C 377.744 345.459,378.179 344.601,384.299 336.951 C 387.953 332.385,392.639 325.747,394.713 322.200 C 396.787 318.653,399.051 315.534,399.742 315.269 C 400.434 315.003,401.052 314.047,401.116 313.143 C 401.200 311.950,401.370 312.044,401.735 313.486 C 402.011 314.579,402.006 321.779,401.724 329.486 M285.909 326.250 C 285.457 328.587,285.068 332.728,285.044 335.450 C 285.017 338.452,284.642 340.026,284.091 339.450 C 283.004 338.315,280.000 328.365,280.000 325.902 C 280.000 324.473,283.240 322.448,286.116 322.079 C 286.454 322.036,286.361 323.913,285.909 326.250 M344.590 334.408 C 344.948 336.040,345.401 345.277,345.597 354.937 C 345.793 364.597,346.076 374.525,346.226 377.000 C 346.621 383.499,344.201 383.429,334.779 376.669 C 330.620 373.685,324.918 369.992,322.109 368.463 C 319.255 366.909,317.004 364.980,317.008 364.091 C 317.013 363.216,319.839 358.675,323.290 354.000 C 330.216 344.617,336.000 335.508,336.000 333.985 C 336.000 333.443,336.902 332.098,338.005 330.995 C 339.687 329.313,340.327 329.188,341.974 330.216 C 343.055 330.891,344.231 332.777,344.590 334.408 M232.500 332.692 C 227.806 334.663,225.459 335.088,221.718 334.649 C 216.128 333.992,216.241 335.393,221.914 337.092 C 226.638 338.508,231.191 337.219,236.569 332.945 C 241.004 329.420,240.388 329.382,232.500 332.692 M145.500 344.167 C 139.473 346.143,135.714 346.014,122.000 343.358 C 119.785 342.929,119.708 343.005,121.326 344.029 C 124.080 345.771,136.051 349.000,139.758 349.000 C 143.297 349.000,151.181 345.692,153.072 343.414 C 154.648 341.514,153.129 341.666,145.500 344.167 M257.718 350.736 C 257.488 352.256,257.294 351.250,257.286 348.500 C 257.279 345.750,257.467 344.506,257.704 345.736 C 257.941 346.966,257.947 349.216,257.718 350.736 M198.000 345.972 C 198.000 346.572,198.725 347.341,199.611 347.681 C 200.497 348.021,201.830 349.694,202.572 351.400 C 203.901 354.453,203.922 354.461,203.961 351.905 C 203.997 349.518,202.409 347.390,199.250 345.593 C 198.563 345.202,198.000 345.373,198.000 345.972 M382.439 363.673 L 386.299 373.340 384.039 375.170 C 382.796 376.176,381.058 377.000,380.178 377.000 C 379.298 377.000,374.838 378.879,370.267 381.175 C 361.986 385.335,361.944 385.344,358.478 383.691 C 356.442 382.720,355.002 381.300,355.004 380.266 C 355.011 376.909,357.830 361.126,358.700 359.571 C 359.181 358.713,362.932 355.986,367.037 353.512 L 374.500 349.013 376.540 351.510 C 377.662 352.883,380.317 358.356,382.439 363.673 M335.309 358.843 C 333.675 359.907,332.000 363.681,332.000 366.299 C 332.000 371.465,338.844 376.455,340.393 372.418 C 342.767 366.231,339.080 356.386,335.309 358.843 M49.252 362.500 C 49.263 364.700,49.468 365.482,49.707 364.238 C 49.946 362.994,49.937 361.194,49.687 360.238 C 49.437 359.282,49.241 360.300,49.252 362.500 M337.502 370.832 C 336.591 371.742,335.033 368.830,335.015 366.184 C 335.007 364.911,335.563 362.886,336.250 361.684 C 337.382 359.707,337.529 360.008,337.806 364.861 C 337.974 367.809,337.837 370.496,337.502 370.832 M465.000 366.770 C 465.000 367.552,464.231 370.736,463.292 373.846 L 461.583 379.500 460.879 374.500 C 460.492 371.750,460.136 367.509,460.088 365.076 L 460.000 360.651 462.500 363.000 C 463.875 364.292,465.000 365.988,465.000 366.770 M208.500 368.932 C 204.650 369.266,200.060 370.318,198.301 371.270 C 193.621 373.799,184.417 375.981,177.791 376.131 C 174.606 376.203,172.000 376.384,172.000 376.535 C 172.000 376.685,173.606 379.664,175.569 383.154 C 182.486 395.455,191.140 401.828,199.102 400.483 C 206.784 399.185,211.918 392.444,214.594 380.144 C 215.389 376.490,216.312 372.262,216.645 370.750 C 216.978 369.238,216.856 368.073,216.375 368.162 C 215.894 368.251,212.350 368.597,208.500 368.932 M321.000 372.040 C 322.925 373.021,327.762 376.125,331.750 378.938 C 338.676 383.823,339.000 384.230,339.000 388.026 C 339.000 391.981,338.260 392.859,336.450 391.051 C 335.928 390.529,333.528 389.787,331.117 389.402 C 325.048 388.432,325.963 390.813,332.500 393.000 C 338.022 394.847,340.361 398.651,337.845 401.692 C 336.332 403.519,323.134 409.802,315.447 412.353 C 311.288 413.733,297.000 416.131,297.000 415.448 C 297.000 415.342,297.953 413.101,299.117 410.469 C 300.281 407.837,302.987 398.965,305.129 390.753 C 311.159 367.643,311.524 367.211,321.000 372.040 M282.094 376.724 C 281.243 378.187,281.055 377.869,281.030 374.917 C 281.014 372.946,281.337 370.990,281.750 370.571 C 282.938 369.362,283.240 374.756,282.094 376.724 M482.425 375.027 C 482.991 375.592,481.310 380.498,478.091 387.678 C 474.046 396.697,472.968 400.110,473.423 402.453 L 474.015 405.500 471.958 402.500 C 467.833 396.485,465.816 391.708,466.303 389.108 C 466.879 386.028,471.806 374.035,473.217 372.278 C 473.984 371.324,474.998 371.390,477.849 372.580 C 479.857 373.418,481.916 374.520,482.425 375.027 M295.487 375.309 C 304.181 378.491,304.550 379.758,300.876 393.867 C 297.246 407.802,294.367 413.666,288.790 418.475 C 284.014 422.594,277.128 426.462,276.209 425.542 C 274.788 424.121,278.567 411.772,283.195 402.714 C 285.957 397.307,287.986 392.653,287.705 392.372 C 287.423 392.090,285.778 393.916,284.048 396.430 C 282.319 398.943,280.801 401.000,280.675 401.000 C 280.550 401.000,280.737 397.274,281.091 392.720 C 281.687 385.045,283.888 378.438,287.243 374.250 C 288.488 372.696,288.268 372.668,295.487 375.309 M413.970 375.463 C 416.009 377.920,416.317 391.632,414.589 403.000 C 412.062 419.628,407.936 425.605,399.665 424.623 C 394.359 423.993,380.785 417.229,373.080 411.377 C 360.443 401.777,360.163 398.185,371.889 396.089 C 375.739 395.401,379.449 394.164,380.133 393.340 C 381.226 392.023,380.477 391.921,373.938 392.498 C 369.847 392.858,365.938 393.330,365.250 393.545 C 362.965 394.262,363.959 390.413,366.750 387.741 C 371.505 383.187,378.085 380.875,384.233 381.598 C 390.267 382.307,401.716 379.601,407.300 376.146 C 411.237 373.710,412.414 373.589,413.970 375.463 M189.445 379.443 C 188.056 381.564,187.525 381.741,185.422 380.783 C 182.099 379.268,182.387 378.203,186.250 377.723 C 188.037 377.502,189.848 377.248,190.273 377.160 C 190.698 377.072,190.326 378.099,189.445 379.443 M183.327 382.670 C 186.576 385.348,189.222 385.642,190.983 383.521 C 191.939 382.368,192.683 382.284,194.355 383.139 C 197.897 384.951,204.000 391.283,204.000 393.146 C 204.000 395.411,200.252 398.000,196.973 398.000 C 191.523 398.000,182.947 390.647,178.636 382.277 C 177.067 379.229,177.072 379.089,178.738 379.697 C 179.707 380.051,181.772 381.389,183.327 382.670 M436.481 399.417 C 437.422 402.121,439.314 406.029,440.685 408.100 C 442.166 410.339,442.941 412.612,442.594 413.704 C 442.273 414.715,439.285 418.908,435.953 423.021 C 432.622 427.134,427.278 433.884,424.079 438.019 C 417.844 446.078,389.260 478.279,387.849 478.833 C 387.382 479.017,386.996 477.667,386.991 475.833 C 386.971 468.511,376.599 430.562,371.131 417.805 L 369.142 413.167 375.499 417.610 C 387.591 426.063,401.861 430.286,407.726 427.147 C 411.498 425.128,415.026 417.664,417.111 407.290 C 418.233 401.707,419.916 396.426,421.028 395.000 C 422.100 393.625,425.344 389.391,428.238 385.590 L 433.500 378.680 434.134 386.590 C 434.483 390.941,435.539 396.713,436.481 399.417 M354.747 386.539 C 356.773 387.385,358.776 388.623,359.200 389.289 C 360.307 391.032,360.175 398.410,358.980 401.554 C 358.003 404.122,357.707 404.219,352.064 403.811 C 344.064 403.232,342.997 402.149,343.015 394.628 C 343.031 388.187,343.542 386.665,346.000 385.729 C 348.607 384.736,350.953 384.954,354.747 386.539 M467.642 412.000 C 468.635 413.925,469.624 415.882,469.840 416.349 C 470.056 416.817,469.141 416.483,467.806 415.608 C 465.659 414.202,461.000 407.328,461.000 405.567 C 461.000 403.978,466.002 408.822,467.642 412.000 M343.683 409.250 C 343.390 410.488,341.740 418.700,340.018 427.500 C 338.295 436.300,335.311 450.700,333.386 459.500 C 331.461 468.300,329.155 479.438,328.262 484.250 C 326.778 492.239,326.438 493.000,324.340 493.000 C 322.615 493.000,320.920 491.318,317.540 486.250 C 315.063 482.538,311.250 478.192,309.065 476.593 C 302.593 471.857,301.827 474.792,318.357 441.001 C 324.409 428.628,333.979 413.021,337.946 409.054 C 339.076 407.924,340.949 407.000,342.108 407.000 C 343.786 407.000,344.108 407.459,343.683 409.250 M363.251 409.574 C 365.681 412.368,369.910 423.404,376.059 442.995 C 382.069 462.142,385.994 482.905,384.630 488.337 C 383.570 492.561,376.660 494.500,362.663 494.500 L 350.827 494.500 349.294 490.500 C 347.427 485.629,347.461 481.111,349.378 479.193 C 350.617 477.954,350.902 478.779,351.521 485.382 C 351.985 490.334,352.663 493.000,353.459 493.000 C 354.371 493.000,354.846 487.071,355.322 469.750 C 355.673 456.962,356.629 439.300,357.445 430.500 C 358.260 421.700,359.036 412.813,359.168 410.750 C 359.452 406.326,360.232 406.101,363.251 409.574 M330.622 413.250 C 324.404 420.921,315.125 438.299,307.263 457.000 C 305.937 460.152,305.900 460.049,302.122 443.000 C 297.594 422.559,297.387 420.399,299.834 419.089 C 300.953 418.490,303.162 418.000,304.744 418.000 C 308.641 418.000,323.268 414.236,328.364 411.922 C 330.639 410.889,332.670 410.034,332.878 410.022 C 333.086 410.010,332.071 411.462,330.622 413.250 M109.550 426.783 C 109.360 426.973,106.068 425.548,102.233 423.617 C 95.303 420.127,94.062 418.602,94.005 413.500 C 93.987 411.968,95.846 413.249,101.939 418.969 C 106.315 423.077,109.740 426.594,109.550 426.783 M353.153 423.917 C 353.425 427.764,353.228 428.607,352.250 427.794 C 350.826 426.611,350.527 419.000,351.903 419.000 C 352.400 419.000,352.963 421.212,353.153 423.917 M97.524 425.273 C 103.561 428.173,111.650 432.312,115.500 434.471 C 129.166 442.136,157.646 455.791,167.500 459.403 C 184.263 465.548,189.538 467.961,193.092 471.110 L 196.500 474.129 190.365 473.592 C 181.048 472.776,150.619 466.370,146.838 464.429 C 145.002 463.486,140.175 460.529,136.111 457.857 C 132.048 455.186,128.219 453.000,127.603 453.000 C 126.988 453.000,124.308 451.842,121.649 450.426 C 118.990 449.011,116.626 448.041,116.396 448.271 C 116.166 448.501,118.931 450.188,122.540 452.020 C 126.150 453.853,131.617 457.304,134.689 459.689 C 143.478 466.513,153.140 470.768,164.909 472.996 C 179.039 475.670,178.459 475.383,178.765 479.862 C 179.012 483.491,178.825 483.785,175.890 484.372 C 167.474 486.055,154.234 485.013,140.688 481.601 C 113.172 474.670,96.522 467.198,85.274 456.733 C 71.023 443.473,67.098 441.211,54.566 439.032 C 44.654 437.308,41.075 437.716,33.750 441.406 C 30.038 443.276,27.000 444.383,27.000 443.866 C 27.000 441.941,35.984 434.286,42.136 430.970 C 47.802 427.915,49.377 427.529,56.500 427.454 C 62.986 427.385,65.214 426.934,68.273 425.072 C 72.798 422.318,79.376 420.159,83.524 420.067 C 85.234 420.029,91.316 422.291,97.524 425.273 M264.583 428.124 L 263.057 431.500 263.552 427.500 C 263.824 425.300,264.364 422.600,264.751 421.500 C 265.379 419.716,265.490 419.783,265.782 422.124 C 265.961 423.567,265.422 426.267,264.583 428.124 M459.000 425.620 C 459.000 427.074,451.936 437.670,440.082 454.000 C 431.840 465.354,423.503 475.075,410.708 488.250 C 404.555 494.586,403.887 494.996,399.826 494.930 C 390.502 494.778,390.524 494.724,406.645 477.861 C 423.553 460.174,435.268 445.552,442.987 432.500 C 450.778 419.327,450.480 419.580,455.141 422.199 C 457.264 423.392,459.000 424.932,459.000 425.620 M289.055 424.754 L 286.889 426.509 290.949 442.504 C 293.182 451.302,296.280 461.087,297.834 464.250 C 299.388 467.413,300.232 470.000,299.710 470.000 C 297.868 470.000,286.900 462.777,285.502 460.643 C 283.877 458.163,276.976 430.894,277.678 429.730 C 278.215 428.841,289.073 423.120,290.361 423.048 C 290.834 423.022,290.247 423.789,289.055 424.754 M206.228 426.230 C 204.979 426.832,203.696 428.489,203.378 429.913 C 203.060 431.336,202.290 434.300,201.668 436.500 L 200.536 440.500 200.220 436.442 C 199.813 431.224,201.371 427.187,204.235 426.037 C 207.420 424.757,208.971 424.908,206.228 426.230 M197.775 433.250 C 196.765 438.818,195.557 441.000,193.485 441.000 C 191.863 441.000,191.000 438.734,191.000 434.475 C 191.000 430.967,193.789 428.000,197.086 428.000 C 198.520 428.000,198.607 428.663,197.775 433.250 M123.563 433.156 C 130.809 437.498,135.739 441.000,134.606 441.000 C 133.820 441.000,124.735 436.407,117.000 432.099 C 112.442 429.561,111.939 429.033,114.063 429.018 C 115.473 429.008,119.748 430.870,123.563 433.156 M234.614 445.381 C 232.522 450.388,224.430 462.828,220.649 466.848 C 218.917 468.690,215.025 471.356,212.000 472.772 C 207.177 475.031,206.808 475.400,209.000 475.770 C 212.082 476.290,214.174 477.910,213.394 479.172 C 212.729 480.248,207.133 479.279,205.250 477.762 C 202.656 475.673,204.082 472.970,210.391 468.011 C 216.263 463.397,224.129 454.606,230.024 446.069 C 231.329 444.181,231.743 443.011,230.947 443.466 C 229.951 444.035,229.812 443.966,230.500 443.244 C 231.432 442.266,235.115 441.109,235.809 441.576 C 235.978 441.690,235.441 443.402,234.614 445.381 M65.409 445.397 C 67.248 446.166,72.886 450.438,77.938 454.892 C 94.375 469.381,100.829 472.715,131.571 482.592 L 149.500 488.353 163.500 488.151 C 175.238 487.981,177.702 487.679,178.750 486.283 C 179.732 484.974,179.997 484.926,179.986 486.059 C 179.956 489.289,178.707 491.830,176.663 492.818 C 174.825 493.708,175.220 493.875,179.292 493.932 L 184.083 494.000 183.418 486.250 C 182.872 479.885,182.987 478.721,184.062 479.735 C 184.781 480.414,185.569 483.712,185.811 487.064 C 186.177 492.127,186.611 493.297,188.376 493.982 C 189.544 494.435,166.123 494.749,136.329 494.680 C 106.535 494.610,82.374 494.204,82.638 493.776 C 82.902 493.349,82.443 493.000,81.617 493.000 C 80.792 493.000,78.116 490.413,75.670 487.250 C 71.027 481.245,58.951 469.309,53.085 464.926 L 49.670 462.375 54.477 458.438 C 57.121 456.272,60.457 453.452,61.892 452.171 L 64.500 449.842 60.165 452.153 C 57.781 453.423,54.116 456.047,52.020 457.982 C 47.660 462.007,47.898 461.956,42.250 460.086 C 38.331 458.789,36.506 457.000,39.103 457.000 C 39.710 457.000,42.522 454.908,45.353 452.350 C 54.786 443.828,58.539 442.527,65.409 445.397 M211.077 447.343 C 215.944 449.646,217.055 449.825,220.545 448.872 C 222.720 448.278,225.169 447.276,225.987 446.646 C 226.805 446.016,224.555 448.823,220.987 452.884 C 217.419 456.945,212.485 461.811,210.023 463.697 L 205.546 467.127 203.929 460.813 C 201.483 451.268,200.350 449.139,196.515 446.877 C 194.582 445.736,193.000 444.560,193.000 444.264 C 193.000 442.768,206.135 445.005,211.077 447.343 M260.773 446.750 C 259.928 447.712,258.924 449.526,258.542 450.779 C 258.159 452.033,255.631 455.819,252.923 459.193 C 248.042 465.276,247.155 467.000,248.910 467.000 C 250.987 467.000,260.075 458.718,263.652 453.566 C 265.769 450.518,267.965 448.018,268.534 448.012 C 270.163 447.993,273.000 453.513,273.000 456.701 C 273.000 460.801,267.507 465.662,256.000 471.743 C 243.085 478.569,229.437 481.611,225.938 478.443 C 224.872 477.479,224.000 476.342,224.000 475.917 C 224.000 475.492,226.806 473.440,230.236 471.357 C 238.144 466.553,242.928 462.226,249.678 453.772 C 254.510 447.720,256.528 446.288,261.905 445.090 C 262.128 445.041,261.618 445.788,260.773 446.750 M229.500 466.000 C 228.505 467.100,227.197 467.985,226.595 467.967 C 225.993 467.948,226.562 467.048,227.861 465.967 C 230.915 463.423,231.816 463.441,229.500 466.000 M283.978 466.075 C 290.040 468.825,303.717 476.954,305.114 478.638 C 307.565 481.590,302.486 479.860,291.500 474.000 C 285.313 470.700,279.633 468.002,278.876 468.004 C 277.063 468.009,282.440 471.250,293.312 476.706 C 298.159 479.138,301.981 481.437,301.806 481.814 C 301.631 482.191,300.263 484.828,298.766 487.674 C 296.794 491.422,296.382 493.008,297.272 493.429 C 297.947 493.748,297.276 493.847,295.780 493.649 C 294.284 493.451,293.313 493.698,293.622 494.198 C 294.269 495.244,231.540 494.877,230.493 493.828 C 229.689 493.022,227.782 484.885,228.280 484.387 C 228.472 484.194,232.200 483.359,236.565 482.530 C 245.057 480.916,260.677 473.965,270.163 467.576 C 276.276 463.459,277.837 463.290,283.978 466.075 M39.193 482.668 C 39.087 486.061,38.741 489.661,38.424 490.668 C 37.888 492.376,37.925 492.382,38.972 490.753 C 39.611 489.760,39.942 486.310,39.740 482.753 L 39.385 476.500 39.193 482.668 M195.500 480.130 C 190.571 482.370,189.378 482.427,188.624 480.462 C 187.847 478.436,191.034 477.284,195.806 477.864 L 199.500 478.313 195.500 480.130 M210.000 483.318 C 216.915 484.814,217.695 485.336,218.501 489.005 C 219.631 494.151,217.958 494.792,203.786 494.637 C 196.865 494.562,191.409 494.163,191.660 493.750 C 191.912 493.337,191.366 493.000,190.448 493.000 C 189.060 493.000,188.896 492.366,189.478 489.250 C 189.863 487.188,190.251 485.479,190.339 485.454 C 193.549 484.530,202.775 482.247,203.500 482.197 C 204.050 482.159,206.975 482.664,210.000 483.318 M23.500 488.000 C 23.116 490.274,23.026 492.360,23.301 492.635 C 23.576 492.910,24.116 491.274,24.500 489.000 C 24.884 486.726,24.974 484.640,24.699 484.365 C 24.424 484.090,23.884 485.726,23.500 488.000 " stroke="none" fill="undefined" fill-rule="evenodd"/></svg>