<?xml version="1.0" encoding="UTF-8"?>
<svg xmlns="http://www.w3.org/2000/svg" xmlns:xlink="http://www.w3.org/1999/xlink" width="300px" height="300px" viewBox="0 0 300 292" version="1.1">
<g id="surface1">
<path style=" stroke:none;fill-rule:evenodd;fill:rgb(0%,0%,0%);fill-opacity:1;" d="M 122.855469 3.535156 C 120.023438 5.761719 110.234375 27.484375 107.800781 36.933594 C 107.171875 39.386719 106.253906 45.046875 105.765625 49.515625 C 104.320312 62.75 103.148438 70.59375 102.230469 73.191406 C 101.085938 76.433594 101.121094 76.65625 102.832031 76.65625 C 103.679688 76.65625 105.246094 75.800781 106.558594 74.613281 L 108.828125 72.566406 L 109.207031 75.34375 C 109.414062 76.871094 110.140625 80.300781 110.820312 82.960938 L 112.054688 87.800781 L 110.703125 92.46875 C 109.960938 95.039062 109.070312 97.136719 108.726562 97.132812 C 108.386719 97.132812 107.359375 96.742188 106.445312 96.265625 C 104.203125 95.097656 94.722656 91.871094 93.535156 91.871094 C 92.253906 91.871094 92.324219 91.140625 93.691406 90.289062 C 95.339844 89.261719 97.730469 83.84375 98.15625 80.167969 C 98.984375 73.09375 93.941406 60.316406 88.34375 55.289062 C 86.714844 53.828125 85.289062 52.726562 85.175781 52.84375 C 85.058594 52.957031 85.738281 54.476562 86.683594 56.222656 C 90.578125 63.421875 92.453125 75.6875 90.621094 81.980469 C 90.101562 83.761719 88.878906 86.320312 87.902344 87.667969 L 86.125 90.117188 L 77.195312 90.117188 C 62.285156 90.117188 48.804688 93.507812 33.808594 101.035156 C 28.757812 103.566406 16.746094 107.058594 11.527344 107.503906 C 9.277344 107.699219 7.160156 108.214844 6.691406 108.679688 C 5.777344 109.59375 5.597656 112.207031 6.367188 113.417969 C 7.015625 114.433594 10.640625 115.246094 14.613281 115.265625 L 17.800781 115.277344 L 15.839844 117.179688 C 13.386719 119.558594 10.484375 124.042969 7.871094 129.484375 L 5.859375 133.679688 L 5.859375 164.539062 C 5.859375 193.738281 5.921875 195.570312 7.007812 198.496094 C 9.183594 204.371094 9.515625 206.910156 9.882812 220.609375 L 10.253906 234.359375 L 13.363281 231.1875 C 15.074219 229.441406 17.316406 226.480469 18.34375 224.609375 C 19.375 222.738281 20.347656 221.210938 20.507812 221.214844 C 20.667969 221.21875 21.699219 224.042969 22.792969 227.496094 C 23.890625 230.949219 25.136719 234.285156 25.5625 234.910156 C 26.304688 235.992188 26.449219 235.929688 28.671875 233.59375 C 29.957031 232.246094 31.378906 231.140625 31.828125 231.140625 C 32.28125 231.140625 34.464844 231.960938 36.6875 232.957031 C 39.65625 234.292969 41.960938 235.976562 45.414062 239.328125 L 50.109375 243.882812 L 47.089844 244.191406 C 45.429688 244.363281 42.21875 245.316406 39.953125 246.308594 C 36.859375 247.664062 34.96875 248.113281 32.335938 248.113281 C 29.351562 248.113281 28.046875 248.503906 23.535156 250.757812 C 17.765625 253.644531 15.566406 255.824219 13.445312 260.761719 C 12.773438 262.332031 11.210938 264.9375 9.976562 266.546875 C 6.292969 271.347656 5.859375 272.980469 5.859375 282.035156 L 5.859375 290.070312 L 11.25 290.449219 C 14.597656 290.6875 16.859375 290.609375 17.226562 290.246094 C 17.808594 289.664062 14.269531 289.339844 10.226562 289.605469 L 8.441406 289.722656 L 8.894531 284.5625 C 9.144531 281.722656 9.742188 278.097656 10.21875 276.511719 C 10.699219 274.921875 10.996094 273.527344 10.878906 273.410156 C 10.515625 273.046875 8.871094 278.640625 8.078125 282.929688 L 7.324219 287.027344 L 7.152344 283.105469 C 6.8125 275.410156 9.476562 269.328125 15.304688 264.484375 C 20.484375 260.179688 23.839844 258.644531 28.070312 258.644531 C 29.996094 258.644531 31.699219 258.855469 31.859375 259.109375 C 32.015625 259.363281 30.835938 260.035156 29.238281 260.601562 C 27.484375 261.222656 25.125 262.777344 23.292969 264.523438 C 21.242188 266.480469 19.585938 267.527344 18.1875 267.757812 C 14.929688 268.292969 14.121094 268.789062 16.113281 269.023438 C 19.136719 269.378906 19.792969 269.75 18.589844 270.425781 C 18.019531 270.746094 17.695312 271.234375 17.867188 271.515625 C 18.042969 271.792969 17.886719 272.207031 17.523438 272.429688 C 17.058594 272.71875 17.097656 272.984375 17.660156 273.339844 C 18.222656 273.695312 18.246094 273.84375 17.742188 273.851562 C 17.023438 273.859375 14.875 280.132812 15.40625 280.664062 C 15.5625 280.820312 16.011719 279.601562 16.40625 277.957031 C 17.503906 273.382812 17.691406 274.828125 16.714844 280.347656 C 16.234375 283.054688 15.859375 285.929688 15.878906 286.734375 C 15.914062 288.199219 16.878906 283.867188 18.070312 276.863281 C 18.808594 272.527344 20.039062 270.347656 21.75 270.347656 C 22.417969 270.347656 25.03125 271.421875 27.558594 272.734375 C 31.039062 274.542969 33.292969 276.304688 36.828125 279.988281 C 41.714844 285.070312 43.921875 288.367188 42.871094 289.015625 C 42.542969 289.21875 37.683594 289.378906 32.074219 289.375 C 24.300781 289.367188 21.875 289.539062 21.875 290.097656 C 21.875 290.679688 33.070312 290.828125 75.90625 290.828125 C 123.359375 290.828125 130.023438 290.722656 130.667969 289.945312 C 131.359375 289.113281 130.472656 285.789062 128.027344 280.09375 C 127.609375 279.117188 127.683594 279.085938 128.804688 279.785156 C 130.113281 280.601562 132.421875 285.3125 132.421875 287.167969 C 132.421875 287.773438 132.796875 288.777344 133.253906 289.402344 C 134.050781 290.488281 135.105469 290.542969 157.878906 290.703125 C 173.027344 290.808594 182.042969 290.65625 182.683594 290.28125 C 183.445312 289.839844 182.882812 289.691406 180.394531 289.675781 C 176.390625 289.65625 175.523438 288.867188 176.960938 286.542969 L 177.984375 284.890625 L 180.105469 286.75 C 182.410156 288.773438 182.878906 288.476562 181.054688 286.148438 C 180.425781 285.34375 179.902344 283.941406 179.894531 283.03125 L 179.882812 281.378906 L 181.566406 282.738281 C 182.492188 283.488281 184.214844 285.628906 185.394531 287.496094 L 187.542969 290.890625 L 190.585938 290.714844 C 193.605469 290.539062 193.628906 290.523438 193.769531 288.488281 C 194.046875 284.457031 197.894531 264.722656 198.316406 265.167969 C 198.425781 265.28125 198.226562 270.835938 197.878906 277.507812 C 197.53125 284.179688 197.429688 289.824219 197.65625 290.050781 C 198.761719 291.15625 199.117188 288.015625 199.71875 271.8125 C 200.351562 254.824219 201.003906 248.9375 203.03125 241.890625 C 203.761719 239.367188 204.15625 238.835938 205.511719 238.578125 C 207.4375 238.210938 207.988281 238.902344 208 241.699219 C 208.007812 243.570312 207.855469 243.765625 206.40625 243.746094 C 205.070312 243.726562 204.6875 244.085938 204.078125 245.917969 C 203.214844 248.515625 203.910156 250.996094 205.621094 251.441406 C 207.242188 251.867188 207.433594 253.433594 206.824219 261.277344 C 206.523438 265.140625 206.273438 270.316406 206.265625 272.777344 C 206.25 277.105469 206.183594 277.320312 204.199219 279.300781 C 201.808594 281.6875 201.515625 284.015625 203.3125 286.300781 C 203.957031 287.113281 204.574219 288.402344 204.691406 289.160156 L 204.902344 290.535156 L 249.082031 290.691406 C 290.128906 290.832031 293.3125 290.773438 293.992188 289.847656 C 294.570312 289.066406 294.726562 276.621094 294.726562 232.316406 L 294.726562 175.78125 L 293.027344 173.472656 C 287.546875 166.027344 278.878906 145.492188 273.277344 126.6875 L 271.007812 119.082031 L 271.132812 107.523438 C 271.203125 101.167969 271.035156 95.96875 270.761719 95.96875 C 269.234375 95.96875 268.945312 127.675781 270.394531 136.585938 C 271.3125 142.210938 272.894531 147.972656 272.984375 146 C 273.011719 145.355469 272.648438 141.933594 272.175781 138.394531 C 271.699219 134.851562 271.324219 130.507812 271.339844 128.738281 L 271.367188 125.519531 L 273.332031 132.25 C 277.296875 145.828125 284.941406 164.199219 289.578125 171.292969 C 292.199219 175.304688 292.292969 175.566406 290.671875 174.300781 C 289.160156 173.117188 280.996094 162.582031 279.199219 159.496094 C 278.789062 158.792969 278.601562 161.28125 278.574219 167.753906 C 278.535156 177.542969 277.601562 182.621094 274.175781 191.644531 C 272.910156 194.984375 272.824219 195.074219 272.402344 193.519531 C 272.160156 192.617188 271.773438 188.609375 271.546875 184.609375 C 271.285156 180 270.917969 177.46875 270.546875 177.695312 C 269.710938 178.210938 270.425781 193.042969 271.519531 197.941406 C 272.710938 203.289062 275.109375 208.453125 278.4375 212.855469 C 279.957031 214.867188 281.0625 216.511719 280.894531 216.511719 C 279.039062 216.511719 269.507812 208.769531 267.238281 205.417969 C 266.140625 203.792969 265.113281 202.589844 264.957031 202.746094 C 264.800781 202.902344 265.339844 204.550781 266.15625 206.40625 C 267.246094 208.890625 267.730469 211.253906 267.992188 215.34375 C 268.5 223.277344 270.585938 230.039062 274.226562 235.53125 C 276.820312 239.449219 276.871094 239.683594 274.773438 238.121094 C 273.664062 237.292969 271.863281 235.976562 270.773438 235.195312 C 269.683594 234.414062 268.015625 232.589844 267.0625 231.140625 L 265.335938 228.507812 L 265.625 230.613281 C 266.046875 233.6875 268.925781 240.109375 271.304688 243.285156 C 272.675781 245.113281 274.523438 246.632812 276.789062 247.789062 C 278.667969 248.746094 279.917969 249.628906 279.566406 249.746094 C 278.308594 250.164062 272.683594 248.121094 269.03125 245.914062 C 258.539062 239.574219 255.609375 232.886719 256.21875 216.644531 C 256.546875 207.894531 257.574219 201.535156 260.445312 190.472656 C 261.394531 186.8125 262.058594 182.429688 262.214844 178.769531 C 262.429688 173.71875 262.382812 173.316406 261.875 175.84375 C 261.550781 177.453125 260.921875 179.953125 260.476562 181.402344 C 260.027344 182.851562 259.492188 185.351562 259.28125 186.960938 C 259.070312 188.570312 258.113281 192.917969 257.15625 196.617188 C 256.195312 200.320312 255.140625 206.113281 254.804688 209.492188 C 254.472656 212.871094 254.078125 216.472656 253.933594 217.5 C 253.773438 218.640625 252.148438 221.3125 249.738281 224.394531 L 245.800781 229.429688 L 245.664062 226.921875 C 245.59375 225.542969 245.226562 222.667969 244.851562 220.535156 L 244.175781 216.65625 L 247.203125 213.019531 C 250.625 208.914062 252.9375 204.609375 254.867188 198.753906 C 255.976562 195.390625 256.21875 193.183594 256.386719 185.003906 C 256.492188 179.644531 256.601562 174.863281 256.625 174.378906 C 256.644531 173.898438 256.550781 164.023438 256.410156 152.4375 C 256.269531 140.851562 256.332031 127.289062 256.550781 122.300781 L 256.945312 113.230469 L 257.707031 118.789062 C 259.859375 134.527344 260.277344 141.28125 259.886719 153.898438 C 259.671875 160.820312 259.445312 168.191406 259.386719 170.285156 C 259.324219 172.375 259.4375 175.535156 259.640625 177.304688 L 260.003906 180.523438 L 260.199219 176.722656 C 260.304688 174.628906 260.4375 171.207031 260.492188 169.113281 C 260.546875 167.023438 260.792969 160.4375 261.035156 154.484375 C 261.511719 142.9375 261.046875 135.71875 258.875 120.835938 C 258.21875 116.332031 257.550781 111.066406 257.394531 109.132812 L 257.113281 105.625 L 259.003906 105.496094 C 261.902344 105.296875 263.53125 103.894531 264.457031 100.796875 C 264.914062 99.269531 266.085938 96.4375 267.0625 94.503906 C 271.570312 85.585938 273.984375 76.820312 273.511719 71.089844 C 273.203125 67.375 270.355469 61.1875 267.507812 58.039062 C 264.890625 55.148438 262.296875 54.210938 257.808594 54.535156 L 254.414062 54.78125 L 253.730469 49.1875 C 252.847656 41.964844 252.363281 40.125 249.5 33.0625 C 246.492188 25.652344 244.265625 21.222656 241.050781 16.238281 C 236.527344 9.234375 230.4375 3.511719 227.503906 3.511719 C 226.261719 3.511719 226.4375 3.773438 228.910156 5.613281 C 234.882812 10.046875 240.445312 17.652344 245.542969 28.347656 C 249.910156 37.507812 250.703125 39.976562 251.695312 47.5 C 253.421875 60.582031 253.828125 74.824219 254.121094 132.542969 C 254.414062 191.21875 254.410156 191.679688 253.175781 196.84375 C 252.496094 199.703125 251.117188 203.574219 250.117188 205.449219 C 247.683594 210.011719 242.875 215.1875 238.796875 217.632812 C 235.828125 219.414062 234.195312 220.007812 228.429688 221.398438 L 226.882812 221.769531 L 228.609375 219.925781 C 232.253906 216.027344 235.332031 208.9375 236.738281 201.195312 C 237.433594 197.375 237.59375 178.371094 236.953125 175.820312 C 236.753906 175.027344 236.382812 174.378906 236.125 174.378906 C 235.867188 174.378906 234.8125 176.421875 233.78125 178.914062 C 229.074219 190.320312 221.117188 200.574219 212.265625 206.660156 C 210.890625 207.605469 209.765625 208.160156 209.765625 207.894531 C 209.765625 207.628906 211.601562 204.917969 213.847656 201.871094 C 222.648438 189.921875 228.417969 175.582031 230.207031 161.214844 C 231.183594 153.347656 231.597656 133.640625 230.949219 125.976562 C 230.390625 119.4375 230.460938 118.113281 231.753906 110.503906 C 232.945312 103.496094 233.164062 98.738281 232.253906 99.648438 C 231.960938 99.9375 226.710938 127.707031 224.9375 138.328125 C 223.925781 144.390625 224.570312 152.6875 226.484375 158.203125 C 228.015625 162.625 228.046875 162.957031 227.332031 167.125 C 226.632812 171.214844 225.589844 173.007812 225.582031 170.136719 C 225.578125 169.414062 224.789062 166.089844 223.824219 162.75 C 220.515625 151.296875 220.039062 146.695312 220.070312 126.6875 C 220.097656 107.933594 220.800781 97.992188 223.335938 80.460938 C 224.753906 70.664062 225.5 51.171875 224.492188 50.167969 C 223.996094 49.675781 223.828125 51.238281 223.828125 56.316406 C 223.828125 60.0625 223.613281 63.261719 223.347656 63.425781 C 223.082031 63.589844 222.441406 61.945312 221.917969 59.777344 C 220.644531 54.476562 218.769531 49.585938 217.292969 47.707031 C 216.625 46.859375 215.988281 46.257812 215.875 46.367188 C 215.765625 46.476562 216.445312 48.785156 217.382812 51.496094 C 218.320312 54.203125 218.996094 56.515625 218.882812 56.628906 C 218.148438 57.363281 202.472656 47.707031 199.980469 44.988281 C 198.402344 43.265625 196.828125 39.765625 191.183594 25.453125 C 186.742188 14.183594 183.320312 6.960938 182.953125 8.0625 C 182.753906 8.65625 191.550781 32.121094 193.125 35.203125 C 193.5625 36.058594 194.472656 38.167969 195.144531 39.886719 C 196.8125 44.144531 195.726562 42.949219 183.265625 26.789062 C 181.597656 24.628906 180.140625 22.953125 180.023438 23.070312 C 179.449219 23.644531 181.96875 27.855469 186.359375 33.648438 C 198.53125 49.707031 209.667969 61.472656 217.453125 66.5 C 221.472656 69.097656 222.445312 70.460938 221.777344 72.5625 C 221.3125 74.019531 220.679688 74.015625 212.929688 72.523438 C 203.28125 70.664062 196.179688 67.667969 188.371094 62.164062 C 178.625 55.292969 168.882812 42.511719 166.398438 33.335938 C 165.277344 29.195312 162.304688 11.078125 162.304688 8.375 C 162.304688 7.023438 162.039062 5.757812 161.71875 5.558594 C 160.613281 4.875 161.113281 12.535156 162.867188 23.152344 C 164.738281 34.460938 169.363281 51.617188 173.394531 62.214844 C 177.898438 74.035156 176.03125 72.039062 168.308594 56.761719 C 164.746094 49.71875 161.5625 42.4375 159.996094 37.742188 C 157.136719 29.1875 156.191406 27.152344 156.734375 30.722656 C 158.078125 39.597656 166.988281 59.5625 174.851562 71.316406 C 181.910156 81.867188 185.390625 85.8125 193.570312 92.519531 C 194.367188 93.175781 184.097656 90.171875 180.375 88.660156 C 175.449219 86.664062 168.59375 81.703125 164.386719 77.101562 C 158.226562 70.363281 150.882812 57.042969 147.164062 45.867188 C 144.234375 37.074219 143.4375 31.78125 143.03125 18.433594 C 142.621094 5.0625 142.292969 4.730469 140.339844 15.703125 C 139.898438 18.171875 138.566406 22.691406 137.378906 25.746094 C 136.1875 28.804688 134.066406 35.871094 132.660156 41.453125 C 128.660156 57.339844 127.570312 71.753906 129.464844 83.804688 C 129.722656 85.46875 129.679688 86.429688 129.351562 86.226562 C 127.800781 85.269531 123.578125 78.539062 122.519531 75.339844 C 120.894531 70.410156 119.9375 61.601562 120.683594 58.378906 C 121.304688 55.695312 121.484375 52.273438 120.980469 52.777344 C 120.8125 52.949219 120.152344 54.566406 119.515625 56.375 C 117.476562 62.160156 116.367188 71.429688 116.335938 82.890625 C 116.320312 88.734375 116.121094 93.398438 115.890625 93.257812 C 115.195312 92.828125 112.003906 82.320312 111.355469 78.332031 C 110.574219 73.515625 110.582031 64.074219 111.375 55.601562 C 112.019531 48.75 113.929688 41.601562 116.953125 34.710938 C 119.621094 28.636719 125.578125 19.730469 130.226562 14.867188 C 134.949219 9.921875 135.671875 8.835938 133.445312 10.027344 C 130.511719 11.59375 125.1875 17.476562 121.261719 23.488281 C 112.945312 36.226562 108.984375 49.378906 108.984375 64.265625 L 108.984375 69.167969 L 105.402344 72.765625 C 102.371094 75.808594 102.007812 76.042969 103.042969 74.273438 C 104.488281 71.800781 105.820312 66.273438 106.347656 60.566406 C 107.257812 50.722656 108.542969 40.992188 109.359375 37.742188 C 110.578125 32.886719 116.859375 17.339844 119.125 13.5625 C 120.15625 11.847656 122.621094 8.882812 124.605469 6.976562 C 127.492188 4.207031 128.613281 3.503906 130.171875 3.46875 C 131.796875 3.433594 131.929688 3.34375 130.957031 2.925781 C 128.6875 1.953125 124.464844 2.269531 122.855469 3.535156 M 266.015625 2.894531 C 265.300781 3.378906 265.398438 3.496094 266.542969 3.503906 C 268.296875 3.511719 272.511719 7.847656 274.925781 12.121094 C 277.863281 17.316406 282.804688 21.1875 290.773438 24.535156 C 292.890625 25.425781 293.570312 26.023438 293.613281 27.042969 C 293.671875 28.34375 293.683594 28.339844 294.105469 26.917969 C 294.746094 24.769531 293.945312 23.710938 290.800781 22.550781 C 283.539062 19.867188 279.214844 16.214844 275.957031 10.015625 C 272.640625 3.707031 271.902344 2.890625 269.203125 2.570312 C 267.933594 2.417969 266.5 2.5625 266.015625 2.894531 M 193.945312 15.011719 C 193.945312 15.808594 197.828125 22.117188 200.824219 26.179688 C 202.1875 28.035156 205.785156 32.183594 208.816406 35.402344 C 213.394531 40.265625 214.273438 40.976562 214.019531 39.601562 C 213.832031 38.589844 211.671875 35.757812 208.433594 32.289062 C 205.527344 29.171875 201.179688 23.992188 198.765625 20.773438 C 193.589844 13.863281 193.945312 14.289062 193.945312 15.011719 M 140.625 26.074219 C 140.625 31.296875 146.5 50.378906 150.691406 58.761719 C 161.613281 80.605469 173.46875 90.742188 190.824219 93.070312 C 193.347656 93.410156 195.9375 93.816406 196.582031 93.976562 C 197.8125 94.28125 197.539062 94.003906 189.660156 86.9375 C 185.550781 83.257812 184.9375 82.359375 185.449219 80.753906 C 186.035156 78.902344 194.121094 76.371094 204.15625 74.890625 C 208.878906 74.195312 219.40625 74.566406 220.890625 75.484375 C 221.765625 76.023438 221.644531 78.03125 219.71875 95.089844 C 218.761719 103.554688 218.410156 110.8125 218.242188 125.519531 L 218.019531 144.828125 L 215.796875 146.792969 C 211.722656 150.386719 206.570312 153.785156 199.429688 157.589844 C 188.296875 163.523438 183.570312 164.902344 180.285156 163.175781 C 177.90625 161.925781 149.046875 132.574219 146.539062 128.851562 C 143.183594 123.875 142.695312 122.558594 139.980469 111.28125 C 138.691406 105.917969 137.480469 101 137.292969 100.355469 C 136.957031 99.203125 136.972656 99.203125 138.203125 100.300781 C 139.964844 101.871094 139.757812 101.113281 137.582031 98.03125 L 135.707031 95.378906 L 137.015625 91.328125 C 137.957031 88.402344 138.878906 86.789062 140.328125 85.515625 C 143.503906 82.734375 149.222656 82.351562 152.066406 84.730469 C 153.960938 86.316406 155.53125 90.15625 155.550781 93.238281 C 155.570312 96.980469 153.828125 98.589844 150.285156 98.105469 C 148.988281 97.925781 147.582031 97.992188 147.164062 98.25 C 145.917969 99.019531 149.71875 100.261719 152.121094 99.875 C 156.910156 99.097656 158.386719 96.222656 157.050781 90.265625 C 156.457031 87.621094 156.46875 86.953125 157.109375 86.558594 C 158.367188 85.78125 155.996094 83.15625 152.320312 81.257812 C 148.40625 79.238281 143.746094 79.003906 140.617188 80.667969 C 138.273438 81.914062 135.574219 85.503906 135.050781 88.066406 C 134.851562 89.035156 134.398438 90.582031 134.039062 91.511719 C 133.40625 93.144531 133.347656 93.050781 132.34375 88.878906 C 131.769531 86.503906 131.289062 82.789062 131.273438 80.628906 C 131.253906 77.082031 131.421875 76.503906 133 74.707031 C 135.140625 72.273438 141.410156 68.902344 146.34375 67.53125 C 148.355469 66.972656 150 66.316406 150 66.070312 C 150 65.296875 146.960938 63.199219 145.839844 63.199219 C 142.070312 63.199219 133.339844 68.488281 132.21875 71.449219 C 130.964844 74.773438 130.503906 73.171875 130.894531 66.855469 C 131.585938 55.769531 132.445312 49.007812 133.9375 43.011719 C 135.804688 35.492188 139.574219 23.992188 140.167969 23.992188 C 140.417969 23.992188 140.625 24.929688 140.625 26.074219 M 293.648438 33.488281 C 293.578125 34.683594 293.171875 35.183594 292.035156 35.46875 C 290.511719 35.851562 284.847656 35.445312 282.113281 34.761719 C 280.171875 34.273438 280.28125 35.007812 282.65625 38.457031 C 289.839844 48.886719 291.546875 57.425781 288.492188 67.667969 C 286.679688 73.746094 286.03125 81.875 287.097656 85.101562 C 287.488281 86.285156 289.101562 88.859375 290.679688 90.828125 C 292.261719 92.792969 293.558594 94.953125 293.5625 95.625 C 293.570312 96.628906 293.675781 96.6875 294.140625 95.96875 C 295.195312 94.339844 294.734375 92.578125 292.589844 90.027344 C 287.871094 84.414062 287.050781 78.671875 289.785156 70.390625 C 291.808594 64.257812 292.277344 56.640625 290.941406 51.542969 C 289.882812 47.507812 287.214844 41.761719 285.074219 38.914062 L 283.757812 37.160156 L 288.652344 37.363281 C 294.09375 37.59375 294.417969 37.378906 293.984375 33.847656 C 293.777344 32.171875 293.730469 32.121094 293.648438 33.488281 M 171.417969 46.875 C 172.796875 49.59375 172.886719 50.910156 171.691406 50.910156 C 171.414062 50.910156 170.734375 49.527344 170.175781 47.835938 C 169.621094 46.148438 169.027344 44.394531 168.859375 43.9375 C 168.128906 41.976562 170.050781 44.183594 171.417969 46.875 M 209.765625 53.925781 C 212.183594 55.367188 214.992188 56.875 216.007812 57.285156 C 217.023438 57.691406 218.371094 58.597656 219 59.296875 C 220.117188 60.527344 221.820312 65.984375 221.261719 66.542969 C 220.726562 67.078125 212.34375 60.390625 206.6875 54.921875 C 200.988281 49.40625 198.933594 46.292969 203.171875 49.597656 C 204.382812 50.539062 207.347656 52.488281 209.765625 53.925781 M 179.613281 57.394531 C 182.964844 60.824219 193.386719 67.996094 196.511719 69.027344 C 198.925781 69.820312 199.324219 70.804688 197.230469 70.804688 C 194.78125 70.804688 187.902344 73.214844 185.355469 74.96875 C 184 75.898438 182.648438 76.65625 182.347656 76.65625 C 181.285156 76.65625 173.4375 58.46875 173.4375 56.007812 C 173.4375 53.34375 176.277344 53.984375 179.613281 57.394531 M 264.550781 58.011719 C 265.703125 59.019531 267.730469 61.671875 269.054688 63.902344 C 271.148438 67.421875 271.503906 68.519531 271.714844 72.160156 C 272.015625 77.28125 270.136719 85.15625 266.964844 92.074219 L 264.859375 96.664062 L 263.386719 94.914062 C 262.578125 93.953125 261.914062 92.929688 261.914062 92.644531 C 261.914062 92.359375 262.832031 90.703125 263.953125 88.960938 C 266.269531 85.371094 268.0625 80.523438 267.445312 79.523438 C 267.195312 79.125 266.742188 79.6875 266.316406 80.917969 C 265.925781 82.054688 264.882812 84.214844 264 85.71875 C 262.554688 88.179688 262.300781 88.367188 261.421875 87.597656 C 259.839844 86.214844 256.640625 84.761719 256.640625 85.425781 C 256.640625 85.761719 257.835938 86.613281 259.292969 87.320312 C 261.214844 88.253906 261.84375 88.855469 261.574219 89.507812 C 261.367188 90.003906 260.941406 91.304688 260.625 92.402344 C 260.09375 94.238281 260.191406 94.503906 261.859375 95.808594 C 262.859375 96.585938 263.671875 97.738281 263.671875 98.371094 C 263.671875 100.484375 261.992188 103.574219 260.539062 104.125 C 258.082031 105.058594 256.769531 104.304688 256.328125 101.714844 C 255.882812 99.066406 256.476562 94.042969 257.1875 94.480469 C 257.445312 94.640625 258.152344 94.203125 258.757812 93.511719 C 259.367188 92.820312 259.53125 92.449219 259.125 92.6875 C 258.71875 92.925781 257.796875 92.914062 257.074219 92.664062 C 255.898438 92.261719 255.976562 92.179688 257.8125 91.894531 C 259.503906 91.632812 259.863281 91.332031 259.863281 90.164062 C 259.863281 89.386719 259.527344 88.683594 259.117188 88.597656 C 258.707031 88.515625 258.640625 88.582031 258.96875 88.746094 C 259.300781 88.910156 259.570312 89.394531 259.570312 89.820312 C 259.570312 90.386719 259.125 90.480469 257.960938 90.171875 C 255.925781 89.628906 255.789062 88.644531 255.210938 70.660156 L 254.78125 57.347656 L 256.152344 56.796875 C 256.902344 56.496094 258.632812 56.234375 259.988281 56.214844 C 261.953125 56.183594 262.886719 56.550781 264.550781 58.011719 M 255.859375 61.832031 C 255.644531 62.046875 255.488281 62.773438 255.515625 63.441406 C 255.539062 64.113281 255.695312 64.332031 255.855469 63.929688 C 256.019531 63.527344 257.058594 63.199219 258.167969 63.199219 C 259.804688 63.199219 260.78125 63.777344 263.390625 66.304688 C 265.902344 68.730469 266.601562 69.160156 266.601562 68.269531 C 266.601562 67.640625 265.320312 65.847656 263.753906 64.285156 C 261.304688 61.839844 260.585938 61.441406 258.578125 61.441406 C 257.296875 61.441406 256.074219 61.617188 255.859375 61.832031 M 182.441406 66.925781 C 180.113281 69.25 179.195312 70.90625 180.320312 70.742188 C 181.167969 70.621094 186.496094 64.367188 185.753906 64.367188 C 185.339844 64.367188 183.851562 65.519531 182.441406 66.925781 M 148.523438 65.488281 C 149.410156 65.835938 149.050781 66.011719 146.988281 66.246094 C 144.152344 66.5625 136.402344 69.835938 135.28125 71.183594 C 134.917969 71.621094 134.339844 71.976562 134 71.976562 C 132.652344 71.976562 136.964844 68.335938 140.257812 66.691406 C 143.695312 64.976562 146.257812 64.605469 148.523438 65.488281 M 258.835938 70.113281 C 257.953125 70.214844 257.226562 70.53125 257.226562 70.8125 C 257.226562 71.253906 263.640625 70.980469 264.140625 70.519531 C 264.457031 70.226562 260.492188 69.921875 258.835938 70.113281 M 258.449219 73.390625 C 258.585938 73.527344 259.882812 74.039062 261.328125 74.53125 L 263.964844 75.421875 L 262.582031 74.285156 C 261.820312 73.660156 260.523438 73.144531 259.699219 73.144531 C 258.878906 73.144531 258.3125 73.257812 258.449219 73.390625 M 127.566406 87.136719 C 131.140625 90.777344 132.355469 92.898438 131.582031 94.148438 C 131.382812 94.472656 131.769531 95.035156 132.445312 95.394531 C 134.128906 96.292969 135.667969 100.136719 138.03125 109.347656 C 139.136719 113.648438 140.039062 117.277344 140.039062 117.417969 C 140.039062 117.554688 139.050781 116.632812 137.84375 115.367188 C 136.25 113.699219 134.597656 112.734375 131.835938 111.859375 C 117.996094 107.46875 113.316406 105.363281 112.03125 102.957031 C 111.035156 101.085938 111.445312 95.238281 112.789062 92.164062 L 113.8125 89.824219 L 114.425781 91.578125 C 114.765625 92.542969 115.0625 95.433594 115.089844 98 L 115.136719 102.664062 L 117.480469 103.933594 C 118.769531 104.632812 120.484375 105.398438 121.289062 105.636719 C 122.707031 106.058594 122.722656 106.035156 121.726562 104.921875 C 121.164062 104.292969 120.550781 102.488281 120.367188 100.914062 C 120.179688 99.339844 119.890625 97.828125 119.71875 97.550781 C 119.320312 96.90625 119.371094 91.773438 119.875 82.304688 L 120.273438 74.789062 L 122.0625 79.070312 C 123.410156 82.296875 124.769531 84.285156 127.566406 87.136719 M 141.210938 76.121094 C 137.03125 78.007812 133.59375 81.867188 133.59375 84.667969 C 133.59375 85.289062 134.433594 84.46875 135.664062 82.644531 C 138.648438 78.21875 141.71875 76.359375 146.003906 76.386719 C 149.039062 76.402344 149.269531 76.324219 148.09375 75.675781 C 146.207031 74.628906 144.226562 74.753906 141.210938 76.121094 M 143.351562 85.921875 C 142.820312 86.507812 142.382812 87.515625 142.382812 88.15625 C 142.382812 89.917969 144.171875 94.796875 144.816406 94.796875 C 145.128906 94.796875 145.246094 94.578125 145.078125 94.308594 C 144.804688 93.863281 147.761719 93.871094 151.976562 94.324219 C 153.035156 94.4375 153.882812 94.15625 154.261719 93.570312 C 155.683594 91.355469 152.785156 86.992188 150.09375 87.304688 C 148.757812 87.457031 148.507812 87.792969 148.355469 89.644531 C 148.214844 91.316406 147.96875 91.730469 147.269531 91.460938 C 146.773438 91.273438 146.144531 91.472656 145.871094 91.914062 C 145.503906 92.507812 145.222656 92.300781 144.761719 91.082031 C 143.46875 87.695312 143.910156 86.867188 147.65625 85.644531 L 149.707031 84.972656 L 147.015625 84.910156 C 145.09375 84.867188 144.042969 85.15625 143.351562 85.921875 M 153.527344 92.148438 C 153.121094 92.640625 152.558594 93.042969 152.277344 93.042969 C 151.996094 93.042969 152.214844 92.523438 152.757812 91.890625 C 153.300781 91.253906 153.863281 90.855469 154.007812 90.996094 C 154.152344 91.140625 153.933594 91.660156 153.527344 92.148438 M 117.773438 98.636719 C 117.773438 100.265625 117.546875 101.164062 117.1875 100.941406 C 116.179688 100.320312 116.519531 95.96875 117.578125 95.96875 C 117.6875 95.96875 117.773438 97.167969 117.773438 98.636719 M 258.429688 97.082031 C 258.101562 97.695312 257.761719 99.074219 257.675781 100.152344 C 257.53125 101.960938 257.652344 102.113281 259.214844 102.113281 C 260.371094 102.113281 261.28125 101.613281 262.085938 100.535156 C 263.203125 99.042969 263.214844 98.882812 262.28125 97.464844 C 261.125 95.699219 259.269531 95.515625 258.429688 97.082031 M 261.328125 98.117188 C 261.328125 99.164062 259.710938 101.234375 258.894531 101.234375 C 258.125 101.234375 258.304688 100.164062 259.34375 98.582031 C 260.4375 96.914062 261.328125 96.707031 261.328125 98.117188 M 152.636719 100.949219 C 149.882812 102.125 146.941406 102.957031 145.507812 102.96875 C 144.164062 102.980469 142.648438 103.148438 142.140625 103.34375 C 140.300781 104.050781 141.945312 104.746094 145.460938 104.746094 C 148.605469 104.746094 149.546875 104.453125 153.011719 102.394531 C 155.191406 101.101562 157.132812 99.785156 157.328125 99.46875 C 157.792969 98.722656 158.050781 98.640625 152.636719 100.949219 M 38.394531 101.796875 C 38.203125 102.105469 36.472656 103.195312 34.546875 104.21875 C 31.152344 106.027344 28.519531 109.003906 22.433594 117.910156 C 20.300781 121.039062 12.902344 135.542969 11.648438 139.066406 C 9.03125 146.417969 8.003906 165.929688 9.667969 176.722656 C 10.738281 183.660156 10.765625 190.75 9.734375 194.570312 C 8.863281 197.804688 8.949219 197.914062 7.632812 191.9375 C 7.386719 190.808594 7.152344 178.636719 7.109375 164.886719 C 7.03125 137.355469 7.160156 136.023438 10.539062 129.324219 C 13.382812 123.695312 15.519531 120.722656 20.078125 116.066406 L 24.175781 111.882812 L 20.492188 112.648438 C 14.457031 113.90625 8.203125 113.175781 8.203125 111.210938 C 8.203125 110.351562 8.855469 110.066406 11.570312 109.738281 C 17.308594 109.046875 31.890625 104.703125 36.328125 102.367188 C 38.75 101.089844 38.847656 101.0625 38.394531 101.796875 M 160.390625 103.28125 C 159.113281 107.660156 156.96875 118.367188 157.230469 119.050781 C 157.671875 120.199219 163.550781 124.765625 163.992188 124.308594 C 164.191406 124.101562 163.066406 122.792969 161.488281 121.402344 C 158.253906 118.546875 158.355469 119.570312 160.242188 108.953125 C 161.121094 103.984375 161.214844 100.449219 160.390625 103.28125 M 282.421875 103.554688 C 282.421875 103.832031 283.277344 104.765625 284.328125 105.632812 C 289.800781 110.171875 293.554688 114.28125 293.589844 115.777344 L 293.628906 117.328125 L 294.191406 115.925781 C 294.988281 113.929688 294.363281 112.347656 291.898438 110.105469 L 289.746094 108.148438 L 291.882812 108.449219 C 293.886719 108.730469 294.035156 108.640625 294.273438 107.019531 C 294.546875 105.164062 293.851562 105.445312 293.386719 107.378906 C 293.160156 108.324219 293.09375 108.265625 293.035156 107.058594 C 292.976562 105.710938 292.769531 105.589844 290.953125 105.800781 C 289.632812 105.953125 287.824219 105.523438 285.679688 104.542969 C 283.886719 103.726562 282.421875 103.28125 282.421875 103.554688 M 111.65625 106.648438 L 113.378906 108.550781 L 111.476562 106.832031 C 109.699219 105.226562 109.300781 104.746094 109.753906 104.746094 C 109.855469 104.746094 110.710938 105.601562 111.65625 106.648438 M 133.773438 114.902344 C 135.347656 115.558594 136.671875 117.148438 139.957031 122.335938 C 142.257812 125.964844 143.988281 129.085938 143.804688 129.269531 C 143.617188 129.453125 143.226562 129.175781 142.929688 128.648438 C 142.636719 128.121094 141.535156 126.640625 140.484375 125.355469 C 139.433594 124.070312 137.433594 121.535156 136.042969 119.722656 C 134.546875 117.777344 132.386719 115.820312 130.769531 114.949219 C 128.238281 113.578125 128.171875 113.488281 129.902344 113.765625 C 130.929688 113.929688 132.675781 114.441406 133.773438 114.902344 M 197.414062 123.1875 C 196.757812 124.777344 186.042969 131.890625 182.042969 133.386719 C 181.136719 133.726562 179.335938 134.003906 178.046875 134.003906 C 176.757812 134.003906 175.148438 134.300781 174.46875 134.664062 C 173.785156 135.027344 171.761719 135.3125 169.964844 135.296875 C 167.003906 135.269531 166.804688 135.347656 167.835938 136.097656 C 169.285156 137.15625 172.714844 137.132812 174.609375 136.050781 C 175.414062 135.59375 177.347656 135.207031 178.90625 135.195312 C 181.265625 135.179688 183.058594 134.480469 189.601562 131.03125 C 195.632812 127.851562 197.542969 126.5625 197.8125 125.496094 C 198.175781 124.050781 197.84375 122.136719 197.414062 123.1875 M 229.378906 144.976562 C 229.152344 152.136719 228.757812 157.996094 228.496094 157.996094 C 227.738281 157.996094 226.171875 150.1875 226.171875 146.410156 C 226.171875 143.164062 228.011719 129.398438 228.964844 125.519531 C 229.667969 122.644531 229.832031 130.390625 229.378906 144.976562 M 131.566406 137.804688 C 137.097656 143.300781 143.453125 151.238281 145.28125 154.925781 C 148.328125 161.085938 148.324219 161.011719 147.820312 188.71875 L 147.351562 214.464844 L 145.476562 218.433594 C 144.441406 220.617188 141.949219 224.4375 139.933594 226.917969 C 134.859375 233.171875 125.777344 242.113281 121.65625 244.902344 C 118.402344 247.109375 117.945312 247.246094 113.152344 247.433594 C 110.367188 247.542969 105.066406 247.214844 101.378906 246.703125 C 97.695312 246.191406 93.742188 245.789062 92.601562 245.808594 C 90.726562 245.84375 90.660156 245.898438 91.882812 246.390625 C 92.628906 246.6875 94.804688 248.132812 96.71875 249.605469 C 98.628906 251.074219 102.304688 253.332031 104.882812 254.621094 C 109.4375 256.894531 109.59375 257.042969 110.253906 259.707031 C 110.78125 261.84375 111.6875 263.175781 114.355469 265.738281 C 117.886719 269.136719 118.402344 270.582031 117.410156 274.28125 L 117.058594 275.582031 L 114.632812 273.925781 C 111.171875 271.5625 109.464844 270.769531 102.539062 268.296875 C 95.214844 265.683594 86.949219 261.644531 84.261719 259.363281 C 83.195312 258.457031 80.589844 256.605469 78.464844 255.25 C 73.734375 252.222656 72.425781 250.832031 71.476562 247.820312 C 70.523438 244.789062 68.035156 240.503906 67.230469 240.503906 C 66.882812 240.503906 66.742188 240.367188 66.910156 240.195312 C 67.082031 240.027344 67.980469 240.1875 68.914062 240.554688 C 71.332031 241.511719 76.171875 242.789062 76.171875 242.472656 C 76.171875 242.324219 74.128906 241.242188 71.632812 240.066406 C 65.082031 236.988281 61.640625 234.824219 58.1875 231.625 C 56.515625 230.070312 54.785156 228.800781 54.339844 228.800781 C 53.898438 228.800781 51.574219 229.320312 49.179688 229.957031 C 43.574219 231.445312 38.546875 231.457031 35.304688 229.988281 C 29.378906 227.304688 24.386719 222.839844 19.953125 216.269531 C 13.15625 206.199219 9.714844 196.144531 12.742188 195.210938 C 15.21875 194.445312 24.167969 193.773438 25.441406 194.257812 C 26.511719 194.664062 28.125 197.363281 28.125 198.753906 C 28.125 198.867188 26.335938 198.957031 24.152344 198.957031 C 18.027344 198.957031 16.371094 200.730469 18.527344 204.984375 C 20.695312 209.257812 21.679688 209.582031 26.953125 207.761719 C 29.820312 206.769531 29.96875 206.644531 28.308594 206.605469 C 27.28125 206.582031 25.730469 206.835938 24.863281 207.164062 C 22.644531 208.007812 21.460938 207.460938 20.320312 205.078125 C 19.148438 202.621094 19.054688 200.785156 20.082031 200.390625 C 20.492188 200.234375 22.652344 200.308594 24.882812 200.554688 L 28.933594 201.007812 L 32.054688 205.070312 C 33.769531 207.304688 36.09375 209.972656 37.21875 211 C 38.898438 212.539062 39.25 213.265625 39.214844 215.128906 C 39.191406 216.375 38.710938 218.179688 38.144531 219.144531 C 37.320312 220.554688 36.667969 220.933594 34.820312 221.070312 C 32.917969 221.210938 31.816406 220.777344 28.472656 218.578125 C 26.246094 217.117188 24.265625 216.078125 24.078125 216.273438 C 23.566406 216.796875 28.367188 220.898438 30.882812 222.089844 C 34.066406 223.597656 37.6875 223.828125 41.496094 222.765625 C 43.324219 222.253906 45.550781 221.683594 46.4375 221.503906 C 47.320312 221.320312 48.046875 220.824219 48.046875 220.398438 C 48.046875 219.589844 45.667969 218.269531 44.210938 218.269531 C 42.539062 218.269531 41.015625 216.023438 41.015625 213.558594 C 41.015625 211.035156 39.953125 208.453125 38.375 207.148438 C 37.046875 206.046875 35.171875 202.253906 33.910156 198.109375 C 32.691406 194.109375 32.894531 193.257812 34.40625 196.039062 C 36.910156 200.648438 41.25 206.675781 43.371094 208.488281 C 48.011719 212.453125 55.5 215.117188 57.210938 213.410156 C 57.777344 212.839844 56.898438 209.921875 54.210938 203.472656 C 53.03125 200.644531 51.9375 197.355469 51.773438 196.15625 C 51.523438 194.273438 51.796875 194.601562 53.839844 198.605469 C 55.136719 201.148438 56.933594 204.011719 57.835938 204.972656 C 62.324219 209.75 68.914062 213.632812 65.347656 209.402344 C 62.90625 206.503906 59.894531 200.050781 57.085938 191.707031 C 53.722656 181.703125 53.730469 180.628906 57.183594 177.28125 C 60.414062 174.15625 64.214844 168.746094 65.300781 165.738281 C 65.734375 164.535156 66.882812 161.972656 67.855469 160.035156 C 68.828125 158.101562 70.222656 154.679688 70.957031 152.429688 L 72.292969 148.339844 L 72.746094 150.390625 C 72.992188 151.515625 73.375 154.449219 73.59375 156.910156 L 73.984375 161.382812 L 71.417969 162.53125 C 70.003906 163.160156 68.332031 164.257812 67.703125 164.964844 C 66.667969 166.128906 66.914062 166.082031 70.289062 164.488281 C 74.234375 162.625 75 162.625 75 164.480469 C 75 165.238281 74.050781 166.179688 72.238281 167.226562 C 67.78125 169.804688 63.746094 173.957031 61.078125 178.722656 C 59.710938 181.160156 58.59375 183.441406 58.59375 183.789062 C 58.59375 184.425781 62.597656 191.304688 64.164062 193.355469 C 65.84375 195.554688 65.691406 193.746094 63.914062 190.378906 C 62.921875 188.5 62.109375 186.359375 62.109375 185.625 C 62.109375 182.226562 66.3125 175.753906 70.410156 172.851562 C 73.019531 171.003906 77.078125 169.296875 76.449219 170.308594 C 75.898438 171.199219 76.859375 170.960938 78.015625 169.914062 C 79.390625 168.671875 84.320312 168.757812 86.875 170.066406 C 87.917969 170.601562 89.929688 172.058594 91.351562 173.304688 C 92.769531 174.546875 94.050781 175.445312 94.199219 175.296875 C 94.769531 174.726562 91.71875 170.679688 89.523438 169.09375 C 88.257812 168.175781 85.527344 166.863281 83.457031 166.175781 C 80.234375 165.101562 79.6875 164.722656 79.6875 163.535156 C 79.6875 162.167969 79.726562 162.15625 82.015625 162.964844 C 83.296875 163.414062 85.324219 164.449219 86.523438 165.265625 C 87.722656 166.078125 88.828125 166.617188 88.984375 166.464844 C 89.582031 165.867188 86.460938 163.296875 83.703125 162.109375 C 80.582031 160.769531 79.953125 159.929688 80.488281 157.808594 C 80.796875 156.585938 81.367188 156.378906 86.335938 155.699219 C 89.363281 155.28125 92.390625 155.117188 93.0625 155.332031 C 93.734375 155.542969 95.5 157.066406 96.984375 158.71875 L 99.683594 161.71875 L 99.316406 172.484375 L 102.539062 171.074219 C 104.3125 170.296875 106.453125 169.160156 107.300781 168.546875 C 108.167969 167.917969 109.351562 167.566406 110.015625 167.738281 C 113.101562 168.542969 118.359375 162.96875 121.261719 155.8125 C 122.785156 152.050781 123.007812 151.800781 125.738281 150.792969 C 127.320312 150.210938 129.007812 149.335938 129.492188 148.855469 C 130.414062 147.933594 130.117188 147.578125 125.105469 143.660156 C 123.832031 142.664062 123.523438 141.761719 123.007812 137.574219 C 122.675781 134.867188 122.019531 131.742188 121.554688 130.625 C 121.085938 129.507812 120.703125 128.46875 120.703125 128.316406 C 120.703125 127.859375 127.761719 134.023438 131.566406 137.804688 M 258.09375 149.511719 C 258.085938 162.828125 258.230469 167.460938 258.566406 164.433594 C 259.183594 158.863281 259.1875 138.339844 258.574219 133.710938 C 258.277344 131.496094 258.101562 137.316406 258.09375 149.511719 M 134.890625 136.628906 C 135.527344 137.875 135.332031 137.691406 133 134.886719 C 131.59375 133.195312 131.589844 133.175781 132.914062 134.292969 C 133.671875 134.933594 134.558594 135.984375 134.890625 136.628906 M 82.230469 141.703125 L 84.371094 145.59375 L 82.398438 146.753906 L 80.429688 147.914062 L 80.113281 143.445312 C 79.9375 140.988281 79.597656 138.453125 79.359375 137.808594 C 78.59375 135.726562 79.984375 137.617188 82.230469 141.703125 M 153.335938 140.070312 C 153.835938 141.042969 154.46875 142.640625 154.738281 143.625 L 155.230469 145.414062 L 153.792969 143.660156 C 153.003906 142.695312 151.964844 140.757812 151.488281 139.359375 C 150.703125 137.070312 150.707031 136.886719 151.519531 137.558594 C 152.015625 137.972656 152.832031 139.101562 153.335938 140.070312 M 159.132812 145.410156 C 159.789062 146.414062 159.953125 147.375 159.65625 148.484375 L 159.226562 150.097656 L 158.496094 148.339844 C 157.195312 145.226562 156.925781 143.953125 157.5625 143.953125 C 157.902344 143.953125 158.605469 144.609375 159.132812 145.410156 M 96.765625 153.605469 C 97.601562 155.144531 90.503906 148.269531 88.917969 146 C 88.242188 145.035156 89.589844 146.085938 91.910156 148.339844 C 94.234375 150.59375 96.417969 152.964844 96.765625 153.605469 M 219.691406 153.023438 C 220.621094 158.488281 223.039062 167.011719 224.449219 169.765625 C 225.074219 170.992188 225.585938 172.539062 225.585938 173.207031 C 225.585938 177.007812 219.140625 191.292969 215.449219 195.683594 C 209.242188 203.050781 207.878906 206.191406 207.15625 214.757812 C 206.679688 220.40625 206.199219 223.679688 205.886719 223.367188 C 204.941406 222.421875 203.882812 212.160156 203.941406 204.515625 C 204 196.566406 203.863281 195.296875 202.492188 191.058594 C 201.660156 188.484375 200.976562 185.949219 200.976562 185.425781 C 200.976562 184.902344 202.445312 181.355469 204.238281 177.542969 C 206.03125 173.726562 208.949219 167.046875 210.71875 162.691406 C 214.195312 154.132812 218.03125 147.125 218.628906 148.238281 C 218.832031 148.617188 219.308594 150.769531 219.691406 153.023438 M 164.871094 151.765625 C 175 162.449219 177.378906 164.6875 179.707031 165.714844 L 182.257812 166.84375 L 181.113281 168.417969 C 179.078125 171.226562 173.253906 176.539062 168.542969 179.886719 C 164.09375 183.050781 162 184.058594 163.410156 182.359375 C 164.585938 180.945312 167.765625 164.921875 167.835938 160.042969 C 167.871094 157.714844 167.859375 157.703125 165.777344 157.863281 C 163.457031 158.039062 162.574219 157.296875 161.042969 153.898438 C 160.074219 151.753906 160.472656 149.21875 161.777344 149.21875 C 162.152344 149.21875 163.542969 150.363281 164.871094 151.765625 M 126.855469 155.3125 C 124.960938 156.152344 123.265625 157.839844 121.511719 160.628906 C 120.515625 162.21875 120.628906 162.171875 122.753906 160.113281 C 125.484375 157.464844 129.023438 155.6875 131.601562 155.667969 C 132.601562 155.660156 134.667969 156.320312 136.195312 157.128906 C 139.539062 158.90625 139.53125 157.714844 136.183594 155.8125 C 133.554688 154.316406 129.578125 154.101562 126.855469 155.3125 M 117.773438 157.273438 C 117.773438 157.980469 113.605469 163.976562 113.3125 163.683594 C 112.953125 163.324219 116.738281 156.824219 117.3125 156.824219 C 117.566406 156.824219 117.773438 157.027344 117.773438 157.273438 M 157.6875 166.703125 C 158.410156 168.351562 159.011719 171.710938 159.371094 176.097656 C 159.941406 183.042969 161.871094 192.367188 164.035156 198.605469 C 165.695312 203.398438 169.914062 211.152344 173.140625 215.335938 C 176.09375 219.171875 176.046875 219.191406 170.304688 216.496094 C 166.03125 214.488281 164.25 212.386719 163.503906 208.460938 C 162.464844 202.980469 159.453125 191.214844 156.085938 179.457031 C 153.289062 169.695312 152.929688 167.835938 152.941406 163.074219 L 152.949219 157.703125 L 154.753906 160.921875 C 155.75 162.691406 157.066406 165.292969 157.6875 166.703125 M 127.0625 159.761719 C 122.925781 161.941406 119.449219 167.402344 119.574219 171.523438 C 119.605469 172.671875 119.800781 172.503906 120.660156 170.578125 C 122.703125 165.996094 128.925781 161.96875 132.550781 162.875 C 134.570312 163.382812 138.484375 166.347656 140.339844 168.78125 C 142.425781 171.511719 143.496094 174.609375 143.527344 178.003906 C 143.570312 182.5 144.480469 181.695312 145.167969 176.546875 C 145.890625 171.136719 145.398438 169.367188 141.847656 164.550781 C 137.839844 159.121094 131.914062 157.199219 127.0625 159.761719 M 166.394531 160.957031 C 166.078125 162.058594 165.820312 163.953125 165.820312 165.160156 C 165.820312 166.371094 165.554688 167.359375 165.234375 167.359375 C 164.210938 167.359375 164.539062 160.84375 165.621094 159.648438 C 166.910156 158.226562 167.089844 158.535156 166.394531 160.957031 M 110.109375 161.945312 C 108.421875 164.179688 106.390625 166.1875 105.824219 166.1875 C 105.492188 166.1875 106.390625 165.003906 107.8125 163.554688 C 110.476562 160.84375 111.472656 160.148438 110.109375 161.945312 M 195.886719 165.75 C 198.726562 168.613281 198.890625 170.75 197.226562 183.070312 C 196.203125 190.632812 195.324219 195.0625 194.546875 196.585938 C 192.929688 199.75 182.214844 213.144531 182.234375 211.980469 C 182.246094 211.035156 185.679688 200.773438 187.429688 196.433594 C 188.445312 193.921875 190.722656 189.160156 192.488281 185.851562 C 194.257812 182.546875 195.695312 179.203125 195.683594 178.429688 C 195.667969 177.171875 195.503906 177.273438 194.1875 179.355469 C 188.375 188.5625 181.398438 206.09375 179.839844 215.417969 L 179.09375 219.882812 L 176.097656 216.003906 C 171.195312 209.65625 170.914062 209.070312 171.320312 206.105469 C 172.199219 199.699219 177.738281 185.300781 180.824219 181.40625 C 183.351562 178.21875 182.507812 177.65625 178.988281 180.183594 C 173.757812 183.929688 162.847656 188.195312 162.917969 186.460938 C 162.933594 186.09375 166.390625 183.4375 170.597656 180.5625 C 176.988281 176.195312 178.835938 174.574219 181.808594 170.746094 C 184.820312 166.863281 185.777344 166.035156 188.042969 165.339844 C 192.066406 164.101562 194.375 164.222656 195.886719 165.75 M 125.433594 166.808594 C 122.21875 169.136719 121.117188 171.789062 121.085938 177.304688 C 121.054688 182.503906 122.4375 187.597656 124.472656 189.789062 C 125.59375 191 126.46875 191.351562 128.359375 191.351562 C 130.417969 191.351562 131.105469 191.015625 132.757812 189.214844 C 133.832031 188.042969 135.121094 185.890625 135.617188 184.429688 C 136.714844 181.21875 136.75 180.429688 135.789062 180.421875 C 135.386719 180.417969 134.433594 180.214844 133.667969 179.96875 C 132.707031 179.660156 132.398438 179.722656 132.675781 180.167969 C 132.898438 180.527344 133.457031 180.816406 133.921875 180.816406 C 135.148438 180.816406 134.960938 182.226562 133.300781 185.496094 C 131.75 188.554688 130.449219 189.59375 128.175781 189.59375 C 124.6875 189.59375 122.742188 185.273438 122.777344 177.597656 C 122.800781 171.929688 123.648438 169.40625 126.105469 167.6875 C 128.949219 165.695312 132.183594 167.484375 133.628906 171.847656 C 134.230469 173.671875 134.160156 174.03125 132.964844 175.304688 C 131.402344 176.964844 131.589844 177.046875 134.089844 175.800781 C 136.253906 174.722656 136.417969 173.425781 134.824219 169.992188 C 132.363281 164.699219 129.628906 163.773438 125.433594 166.808594 M 285.863281 175.105469 C 285.566406 176.476562 283.289062 184.105469 280.804688 192.054688 C 275.882812 207.777344 275.761719 207.941406 274.199219 201.007812 C 273.574219 198.25 273.660156 197.761719 275.691406 192.519531 C 276.875 189.464844 278.316406 186.171875 278.894531 185.207031 C 280.535156 182.457031 284.03125 175.394531 284.441406 173.988281 C 284.710938 173.078125 284.332031 172.171875 283.105469 170.769531 C 282.167969 169.699219 281.210938 167.898438 280.980469 166.773438 C 280.589844 164.855469 280.746094 164.972656 283.484375 168.667969 C 286.304688 172.480469 286.382812 172.691406 285.863281 175.105469 M 206.027344 169.5 C 205.53125 170.414062 205.113281 170.976562 205.101562 170.75 C 205.0625 170.054688 206.425781 167.339844 206.683594 167.597656 C 206.816406 167.730469 206.523438 168.585938 206.027344 169.5 M 282.234375 174.0625 C 281.894531 176.050781 280.125 180.476562 279.800781 180.148438 C 279.683594 180.035156 279.882812 177.910156 280.238281 175.425781 C 280.785156 171.660156 281.027344 171.027344 281.714844 171.597656 C 282.238281 172.03125 282.425781 172.925781 282.234375 174.0625 M 73.535156 172.425781 C 68.558594 175.039062 66.703125 178.222656 66.734375 184.082031 C 66.78125 193.429688 72.746094 200.1875 79.617188 198.679688 C 83.15625 197.902344 86.121094 192.886719 86.128906 187.660156 C 86.132812 184.890625 85.136719 185.324219 84.652344 188.300781 C 83.761719 193.753906 81.066406 197.203125 77.703125 197.199219 C 70.65625 197.191406 65.582031 185.328125 69.441406 177.878906 C 69.9375 176.917969 71.375 175.449219 72.636719 174.617188 C 76.078125 172.339844 78.289062 173.148438 81.972656 178.023438 C 82.605469 178.863281 82.578125 179.183594 81.796875 179.964844 C 80.304688 181.457031 80.707031 181.972656 82.617188 181.023438 C 83.585938 180.539062 84.375 179.875 84.375 179.546875 C 84.375 177.9375 82.175781 174.652344 80.085938 173.140625 C 77.457031 171.242188 76.078125 171.089844 73.535156 172.425781 M 124.613281 174 C 124.21875 176.878906 125.519531 185.863281 126.46875 186.808594 C 127.335938 187.675781 127.902344 183.023438 127.429688 178.894531 C 127.199219 176.894531 126.554688 174.367188 126 173.273438 L 124.988281 171.289062 L 124.613281 174 M 291.332031 177.753906 C 292.808594 179.019531 293.203125 183.148438 292.371094 188.585938 C 291.617188 193.511719 288.117188 206.242188 285.96875 211.894531 C 285.304688 213.628906 284.757812 215.578125 284.75 216.21875 C 284.738281 217.179688 284.316406 216.945312 282.40625 214.925781 C 279.84375 212.214844 279.554688 210.707031 280.953125 207.363281 C 282.367188 203.984375 287.496094 186.765625 288.554688 181.847656 C 289.089844 179.355469 289.339844 177.011719 289.109375 176.636719 C 288.613281 175.839844 289.777344 176.425781 291.332031 177.753906 M 162.34375 181.597656 C 161.902344 182.039062 161.734375 181.457031 161.769531 179.617188 L 161.824219 177.015625 L 162.394531 178.996094 C 162.785156 180.34375 162.765625 181.175781 162.34375 181.597656 M 72.765625 183.328125 C 72.949219 186.867188 73.398438 188.964844 74.425781 191.082031 L 75.832031 193.984375 L 76.378906 191.691406 C 76.746094 190.140625 76.703125 188.800781 76.253906 187.550781 C 75.886719 186.539062 75.585938 184.859375 75.585938 183.820312 C 75.585938 181.683594 74.125 178.476562 73.152344 178.476562 C 72.714844 178.476562 72.589844 180.035156 72.765625 183.328125 M 200.367188 190.414062 C 201.230469 192.679688 200.792969 192.921875 199.285156 191.011719 C 198.015625 189.398438 197.695312 186.515625 198.472656 183.742188 C 198.808594 182.554688 198.964844 182.886719 199.304688 185.507812 C 199.539062 187.28125 200.015625 189.488281 200.367188 190.414062 M 235.386719 192.804688 C 235.164062 198.769531 234.738281 202.199219 233.8125 205.386719 C 232.582031 209.613281 228.753906 217.703125 228.003906 217.664062 C 227.800781 217.65625 226.5 214.824219 225.109375 211.375 C 223.722656 207.925781 222.292969 204.410156 221.933594 203.566406 C 221.335938 202.152344 221.589844 201.648438 225.175781 197.171875 C 227.316406 194.5 230.0625 190.617188 231.277344 188.542969 C 232.492188 186.464844 233.820312 184.640625 234.222656 184.484375 C 234.628906 184.332031 234.992188 183.769531 235.027344 183.242188 C 235.078125 182.542969 235.179688 182.597656 235.390625 183.441406 C 235.554688 184.082031 235.550781 188.296875 235.386719 192.804688 M 167.523438 190.910156 C 167.261719 192.28125 167.03125 194.703125 167.019531 196.296875 C 167.003906 198.050781 166.78125 198.972656 166.460938 198.636719 C 165.824219 197.972656 164.0625 192.148438 164.0625 190.707031 C 164.0625 189.871094 165.960938 188.6875 167.644531 188.472656 C 167.84375 188.445312 167.789062 189.542969 167.523438 190.910156 M 201.90625 195.6875 C 202.117188 196.640625 202.382812 202.046875 202.5 207.699219 C 202.613281 213.351562 202.777344 219.160156 202.867188 220.609375 C 203.097656 224.414062 201.679688 224.371094 196.160156 220.414062 C 193.722656 218.667969 190.382812 216.507812 188.734375 215.613281 C 187.0625 214.703125 185.746094 213.574219 185.746094 213.054688 C 185.75 212.542969 187.40625 209.886719 189.425781 207.148438 C 193.484375 201.660156 196.875 196.328125 196.875 195.4375 C 196.875 195.121094 197.402344 194.332031 198.050781 193.6875 C 199.035156 192.703125 199.410156 192.632812 200.375 193.234375 C 201.007812 193.628906 201.699219 194.730469 201.90625 195.6875 M 136.230469 194.679688 C 133.480469 195.835938 132.105469 196.082031 129.914062 195.828125 C 126.636719 195.441406 126.703125 196.261719 130.027344 197.257812 C 132.796875 198.085938 135.464844 197.332031 138.613281 194.828125 C 141.214844 192.765625 140.851562 192.746094 136.230469 194.679688 M 85.253906 201.394531 C 81.722656 202.550781 79.519531 202.476562 71.484375 200.921875 C 70.1875 200.671875 70.140625 200.714844 71.089844 201.316406 C 72.703125 202.335938 79.71875 204.222656 81.890625 204.222656 C 83.964844 204.222656 88.582031 202.289062 89.691406 200.957031 C 90.613281 199.84375 89.722656 199.933594 85.253906 201.394531 M 151.007812 205.242188 C 150.871094 206.128906 150.757812 205.542969 150.753906 203.933594 C 150.75 202.324219 150.859375 201.59375 151 202.3125 C 151.136719 203.035156 151.140625 204.351562 151.007812 205.242188 M 116.015625 202.453125 C 116.015625 202.804688 116.441406 203.253906 116.960938 203.453125 C 117.480469 203.652344 118.261719 204.628906 118.695312 205.628906 C 119.472656 207.414062 119.484375 207.421875 119.507812 205.925781 C 119.53125 204.527344 118.597656 203.28125 116.75 202.230469 C 116.34375 202.003906 116.015625 202.101562 116.015625 202.453125 M 224.085938 212.8125 L 226.347656 218.46875 L 225.023438 219.539062 C 224.292969 220.128906 223.277344 220.609375 222.761719 220.609375 C 222.246094 220.609375 219.632812 221.707031 216.953125 223.050781 C 212.101562 225.488281 212.078125 225.492188 210.046875 224.523438 C 208.851562 223.957031 208.007812 223.125 208.011719 222.519531 C 208.015625 220.554688 209.664062 211.320312 210.175781 210.410156 C 210.457031 209.910156 212.65625 208.3125 215.0625 206.863281 L 219.433594 204.230469 L 220.628906 205.691406 C 221.285156 206.496094 222.84375 209.699219 224.085938 212.8125 M 196.46875 209.984375 C 195.511719 210.605469 194.53125 212.816406 194.53125 214.347656 C 194.53125 217.371094 198.542969 220.289062 199.449219 217.929688 C 200.839844 214.308594 198.679688 208.546875 196.46875 209.984375 M 28.859375 212.125 C 28.863281 213.410156 28.984375 213.871094 29.125 213.140625 C 29.265625 212.414062 29.261719 211.359375 29.113281 210.800781 C 28.96875 210.242188 28.851562 210.835938 28.859375 212.125 M 197.753906 217 C 197.222656 217.53125 196.308594 215.828125 196.296875 214.28125 C 196.292969 213.535156 196.617188 212.351562 197.023438 211.648438 C 197.683594 210.488281 197.769531 210.664062 197.933594 213.503906 C 198.03125 215.230469 197.953125 216.804688 197.753906 217 M 272.460938 214.621094 C 272.460938 215.082031 272.011719 216.945312 271.460938 218.761719 L 270.457031 222.070312 L 270.046875 219.144531 C 269.820312 217.535156 269.609375 215.054688 269.582031 213.632812 L 269.53125 211.042969 L 270.996094 212.417969 C 271.800781 213.171875 272.460938 214.164062 272.460938 214.621094 M 122.167969 215.886719 C 119.914062 216.082031 117.222656 216.699219 116.191406 217.257812 C 113.449219 218.734375 108.058594 220.011719 104.175781 220.101562 C 102.308594 220.144531 100.78125 220.25 100.78125 220.335938 C 100.78125 220.425781 101.722656 222.167969 102.871094 224.210938 C 106.925781 231.410156 111.996094 235.136719 116.660156 234.351562 C 121.164062 233.589844 124.171875 229.648438 125.738281 222.449219 C 126.203125 220.3125 126.746094 217.835938 126.941406 216.953125 C 127.136719 216.066406 127.0625 215.386719 126.78125 215.4375 C 126.5 215.488281 124.425781 215.691406 122.167969 215.886719 M 188.085938 217.707031 C 189.214844 218.28125 192.046875 220.097656 194.382812 221.742188 C 198.441406 224.601562 198.632812 224.839844 198.632812 227.0625 C 198.632812 229.375 198.199219 229.890625 197.140625 228.832031 C 196.832031 228.527344 195.425781 228.089844 194.015625 227.867188 C 190.457031 227.300781 190.992188 228.691406 194.824219 229.972656 C 198.058594 231.054688 199.429688 233.277344 197.957031 235.058594 C 197.070312 236.128906 189.335938 239.804688 184.832031 241.296875 C 182.394531 242.105469 174.023438 243.507812 174.023438 243.109375 C 174.023438 243.046875 174.582031 241.734375 175.265625 240.195312 C 175.945312 238.652344 177.53125 233.460938 178.785156 228.65625 C 182.320312 215.132812 182.535156 214.882812 188.085938 217.707031 M 165.289062 220.449219 C 164.789062 221.304688 164.679688 221.117188 164.664062 219.390625 C 164.65625 218.238281 164.847656 217.09375 165.085938 216.847656 C 165.785156 216.140625 165.960938 219.296875 165.289062 220.449219 M 282.671875 219.453125 C 283.003906 219.785156 282.015625 222.65625 280.132812 226.859375 C 277.761719 232.136719 277.128906 234.132812 277.394531 235.503906 L 277.742188 237.285156 L 276.539062 235.53125 C 274.121094 232.011719 272.9375 229.214844 273.222656 227.695312 C 273.5625 225.890625 276.449219 218.875 277.277344 217.847656 C 277.726562 217.289062 278.320312 217.328125 279.988281 218.023438 C 281.167969 218.511719 282.371094 219.15625 282.671875 219.453125 M 173.136719 219.621094 C 178.230469 221.480469 178.445312 222.222656 176.292969 230.480469 C 174.167969 238.632812 172.480469 242.066406 169.210938 244.878906 C 166.414062 247.289062 162.378906 249.554688 161.839844 249.015625 C 161.007812 248.183594 163.222656 240.957031 165.933594 235.65625 C 167.554688 232.492188 168.742188 229.769531 168.578125 229.605469 C 168.410156 229.4375 167.449219 230.507812 166.433594 231.980469 C 165.421875 233.449219 164.53125 234.652344 164.457031 234.652344 C 164.382812 234.652344 164.496094 232.472656 164.703125 229.808594 C 165.050781 225.316406 166.339844 221.449219 168.304688 219 C 169.035156 218.089844 168.90625 218.074219 173.136719 219.621094 M 242.558594 219.710938 C 243.753906 221.148438 243.9375 229.171875 242.921875 235.824219 C 241.441406 245.554688 239.023438 249.050781 234.179688 248.476562 C 231.070312 248.109375 223.117188 244.148438 218.601562 240.726562 C 211.195312 235.109375 211.03125 233.007812 217.902344 231.78125 C 220.160156 231.375 222.332031 230.652344 222.734375 230.171875 C 223.375 229.398438 222.9375 229.339844 219.105469 229.679688 C 216.707031 229.890625 214.417969 230.164062 214.015625 230.289062 C 212.675781 230.710938 213.257812 228.457031 214.890625 226.894531 C 217.679688 224.230469 221.535156 222.875 225.136719 223.300781 C 228.671875 223.714844 235.378906 222.132812 238.652344 220.109375 C 240.960938 218.683594 241.648438 218.613281 242.558594 219.710938 M 111.003906 222.039062 C 110.1875 223.28125 109.878906 223.382812 108.644531 222.824219 C 106.699219 221.9375 106.867188 221.3125 109.132812 221.03125 C 110.179688 220.902344 111.238281 220.753906 111.488281 220.703125 C 111.738281 220.652344 111.519531 221.253906 111.003906 222.039062 M 107.417969 223.925781 C 109.320312 225.496094 110.871094 225.667969 111.902344 224.425781 C 112.464844 223.75 112.898438 223.703125 113.878906 224.203125 C 115.957031 225.261719 119.53125 228.96875 119.53125 230.058594 C 119.53125 231.382812 117.335938 232.898438 115.414062 232.898438 C 112.21875 232.898438 107.195312 228.59375 104.667969 223.695312 C 103.75 221.914062 103.753906 221.832031 104.730469 222.1875 C 105.296875 222.394531 106.507812 223.175781 107.417969 223.925781 M 255.75 233.726562 C 256.300781 235.308594 257.410156 237.597656 258.214844 238.808594 C 259.082031 240.117188 259.535156 241.449219 259.332031 242.085938 C 259.144531 242.679688 257.394531 245.132812 255.441406 247.539062 C 253.488281 249.945312 250.359375 253.894531 248.484375 256.316406 C 244.832031 261.03125 228.082031 279.875 227.253906 280.199219 C 226.980469 280.304688 226.753906 279.515625 226.753906 278.441406 C 226.742188 274.160156 220.664062 251.953125 217.460938 244.488281 L 216.292969 241.773438 L 220.019531 244.371094 C 227.105469 249.320312 235.464844 251.789062 238.902344 249.953125 C 241.113281 248.773438 243.179688 244.40625 244.402344 238.335938 C 245.058594 235.066406 246.042969 231.976562 246.695312 231.140625 C 247.324219 230.335938 249.226562 227.859375 250.921875 225.636719 L 254.003906 221.59375 L 254.375 226.222656 C 254.578125 228.765625 255.199219 232.144531 255.75 233.726562 M 207.859375 226.191406 C 209.046875 226.6875 210.21875 227.410156 210.46875 227.800781 C 211.117188 228.820312 211.039062 233.136719 210.339844 234.976562 C 209.765625 236.480469 209.59375 236.535156 206.289062 236.296875 C 201.601562 235.960938 200.976562 235.324219 200.984375 230.925781 C 200.996094 227.15625 201.292969 226.265625 202.734375 225.71875 C 204.261719 225.136719 205.636719 225.261719 207.859375 226.191406 M 274.007812 241.089844 C 274.589844 242.214844 275.171875 243.363281 275.296875 243.636719 C 275.421875 243.910156 274.886719 243.714844 274.105469 243.203125 C 272.847656 242.378906 270.117188 238.355469 270.117188 237.324219 C 270.117188 236.394531 273.046875 239.230469 274.007812 241.089844 M 201.375 239.480469 C 201.203125 240.207031 200.238281 245.011719 199.230469 250.160156 C 198.21875 255.308594 196.472656 263.734375 195.34375 268.886719 C 194.214844 274.035156 192.863281 280.554688 192.339844 283.367188 C 191.472656 288.042969 191.273438 288.488281 190.042969 288.488281 C 189.03125 288.488281 188.039062 287.503906 186.058594 284.539062 C 184.605469 282.367188 182.375 279.824219 181.09375 278.886719 C 177.300781 276.117188 176.851562 277.835938 186.539062 258.0625 C 190.082031 250.820312 195.691406 241.6875 198.015625 239.367188 C 198.675781 238.703125 199.773438 238.164062 200.453125 238.164062 C 201.4375 238.164062 201.625 238.433594 201.375 239.480469 M 212.84375 239.671875 C 214.265625 241.304688 216.742188 247.761719 220.347656 259.226562 C 223.867188 270.433594 226.167969 282.582031 225.367188 285.761719 C 224.75 288.230469 220.699219 289.367188 212.496094 289.367188 L 205.5625 289.367188 L 204.664062 287.027344 C 203.570312 284.175781 203.589844 281.53125 204.714844 280.410156 C 205.441406 279.683594 205.605469 280.167969 205.96875 284.03125 C 206.242188 286.929688 206.636719 288.488281 207.105469 288.488281 C 207.640625 288.488281 207.917969 285.019531 208.195312 274.882812 C 208.402344 267.402344 208.960938 257.066406 209.441406 251.914062 C 209.917969 246.765625 210.371094 241.566406 210.449219 240.359375 C 210.617188 237.769531 211.074219 237.636719 212.84375 239.671875 M 193.722656 241.820312 C 190.082031 246.308594 184.644531 256.480469 180.035156 267.421875 C 179.261719 269.265625 179.238281 269.207031 177.023438 259.230469 C 174.371094 247.269531 174.25 246.003906 175.683594 245.238281 C 176.339844 244.886719 177.632812 244.601562 178.5625 244.601562 C 180.84375 244.601562 189.414062 242.398438 192.402344 241.042969 C 193.734375 240.441406 194.921875 239.941406 195.046875 239.933594 C 195.167969 239.925781 194.574219 240.773438 193.722656 241.820312 M 64.1875 249.742188 C 64.078125 249.851562 62.148438 249.019531 59.902344 247.886719 C 55.839844 245.847656 55.113281 244.953125 55.082031 241.96875 C 55.070312 241.070312 56.160156 241.820312 59.730469 245.167969 C 62.292969 247.570312 64.300781 249.628906 64.1875 249.742188 M 206.925781 248.0625 C 207.085938 250.316406 206.96875 250.808594 206.398438 250.332031 C 205.5625 249.640625 205.386719 245.1875 206.191406 245.1875 C 206.484375 245.1875 206.8125 246.480469 206.925781 248.0625 M 57.144531 248.855469 C 60.679688 250.554688 65.421875 252.976562 67.675781 254.238281 C 75.683594 258.726562 92.371094 266.714844 98.144531 268.828125 C 107.964844 272.425781 111.058594 273.835938 113.140625 275.679688 L 115.136719 277.445312 L 111.542969 277.132812 C 106.082031 276.65625 88.253906 272.90625 86.039062 271.769531 C 84.960938 271.21875 82.132812 269.488281 79.753906 267.925781 C 77.371094 266.363281 75.128906 265.082031 74.765625 265.082031 C 74.40625 265.082031 72.835938 264.40625 71.277344 263.574219 C 69.71875 262.746094 68.335938 262.179688 68.199219 262.316406 C 68.066406 262.449219 69.6875 263.4375 71.800781 264.507812 C 73.914062 265.582031 77.121094 267.601562 78.917969 268.996094 C 84.070312 272.988281 89.730469 275.480469 96.625 276.785156 C 104.90625 278.347656 104.566406 278.179688 104.746094 280.800781 C 104.890625 282.925781 104.78125 283.097656 103.0625 283.441406 C 98.128906 284.425781 90.371094 283.816406 82.433594 281.820312 C 66.3125 277.761719 56.554688 273.390625 49.964844 267.265625 C 41.613281 259.507812 39.316406 258.183594 31.972656 256.910156 C 26.164062 255.898438 24.066406 256.136719 19.773438 258.296875 C 17.601562 259.390625 15.820312 260.039062 15.820312 259.738281 C 15.820312 258.609375 21.085938 254.132812 24.6875 252.191406 C 28.007812 250.402344 28.933594 250.175781 33.105469 250.132812 C 36.90625 250.09375 38.210938 249.828125 40.003906 248.738281 C 42.65625 247.128906 46.507812 245.863281 48.941406 245.8125 C 49.941406 245.789062 53.503906 247.113281 57.144531 248.855469 M 155.027344 250.527344 L 154.136719 252.5 L 154.425781 250.160156 C 154.585938 248.871094 154.902344 247.292969 155.128906 246.648438 C 155.496094 245.605469 155.558594 245.644531 155.730469 247.015625 C 155.835938 247.859375 155.519531 249.4375 155.027344 250.527344 M 268.945312 249.058594 C 268.945312 249.910156 264.804688 256.113281 257.859375 265.667969 C 253.03125 272.3125 248.144531 278 240.648438 285.710938 C 237.042969 289.417969 236.652344 289.65625 234.273438 289.617188 C 228.808594 289.53125 228.824219 289.496094 238.269531 279.628906 C 248.175781 269.28125 255.039062 260.722656 259.5625 253.085938 C 264.128906 245.378906 263.953125 245.527344 266.683594 247.058594 C 267.929688 247.757812 268.945312 248.65625 268.945312 249.058594 M 169.367188 248.554688 L 168.097656 249.582031 L 170.476562 258.941406 C 171.785156 264.089844 173.601562 269.8125 174.511719 271.664062 C 175.421875 273.515625 175.917969 275.03125 175.609375 275.03125 C 174.53125 275.03125 168.105469 270.804688 167.285156 269.554688 C 166.335938 268.101562 162.289062 252.144531 162.703125 251.464844 C 163.015625 250.945312 169.378906 247.597656 170.132812 247.554688 C 170.410156 247.539062 170.066406 247.988281 169.367188 248.554688 M 120.835938 249.417969 C 120.105469 249.769531 119.351562 250.738281 119.167969 251.574219 C 118.980469 252.40625 118.53125 254.140625 118.164062 255.425781 L 117.5 257.765625 L 117.316406 255.394531 C 117.078125 252.339844 117.992188 249.976562 119.667969 249.304688 C 121.535156 248.554688 122.445312 248.644531 120.835938 249.417969 M 115.882812 253.523438 C 115.292969 256.785156 114.585938 258.058594 113.371094 258.058594 C 112.417969 258.058594 111.914062 256.734375 111.914062 254.242188 C 111.914062 252.1875 113.546875 250.453125 115.480469 250.453125 C 116.320312 250.453125 116.371094 250.839844 115.882812 253.523438 M 72.398438 253.46875 C 76.644531 256.011719 79.535156 258.058594 78.871094 258.058594 C 78.410156 258.058594 73.085938 255.371094 68.554688 252.851562 C 65.882812 251.367188 65.589844 251.058594 66.832031 251.046875 C 67.660156 251.042969 70.164062 252.132812 72.398438 253.46875 M 137.46875 260.625 C 136.242188 263.554688 131.5 270.832031 129.285156 273.1875 C 128.273438 274.261719 125.992188 275.824219 124.21875 276.652344 C 121.394531 277.972656 121.175781 278.191406 122.460938 278.40625 C 124.265625 278.710938 125.492188 279.660156 125.035156 280.398438 C 124.644531 281.027344 121.367188 280.460938 120.265625 279.570312 C 118.742188 278.351562 119.578125 276.769531 123.277344 273.867188 C 126.714844 271.167969 131.324219 266.023438 134.78125 261.027344 C 135.542969 259.921875 135.785156 259.238281 135.320312 259.503906 C 134.738281 259.835938 134.65625 259.796875 135.058594 259.375 C 135.605469 258.800781 137.761719 258.125 138.167969 258.398438 C 138.269531 258.464844 137.953125 259.464844 137.46875 260.625 M 38.324219 260.632812 C 39.402344 261.082031 42.707031 263.582031 45.667969 266.1875 C 55.296875 274.667969 59.078125 276.617188 77.09375 282.398438 L 87.597656 285.769531 L 95.800781 285.652344 C 102.679688 285.550781 104.121094 285.375 104.734375 284.558594 C 105.3125 283.792969 105.46875 283.765625 105.460938 284.425781 C 105.441406 286.316406 104.710938 287.804688 103.511719 288.382812 C 102.4375 288.902344 102.667969 289 105.054688 289.035156 L 107.859375 289.074219 L 107.472656 284.539062 C 107.152344 280.816406 107.21875 280.132812 107.847656 280.726562 C 108.269531 281.125 108.730469 283.054688 108.875 285.015625 C 109.089844 287.976562 109.34375 288.664062 110.375 289.0625 C 111.0625 289.328125 97.335938 289.511719 79.878906 289.472656 C 62.421875 289.429688 48.265625 289.195312 48.421875 288.941406 C 48.574219 288.691406 48.304688 288.488281 47.824219 288.488281 C 47.339844 288.488281 45.769531 286.976562 44.335938 285.125 C 41.617188 281.609375 34.542969 274.625 31.105469 272.0625 L 29.101562 270.566406 L 31.921875 268.265625 C 33.46875 266.996094 35.425781 265.347656 36.265625 264.597656 L 37.792969 263.234375 L 35.253906 264.585938 C 33.855469 265.328125 31.707031 266.863281 30.480469 267.996094 C 27.925781 270.351562 28.066406 270.324219 24.757812 269.230469 C 22.460938 268.46875 21.390625 267.421875 22.910156 267.421875 C 23.265625 267.421875 24.914062 266.199219 26.574219 264.703125 C 32.101562 259.714844 34.300781 258.953125 38.324219 260.632812 M 123.679688 261.773438 C 126.53125 263.121094 127.179688 263.222656 129.226562 262.667969 C 130.5 262.320312 131.933594 261.734375 132.414062 261.363281 C 132.894531 260.996094 131.574219 262.636719 129.484375 265.015625 C 127.394531 267.390625 124.503906 270.238281 123.058594 271.339844 L 120.4375 273.347656 L 119.488281 269.652344 C 118.054688 264.070312 117.394531 262.824219 115.144531 261.5 C 114.011719 260.832031 113.085938 260.144531 113.085938 259.96875 C 113.085938 259.09375 120.78125 260.402344 123.679688 261.773438 M 152.796875 261.425781 C 152.300781 261.988281 151.714844 263.050781 151.488281 263.78125 C 151.265625 264.515625 149.785156 266.730469 148.195312 268.707031 C 145.335938 272.265625 144.816406 273.273438 145.84375 273.273438 C 147.0625 273.273438 152.386719 268.429688 154.484375 265.414062 C 155.722656 263.628906 157.011719 262.167969 157.34375 262.164062 C 158.296875 262.152344 159.960938 265.382812 159.960938 267.246094 C 159.960938 269.648438 156.742188 272.492188 150 276.050781 C 142.433594 280.042969 134.4375 281.824219 132.386719 279.96875 C 131.761719 279.40625 131.25 278.742188 131.25 278.492188 C 131.25 278.242188 132.894531 277.042969 134.902344 275.824219 C 139.539062 273.011719 142.339844 270.480469 146.296875 265.535156 C 149.125 261.992188 150.308594 261.15625 153.460938 260.453125 C 153.589844 260.425781 153.292969 260.863281 152.796875 261.425781 M 134.472656 272.6875 C 133.890625 273.332031 133.125 273.851562 132.769531 273.839844 C 132.417969 273.828125 132.75 273.300781 133.511719 272.671875 C 135.300781 271.179688 135.828125 271.191406 134.472656 272.6875 M 166.394531 272.734375 C 169.945312 274.34375 177.960938 279.097656 178.777344 280.085938 C 180.214844 281.8125 177.238281 280.800781 170.800781 277.371094 C 167.175781 275.441406 163.847656 273.859375 163.402344 273.863281 C 162.339844 273.863281 165.492188 275.761719 171.863281 278.953125 C 174.703125 280.378906 176.941406 281.722656 176.839844 281.941406 C 176.738281 282.164062 175.933594 283.707031 175.058594 285.371094 C 173.902344 287.566406 173.660156 288.492188 174.183594 288.738281 C 174.578125 288.925781 174.183594 288.984375 173.308594 288.867188 C 172.433594 288.753906 171.863281 288.898438 172.042969 289.191406 C 172.421875 289.800781 135.667969 289.585938 135.054688 288.972656 C 134.582031 288.5 133.464844 283.742188 133.757812 283.449219 C 133.871094 283.335938 136.054688 282.847656 138.613281 282.363281 C 143.589844 281.417969 152.742188 277.351562 158.296875 273.613281 C 161.878906 271.203125 162.796875 271.105469 166.394531 272.734375 M 22.964844 282.441406 C 22.902344 284.429688 22.699219 286.535156 22.515625 287.125 C 22.199219 288.125 22.222656 288.128906 22.835938 287.175781 C 23.210938 286.59375 23.402344 284.574219 23.285156 282.492188 L 23.078125 278.832031 L 22.964844 282.441406 M 114.550781 280.957031 C 111.664062 282.269531 110.964844 282.300781 110.523438 281.152344 C 110.066406 279.964844 111.933594 279.292969 114.730469 279.632812 L 116.894531 279.894531 L 114.550781 280.957031 M 123.046875 282.824219 C 127.097656 283.699219 127.554688 284.003906 128.027344 286.152344 C 128.691406 289.164062 127.710938 289.539062 119.40625 289.445312 C 115.351562 289.402344 112.152344 289.167969 112.300781 288.929688 C 112.449219 288.6875 112.128906 288.488281 111.589844 288.488281 C 110.777344 288.488281 110.679688 288.117188 111.023438 286.292969 C 111.246094 285.089844 111.476562 284.089844 111.527344 284.074219 C 113.40625 283.53125 118.8125 282.195312 119.238281 282.167969 C 119.5625 282.144531 121.273438 282.441406 123.046875 282.824219 M 13.769531 285.5625 C 13.542969 286.894531 13.492188 288.113281 13.652344 288.277344 C 13.8125 288.4375 14.128906 287.480469 14.355469 286.148438 C 14.582031 284.816406 14.632812 283.597656 14.472656 283.4375 C 14.3125 283.273438 13.996094 284.234375 13.769531 285.5625 "/>
</g>
</svg>
