<?xml version="1.0" encoding="UTF-8"?>
<svg xmlns="http://www.w3.org/2000/svg" xmlns:xlink="http://www.w3.org/1999/xlink" width="400px" height="400px" viewBox="0 0 400 389" version="1.1">
<g id="surface1">
<path style=" stroke:none;fill-rule:evenodd;fill:rgb(0%,0%,0%);fill-opacity:1;" d="M 163.808594 4.710938 C 160.03125 7.671875 146.976562 36.613281 143.734375 49.203125 C 142.894531 52.46875 141.675781 60.011719 141.023438 65.964844 C 139.09375 83.59375 137.53125 94.046875 136.304688 97.507812 C 134.777344 101.828125 134.828125 102.121094 137.105469 102.121094 C 138.238281 102.121094 140.328125 100.980469 142.078125 99.398438 L 145.101562 96.675781 L 145.605469 100.371094 C 145.882812 102.40625 146.851562 106.972656 147.757812 110.519531 L 149.402344 116.96875 L 147.601562 123.1875 C 146.613281 126.609375 145.429688 129.40625 144.972656 129.402344 C 144.515625 129.398438 143.144531 128.878906 141.929688 128.246094 C 138.9375 126.6875 126.296875 122.390625 124.710938 122.390625 C 123.003906 122.390625 123.101562 121.417969 124.921875 120.28125 C 127.117188 118.914062 130.304688 111.699219 130.878906 106.800781 C 131.976562 97.378906 125.257812 80.355469 117.792969 73.65625 C 115.621094 71.710938 113.71875 70.242188 113.566406 70.394531 C 113.414062 70.546875 114.316406 72.574219 115.574219 74.898438 C 120.769531 84.492188 123.269531 100.828125 120.828125 109.214844 C 120.136719 111.585938 118.507812 114.992188 117.203125 116.789062 L 114.832031 120.050781 L 102.925781 120.050781 C 83.042969 120.050781 65.070312 124.570312 45.078125 134.597656 C 38.347656 137.972656 22.328125 142.621094 15.367188 143.21875 C 12.367188 143.476562 9.542969 144.160156 8.921875 144.78125 C 7.703125 146 7.464844 149.480469 8.492188 151.097656 C 9.351562 152.449219 14.1875 153.53125 19.484375 153.554688 L 23.734375 153.574219 L 21.121094 156.105469 C 17.847656 159.277344 13.976562 165.25 10.496094 172.496094 L 7.8125 178.085938 L 7.8125 219.199219 C 7.8125 258.09375 7.894531 260.535156 9.34375 264.4375 C 12.246094 272.261719 12.6875 275.644531 13.179688 293.894531 L 13.671875 312.214844 L 17.820312 307.984375 C 20.097656 305.65625 23.085938 301.714844 24.460938 299.222656 C 25.832031 296.730469 27.128906 294.695312 27.34375 294.699219 C 27.558594 294.703125 28.929688 298.46875 30.390625 303.070312 C 31.851562 307.671875 33.515625 312.113281 34.082031 312.945312 C 35.070312 314.386719 35.261719 314.304688 38.230469 311.191406 C 39.941406 309.394531 41.835938 307.925781 42.4375 307.925781 C 43.042969 307.925781 45.957031 309.015625 48.914062 310.34375 C 52.875 312.121094 55.949219 314.363281 60.554688 318.828125 L 66.8125 324.898438 L 62.785156 325.3125 C 60.574219 325.539062 56.292969 326.808594 53.273438 328.128906 C 49.148438 329.9375 46.625 330.53125 43.113281 330.53125 C 39.132812 330.53125 37.394531 331.054688 31.378906 334.058594 C 23.6875 337.902344 20.753906 340.808594 17.929688 347.386719 C 17.03125 349.476562 14.949219 352.945312 13.300781 355.089844 C 8.390625 361.484375 7.8125 363.664062 7.8125 375.726562 L 7.8125 386.429688 L 14.996094 386.9375 C 19.460938 387.253906 22.480469 387.148438 22.964844 386.664062 C 23.742188 385.890625 19.027344 385.457031 13.636719 385.8125 L 11.257812 385.96875 L 11.859375 379.089844 C 12.195312 375.304688 12.988281 370.480469 13.625 368.363281 C 14.265625 366.246094 14.660156 364.390625 14.503906 364.234375 C 14.019531 363.75 11.828125 371.203125 10.773438 376.917969 L 9.765625 382.375 L 9.535156 377.152344 C 9.082031 366.898438 12.632812 358.800781 20.40625 352.34375 C 27.308594 346.613281 31.789062 344.566406 37.429688 344.566406 C 39.996094 344.566406 42.265625 344.84375 42.476562 345.179688 C 42.6875 345.519531 41.113281 346.414062 38.984375 347.171875 C 36.644531 348 33.503906 350.070312 31.058594 352.398438 C 28.320312 355.003906 26.117188 356.398438 24.246094 356.707031 C 19.910156 357.417969 18.828125 358.078125 21.484375 358.390625 C 25.515625 358.863281 26.390625 359.359375 24.789062 360.257812 C 24.027344 360.683594 23.59375 361.335938 23.824219 361.710938 C 24.054688 362.082031 23.847656 362.628906 23.367188 362.929688 C 22.746094 363.3125 22.796875 363.664062 23.550781 364.140625 C 24.296875 364.613281 24.328125 364.8125 23.65625 364.820312 C 22.699219 364.832031 19.835938 373.191406 20.542969 373.898438 C 20.75 374.105469 21.347656 372.480469 21.875 370.289062 C 23.339844 364.199219 23.585938 366.125 22.285156 373.476562 C 21.644531 377.085938 21.144531 380.910156 21.171875 381.984375 C 21.222656 383.933594 22.503906 378.164062 24.09375 368.835938 C 25.078125 363.058594 26.71875 360.15625 29 360.15625 C 29.890625 360.15625 33.378906 361.585938 36.746094 363.335938 C 41.382812 365.742188 44.390625 368.09375 49.105469 372.996094 C 55.621094 379.769531 58.5625 384.15625 57.160156 385.023438 C 56.722656 385.292969 50.246094 385.507812 42.765625 385.503906 C 32.402344 385.496094 29.167969 385.722656 29.167969 386.464844 C 29.167969 387.238281 44.09375 387.441406 101.207031 387.441406 C 164.480469 387.441406 173.367188 387.296875 174.222656 386.265625 C 175.148438 385.152344 173.960938 380.726562 170.703125 373.136719 C 170.144531 371.835938 170.246094 371.796875 171.742188 372.726562 C 173.488281 373.816406 176.5625 380.089844 176.5625 382.5625 C 176.5625 383.367188 177.0625 384.707031 177.671875 385.539062 C 178.730469 386.988281 180.136719 387.058594 210.507812 387.273438 C 230.703125 387.410156 242.722656 387.207031 243.578125 386.710938 C 244.59375 386.121094 243.84375 385.921875 240.523438 385.90625 C 235.183594 385.875 234.03125 384.824219 235.949219 381.730469 L 237.3125 379.53125 L 240.140625 382.007812 C 243.214844 384.699219 243.835938 384.304688 241.40625 381.203125 C 240.566406 380.132812 239.871094 378.265625 239.859375 377.050781 L 239.84375 374.847656 L 242.089844 376.664062 C 243.324219 377.660156 245.621094 380.511719 247.195312 383 L 250.054688 387.519531 L 254.113281 387.285156 C 258.140625 387.050781 258.171875 387.03125 258.355469 384.324219 C 258.726562 378.953125 263.859375 352.660156 264.421875 353.257812 C 264.566406 353.40625 264.300781 360.804688 263.839844 369.695312 C 263.375 378.582031 263.242188 386.101562 263.542969 386.402344 C 265.015625 387.875 265.488281 383.691406 266.292969 362.105469 C 267.136719 339.472656 268.003906 331.628906 270.710938 322.246094 C 271.679688 318.886719 272.210938 318.179688 274.015625 317.832031 C 276.582031 317.34375 277.316406 318.265625 277.332031 321.988281 C 277.34375 324.484375 277.140625 324.746094 275.210938 324.714844 C 273.425781 324.691406 272.917969 325.167969 272.105469 327.609375 C 270.957031 331.070312 271.878906 334.375 274.160156 334.96875 C 276.320312 335.53125 276.578125 337.625 275.765625 348.074219 C 275.363281 353.21875 275.027344 360.109375 275.019531 363.390625 C 275 369.15625 274.910156 369.445312 272.265625 372.082031 C 269.082031 375.261719 268.6875 378.367188 271.085938 381.40625 C 271.941406 382.492188 272.765625 384.207031 272.921875 385.214844 L 273.203125 387.050781 L 332.109375 387.257812 C 386.839844 387.445312 391.085938 387.367188 391.992188 386.132812 C 392.757812 385.089844 392.96875 368.511719 392.96875 309.488281 L 392.96875 234.175781 L 390.703125 231.097656 C 383.398438 221.179688 371.839844 193.824219 364.367188 168.773438 L 361.347656 158.640625 L 361.511719 143.242188 C 361.601562 134.777344 361.378906 127.847656 361.015625 127.847656 C 358.976562 127.847656 358.59375 170.085938 360.527344 181.960938 C 361.746094 189.453125 363.859375 197.125 363.980469 194.5 C 364.019531 193.640625 363.53125 189.082031 362.898438 184.367188 C 362.265625 179.648438 361.765625 173.859375 361.785156 171.503906 L 361.824219 167.214844 L 364.441406 176.179688 C 369.726562 194.273438 379.921875 218.746094 386.101562 228.195312 C 389.597656 233.539062 389.722656 233.886719 387.566406 232.199219 C 385.546875 230.625 374.660156 216.589844 372.265625 212.480469 C 371.71875 211.542969 371.46875 214.855469 371.433594 223.480469 C 371.378906 236.523438 370.132812 243.285156 365.570312 255.304688 C 363.878906 259.757812 363.765625 259.878906 363.203125 257.804688 C 362.878906 256.605469 362.367188 251.261719 362.0625 245.933594 C 361.710938 239.796875 361.222656 236.421875 360.726562 236.726562 C 359.617188 237.410156 360.570312 257.171875 362.027344 263.699219 C 363.617188 270.820312 366.8125 277.699219 371.25 283.566406 C 373.277344 286.246094 374.753906 288.4375 374.527344 288.4375 C 372.050781 288.4375 359.34375 278.121094 356.320312 273.652344 C 354.855469 271.488281 353.484375 269.886719 353.277344 270.097656 C 353.066406 270.304688 353.785156 272.5 354.871094 274.972656 C 356.328125 278.28125 356.972656 281.429688 357.324219 286.878906 C 358 297.445312 360.78125 306.453125 365.636719 313.773438 C 369.09375 318.992188 369.160156 319.304688 366.367188 317.222656 C 364.882812 316.121094 362.484375 314.367188 361.03125 313.328125 C 359.578125 312.285156 357.351562 309.855469 356.085938 307.925781 L 353.78125 304.417969 L 354.167969 307.222656 C 354.726562 311.316406 358.566406 319.875 361.742188 324.101562 C 363.566406 326.539062 366.035156 328.5625 369.050781 330.101562 C 371.558594 331.378906 373.222656 332.554688 372.757812 332.707031 C 371.074219 333.269531 363.578125 330.542969 358.710938 327.605469 C 344.71875 319.160156 340.8125 310.25 341.625 288.613281 C 342.066406 276.953125 343.433594 268.480469 347.261719 253.746094 C 348.527344 248.871094 349.410156 243.03125 349.617188 238.15625 C 349.90625 231.425781 349.84375 230.894531 349.167969 234.257812 C 348.734375 236.402344 347.894531 239.734375 347.300781 241.664062 C 346.707031 243.59375 345.988281 246.925781 345.707031 249.070312 C 345.425781 251.214844 344.148438 257 342.871094 261.933594 C 341.597656 266.863281 340.1875 274.582031 339.742188 279.082031 C 339.296875 283.585938 338.773438 288.382812 338.578125 289.75 C 338.367188 291.269531 336.195312 294.828125 332.980469 298.9375 L 327.734375 305.644531 L 327.554688 302.304688 C 327.457031 300.464844 326.96875 296.636719 326.472656 293.792969 L 325.566406 288.625 L 329.605469 283.785156 C 334.167969 278.3125 337.25 272.578125 339.824219 264.777344 C 341.300781 260.296875 341.625 257.359375 341.847656 246.460938 C 341.992188 239.320312 342.132812 232.953125 342.164062 232.308594 C 342.195312 231.664062 342.066406 218.511719 341.878906 203.074219 C 341.691406 187.640625 341.777344 169.574219 342.066406 162.929688 L 342.59375 150.84375 L 343.609375 158.25 C 346.476562 179.214844 347.035156 188.210938 346.515625 205.023438 C 346.226562 214.242188 345.929688 224.066406 345.847656 226.851562 C 345.765625 229.636719 345.917969 233.847656 346.183594 236.207031 L 346.671875 240.492188 L 346.929688 235.425781 C 347.074219 232.640625 347.25 228.078125 347.324219 225.292969 C 347.394531 222.503906 347.722656 213.734375 348.050781 205.804688 C 348.683594 190.421875 348.066406 180.800781 345.167969 160.980469 C 344.289062 154.976562 343.402344 147.960938 343.195312 145.386719 L 342.816406 140.710938 L 345.335938 140.539062 C 349.203125 140.277344 351.375 138.40625 352.609375 134.28125 C 353.21875 132.242188 354.78125 128.472656 356.085938 125.898438 C 362.097656 114.015625 365.3125 102.339844 364.679688 94.707031 C 364.269531 89.757812 360.476562 81.515625 356.675781 77.316406 C 353.191406 73.46875 349.730469 72.21875 343.746094 72.648438 L 339.21875 72.976562 L 338.304688 65.527344 C 337.128906 55.90625 336.484375 53.453125 332.664062 44.046875 C 328.65625 34.171875 325.691406 28.273438 321.398438 21.632812 C 315.371094 12.304688 307.25 4.675781 303.339844 4.675781 C 301.679688 4.675781 301.914062 5.027344 305.214844 7.476562 C 313.175781 13.382812 320.59375 23.519531 327.390625 37.765625 C 333.214844 49.96875 334.273438 53.257812 335.59375 63.277344 C 337.898438 80.707031 338.4375 99.683594 338.828125 176.570312 C 339.21875 254.738281 339.210938 255.355469 337.570312 262.230469 C 336.660156 266.042969 334.824219 271.203125 333.492188 273.699219 C 330.242188 279.777344 323.832031 286.671875 318.394531 289.929688 C 314.4375 292.300781 312.257812 293.089844 304.574219 294.941406 L 302.507812 295.441406 L 304.8125 292.980469 C 309.667969 287.792969 313.773438 278.34375 315.652344 268.03125 C 316.578125 262.9375 316.792969 237.625 315.9375 234.230469 C 315.671875 233.171875 315.175781 232.308594 314.832031 232.308594 C 314.488281 232.308594 313.085938 235.027344 311.710938 238.351562 C 305.429688 253.542969 294.824219 267.207031 283.019531 275.308594 C 281.1875 276.566406 279.6875 277.308594 279.6875 276.953125 C 279.6875 276.597656 282.136719 272.988281 285.128906 268.929688 C 296.863281 253.011719 304.558594 233.910156 306.941406 214.769531 C 308.246094 204.289062 308.800781 178.035156 307.929688 167.824219 C 307.1875 159.117188 307.28125 157.347656 309.003906 147.210938 C 310.59375 137.878906 310.882812 131.539062 309.671875 132.75 C 309.285156 133.136719 302.28125 170.128906 299.917969 184.28125 C 298.570312 192.355469 299.429688 203.40625 301.976562 210.753906 C 304.019531 216.648438 304.0625 217.089844 303.113281 222.644531 C 302.175781 228.089844 300.785156 230.480469 300.777344 226.65625 C 300.773438 225.691406 299.71875 221.261719 298.433594 216.8125 C 294.023438 201.554688 293.382812 195.429688 293.425781 168.773438 C 293.464844 143.789062 294.402344 130.542969 297.785156 107.1875 C 299.671875 94.136719 300.664062 68.171875 299.324219 66.835938 C 298.664062 66.175781 298.4375 68.257812 298.4375 75.027344 C 298.4375 80.015625 298.148438 84.277344 297.796875 84.496094 C 297.445312 84.710938 296.589844 82.523438 295.894531 79.632812 C 294.195312 72.574219 291.695312 66.058594 289.722656 63.558594 C 288.832031 62.429688 287.980469 61.625 287.835938 61.769531 C 287.6875 61.917969 288.589844 64.992188 289.84375 68.601562 C 291.097656 72.210938 291.996094 75.289062 291.84375 75.441406 C 290.863281 76.417969 269.964844 63.558594 266.640625 59.933594 C 264.535156 57.640625 262.433594 52.976562 254.914062 33.910156 C 248.988281 18.898438 244.429688 9.269531 243.9375 10.742188 C 243.671875 11.53125 255.398438 42.792969 257.5 46.898438 C 258.082031 48.039062 259.292969 50.84375 260.191406 53.132812 C 262.414062 58.808594 260.96875 57.21875 244.355469 35.691406 C 242.132812 32.808594 240.1875 30.578125 240.03125 30.734375 C 239.265625 31.5 242.628906 37.105469 248.480469 44.824219 C 264.710938 66.21875 279.554688 81.894531 289.933594 88.59375 C 295.296875 92.050781 296.59375 93.867188 295.703125 96.664062 C 295.085938 98.609375 294.238281 98.605469 283.90625 96.613281 C 271.042969 94.136719 261.570312 90.144531 251.160156 82.8125 C 238.167969 73.660156 225.175781 56.632812 221.863281 44.410156 C 220.371094 38.894531 216.410156 14.757812 216.40625 11.15625 C 216.40625 9.359375 216.054688 7.671875 215.625 7.40625 C 214.148438 6.496094 214.816406 16.699219 217.15625 30.839844 C 219.652344 45.910156 225.816406 68.765625 231.195312 82.878906 C 237.199219 98.628906 234.710938 95.96875 224.410156 75.617188 C 219.660156 66.234375 215.417969 56.535156 213.328125 50.28125 C 209.515625 38.882812 208.253906 36.171875 208.976562 40.925781 C 210.769531 52.75 222.652344 79.351562 233.136719 95.003906 C 242.546875 109.0625 247.1875 114.316406 258.09375 123.257812 C 259.15625 124.128906 245.464844 120.125 240.5 118.113281 C 233.933594 115.449219 224.792969 108.847656 219.179688 102.710938 C 210.972656 93.738281 201.179688 75.992188 196.21875 61.105469 C 192.3125 49.386719 191.25 42.339844 190.707031 24.554688 C 190.164062 6.742188 189.726562 6.300781 187.121094 20.921875 C 186.535156 24.207031 184.757812 30.226562 183.171875 34.300781 C 181.582031 38.375 178.753906 47.789062 176.878906 55.222656 C 171.546875 76.390625 170.097656 95.589844 172.617188 111.644531 C 172.964844 113.859375 172.90625 115.140625 172.46875 114.871094 C 170.398438 113.59375 164.769531 104.628906 163.363281 100.367188 C 161.191406 93.800781 159.917969 82.066406 160.910156 77.773438 C 161.738281 74.195312 161.980469 69.640625 161.308594 70.3125 C 161.082031 70.535156 160.203125 72.691406 159.351562 75.101562 C 156.636719 82.8125 155.15625 95.160156 155.117188 110.429688 C 155.09375 118.210938 154.828125 124.425781 154.519531 124.234375 C 153.59375 123.664062 149.339844 109.667969 148.476562 104.355469 C 147.429688 97.933594 147.441406 85.359375 148.503906 74.070312 C 149.359375 64.945312 151.902344 55.421875 155.9375 46.242188 C 159.496094 38.152344 167.4375 26.285156 173.632812 19.808594 C 179.933594 13.21875 180.898438 11.773438 177.929688 13.355469 C 174.015625 15.445312 166.914062 23.28125 161.683594 31.289062 C 150.59375 48.261719 145.3125 65.78125 145.3125 85.613281 L 145.3125 92.144531 L 140.535156 96.9375 C 136.496094 100.992188 136.011719 101.300781 137.390625 98.945312 C 139.316406 95.652344 141.09375 88.289062 141.796875 80.683594 C 143.011719 67.574219 144.722656 54.609375 145.8125 50.28125 C 147.441406 43.808594 155.8125 23.101562 158.835938 18.066406 C 160.207031 15.78125 163.496094 11.835938 166.144531 9.296875 C 169.992188 5.605469 171.480469 4.667969 173.566406 4.621094 C 175.730469 4.578125 175.90625 4.453125 174.609375 3.898438 C 171.585938 2.601562 165.953125 3.023438 163.808594 4.710938 M 354.6875 3.855469 C 353.734375 4.503906 353.867188 4.65625 355.390625 4.664062 C 357.726562 4.679688 363.347656 10.457031 366.566406 16.144531 C 370.480469 23.066406 377.074219 28.226562 387.695312 32.6875 C 390.523438 33.875 391.425781 34.667969 391.484375 36.027344 C 391.558594 37.757812 391.578125 37.753906 392.144531 35.859375 C 392.996094 32.996094 391.929688 31.585938 387.730469 30.039062 C 378.054688 26.46875 372.285156 21.601562 367.941406 13.34375 C 363.523438 4.9375 362.535156 3.851562 358.941406 3.421875 C 357.246094 3.21875 355.332031 3.414062 354.6875 3.855469 M 258.59375 19.996094 C 258.59375 21.058594 263.773438 29.464844 267.761719 34.878906 C 269.582031 37.347656 274.378906 42.875 278.421875 47.164062 C 284.527344 53.644531 285.699219 54.585938 285.359375 52.757812 C 285.109375 51.410156 282.226562 47.636719 277.910156 43.015625 C 274.039062 38.863281 268.238281 31.960938 265.023438 27.675781 C 258.117188 18.46875 258.59375 19.035156 258.59375 19.996094 M 187.5 34.734375 C 187.5 41.695312 195.335938 67.117188 200.921875 78.28125 C 215.484375 107.382812 231.292969 120.886719 254.433594 123.988281 C 257.796875 124.441406 261.25 124.984375 262.109375 125.195312 C 263.75 125.601562 263.386719 125.230469 252.878906 115.820312 C 247.398438 110.914062 246.585938 109.71875 247.265625 107.578125 C 248.050781 105.113281 258.828125 101.738281 272.207031 99.769531 C 278.503906 98.839844 292.542969 99.335938 294.523438 100.558594 C 295.6875 101.277344 295.527344 103.949219 292.957031 126.679688 C 291.683594 137.957031 291.210938 147.625 290.988281 167.214844 L 290.695312 192.941406 L 287.730469 195.554688 C 282.292969 200.34375 275.425781 204.875 265.90625 209.941406 C 251.0625 217.84375 244.761719 219.679688 240.378906 217.378906 C 237.207031 215.71875 198.730469 176.613281 195.386719 171.65625 C 190.914062 165.023438 190.257812 163.269531 186.640625 148.246094 C 184.917969 141.101562 183.308594 134.550781 183.058594 133.695312 C 182.609375 132.15625 182.628906 132.15625 184.269531 133.621094 C 186.621094 135.714844 186.34375 134.703125 183.441406 130.59375 L 180.945312 127.0625 L 182.6875 121.664062 C 183.945312 117.769531 185.171875 115.617188 187.101562 113.925781 C 191.335938 110.214844 198.964844 109.707031 202.757812 112.878906 C 205.28125 114.992188 207.378906 120.109375 207.402344 124.214844 C 207.429688 129.195312 205.105469 131.339844 200.382812 130.695312 C 198.648438 130.457031 196.773438 130.546875 196.21875 130.890625 C 194.558594 131.914062 199.625 133.570312 202.828125 133.050781 C 209.214844 132.015625 211.179688 128.1875 209.402344 120.25 C 208.609375 116.726562 208.625 115.835938 209.476562 115.3125 C 211.15625 114.277344 207.996094 110.777344 203.09375 108.253906 C 197.871094 105.5625 191.664062 105.25 187.488281 107.464844 C 184.363281 109.125 180.765625 113.90625 180.066406 117.324219 C 179.804688 118.609375 179.199219 120.675781 178.71875 121.914062 C 177.878906 124.082031 177.796875 123.960938 176.457031 118.40625 C 175.691406 115.238281 175.050781 110.289062 175.03125 107.410156 C 175.003906 102.6875 175.226562 101.917969 177.335938 99.523438 C 180.1875 96.28125 188.546875 91.792969 195.128906 89.964844 C 197.808594 89.222656 200 88.347656 200 88.019531 C 200 86.988281 195.949219 84.191406 194.457031 84.191406 C 189.429688 84.191406 177.785156 91.238281 176.292969 95.183594 C 174.617188 99.613281 174.003906 97.480469 174.527344 89.066406 C 175.445312 74.296875 176.597656 65.285156 178.582031 57.296875 C 181.074219 47.285156 186.097656 31.960938 186.886719 31.960938 C 187.226562 31.960938 187.5 33.210938 187.5 34.734375 M 391.53125 44.613281 C 391.4375 46.207031 390.894531 46.871094 389.378906 47.25 C 387.351562 47.757812 379.792969 47.222656 376.152344 46.308594 C 373.5625 45.660156 373.707031 46.636719 376.875 51.230469 C 386.453125 65.125 388.730469 76.503906 384.65625 90.148438 C 382.242188 98.246094 381.371094 109.074219 382.796875 113.375 C 383.316406 114.949219 385.464844 118.378906 387.574219 121 C 389.683594 123.621094 391.410156 126.496094 391.417969 127.390625 C 391.429688 128.726562 391.566406 128.808594 392.1875 127.847656 C 393.59375 125.675781 392.980469 123.332031 390.117188 119.929688 C 383.828125 112.457031 382.734375 104.804688 386.378906 93.773438 C 389.078125 85.601562 389.699219 75.457031 387.917969 68.664062 C 386.511719 63.289062 382.953125 55.632812 380.101562 51.839844 L 378.34375 49.503906 L 384.867188 49.777344 C 392.121094 50.082031 392.554688 49.796875 391.976562 45.09375 C 391.703125 42.859375 391.636719 42.792969 391.53125 44.613281 M 228.558594 62.449219 C 230.394531 66.066406 230.515625 67.820312 228.921875 67.820312 C 228.554688 67.820312 227.644531 65.980469 226.902344 63.730469 C 226.160156 61.476562 225.371094 59.140625 225.144531 58.535156 C 224.171875 55.921875 226.734375 58.859375 228.558594 62.449219 M 279.6875 71.839844 C 282.910156 73.757812 286.65625 75.769531 288.007812 76.3125 C 289.363281 76.859375 291.160156 78.0625 292.003906 78.992188 C 293.488281 80.632812 295.757812 87.90625 295.015625 88.648438 C 294.300781 89.359375 283.125 80.449219 275.585938 73.164062 C 267.988281 65.820312 265.242188 61.671875 270.898438 66.074219 C 272.511719 67.328125 276.464844 69.925781 279.6875 71.839844 M 239.484375 76.460938 C 243.957031 81.027344 257.851562 90.585938 262.011719 91.957031 C 265.234375 93.015625 265.761719 94.328125 262.972656 94.328125 C 259.707031 94.328125 250.539062 97.535156 247.136719 99.871094 C 245.335938 101.109375 243.53125 102.121094 243.128906 102.121094 C 241.714844 102.121094 231.25 77.890625 231.25 74.613281 C 231.25 71.066406 235.035156 71.914062 239.484375 76.460938 M 352.734375 77.28125 C 354.269531 78.625 356.972656 82.15625 358.742188 85.128906 C 361.53125 89.816406 362.003906 91.28125 362.289062 96.132812 C 362.6875 102.953125 360.183594 113.441406 355.953125 122.660156 L 353.148438 128.773438 L 351.183594 126.445312 C 350.101562 125.164062 349.21875 123.800781 349.21875 123.421875 C 349.21875 123.039062 350.441406 120.832031 351.9375 118.515625 C 355.027344 113.730469 357.417969 107.273438 356.589844 105.941406 C 356.261719 105.40625 355.65625 106.15625 355.089844 107.796875 C 354.566406 109.3125 353.179688 112.1875 352.003906 114.191406 C 350.074219 117.472656 349.734375 117.71875 348.566406 116.699219 C 346.453125 114.855469 342.1875 112.917969 342.1875 113.804688 C 342.1875 114.25 343.777344 115.386719 345.722656 116.328125 C 348.285156 117.570312 349.121094 118.375 348.761719 119.242188 C 348.492188 119.902344 347.921875 121.636719 347.5 123.09375 C 346.792969 125.546875 346.921875 125.894531 349.148438 127.636719 C 350.476562 128.671875 351.5625 130.207031 351.5625 131.046875 C 351.5625 133.863281 349.320312 137.980469 347.386719 138.714844 C 344.113281 139.957031 342.359375 138.953125 341.773438 135.503906 C 341.175781 131.976562 341.96875 125.28125 342.914062 125.867188 C 343.257812 126.078125 344.203125 125.5 345.011719 124.578125 C 345.820312 123.65625 346.042969 123.160156 345.5 123.476562 C 344.960938 123.792969 343.730469 123.777344 342.765625 123.449219 C 341.199219 122.910156 341.300781 122.800781 343.75 122.421875 C 346.003906 122.074219 346.484375 121.667969 346.484375 120.117188 C 346.484375 119.082031 346.035156 118.140625 345.488281 118.03125 C 344.941406 117.921875 344.851562 118.007812 345.292969 118.226562 C 345.734375 118.445312 346.09375 119.089844 346.09375 119.660156 C 346.09375 120.410156 345.5 120.539062 343.945312 120.125 C 341.234375 119.402344 341.050781 118.089844 340.28125 94.132812 L 339.710938 76.394531 L 341.535156 75.667969 C 342.539062 75.265625 344.839844 74.914062 346.652344 74.886719 C 349.269531 74.847656 350.519531 75.339844 352.734375 77.28125 M 341.144531 82.375 C 340.859375 82.660156 340.652344 83.625 340.6875 84.515625 C 340.71875 85.410156 340.925781 85.703125 341.140625 85.167969 C 341.359375 84.632812 342.746094 84.191406 344.222656 84.191406 C 346.40625 84.191406 347.707031 84.964844 351.1875 88.328125 C 354.535156 91.5625 355.46875 92.132812 355.46875 90.945312 C 355.46875 90.109375 353.761719 87.722656 351.675781 85.640625 C 348.40625 82.378906 347.445312 81.855469 344.773438 81.855469 C 343.066406 81.855469 341.433594 82.085938 341.144531 82.375 M 243.257812 89.15625 C 240.152344 92.253906 238.925781 94.457031 240.429688 94.242188 C 241.558594 94.082031 248.664062 85.75 247.671875 85.75 C 247.121094 85.75 245.132812 87.285156 243.257812 89.15625 M 198.03125 87.242188 C 199.214844 87.707031 198.730469 87.941406 195.984375 88.25 C 192.203125 88.675781 181.871094 93.03125 180.371094 94.832031 C 179.890625 95.410156 179.121094 95.886719 178.664062 95.886719 C 176.871094 95.886719 182.621094 91.035156 187.011719 88.847656 C 191.59375 86.5625 195.007812 86.066406 198.03125 87.242188 M 345.117188 93.402344 C 343.9375 93.539062 342.96875 93.960938 342.96875 94.339844 C 342.96875 94.925781 351.523438 94.5625 352.1875 93.945312 C 352.609375 93.554688 347.324219 93.148438 345.117188 93.402344 M 344.597656 97.773438 C 344.78125 97.953125 346.507812 98.636719 348.441406 99.289062 L 351.953125 100.480469 L 350.109375 98.960938 C 349.09375 98.128906 347.367188 97.445312 346.269531 97.445312 C 345.167969 97.445312 344.417969 97.59375 344.597656 97.773438 M 170.089844 116.082031 C 174.855469 120.929688 176.476562 123.757812 175.441406 125.425781 C 175.175781 125.859375 175.691406 126.605469 176.59375 127.082031 C 178.835938 128.28125 180.890625 133.402344 184.042969 145.671875 C 185.515625 151.402344 186.71875 156.238281 186.71875 156.421875 C 186.71875 156.605469 185.402344 155.378906 183.789062 153.691406 C 181.664062 151.472656 179.464844 150.1875 175.78125 149.019531 C 157.328125 143.167969 151.085938 140.363281 149.375 137.160156 C 148.046875 134.667969 148.59375 126.875 150.382812 122.78125 L 151.746094 119.664062 L 152.566406 122 C 153.019531 123.289062 153.417969 127.136719 153.453125 130.554688 L 153.515625 136.765625 L 156.640625 138.457031 C 158.359375 139.390625 160.644531 140.410156 161.71875 140.730469 C 163.613281 141.289062 163.628906 141.261719 162.304688 139.777344 C 161.550781 138.9375 160.734375 136.535156 160.488281 134.4375 C 160.242188 132.34375 159.851562 130.324219 159.625 129.957031 C 159.089844 129.097656 159.160156 122.257812 159.832031 109.648438 L 160.363281 99.632812 L 162.75 105.339844 C 164.550781 109.636719 166.359375 112.285156 170.089844 116.082031 M 188.28125 101.40625 C 182.707031 103.921875 178.125 109.058594 178.125 112.792969 C 178.125 113.621094 179.242188 112.527344 180.882812 110.097656 C 184.863281 104.199219 188.957031 101.726562 194.671875 101.757812 C 198.71875 101.785156 199.023438 101.679688 197.460938 100.8125 C 194.945312 99.417969 192.304688 99.589844 188.28125 101.40625 M 191.136719 114.460938 C 190.425781 115.246094 189.84375 116.585938 189.84375 117.441406 C 189.84375 119.785156 192.230469 126.289062 193.089844 126.289062 C 193.503906 126.289062 193.660156 125.996094 193.441406 125.640625 C 193.070312 125.042969 197.015625 125.050781 202.636719 125.65625 C 204.046875 125.808594 205.175781 125.4375 205.679688 124.65625 C 207.582031 121.703125 203.714844 115.890625 200.121094 116.304688 C 198.347656 116.511719 198.011719 116.960938 197.808594 119.425781 C 197.621094 121.652344 197.292969 122.203125 196.359375 121.847656 C 195.699219 121.589844 194.859375 121.863281 194.496094 122.445312 C 194.003906 123.238281 193.632812 122.960938 193.011719 121.339844 C 191.292969 116.824219 191.878906 115.722656 196.875 114.09375 L 199.609375 113.199219 L 196.019531 113.117188 C 193.457031 113.058594 192.058594 113.445312 191.136719 114.460938 M 204.703125 122.761719 C 204.160156 123.414062 203.410156 123.949219 203.035156 123.949219 C 202.664062 123.949219 202.953125 123.257812 203.675781 122.414062 C 204.402344 121.570312 205.152344 121.035156 205.34375 121.226562 C 205.535156 121.417969 205.246094 122.109375 204.703125 122.761719 M 157.03125 131.402344 C 157.03125 133.574219 156.726562 134.769531 156.25 134.472656 C 154.90625 133.644531 155.363281 127.847656 156.769531 127.847656 C 156.914062 127.847656 157.03125 129.449219 157.03125 131.402344 M 344.570312 129.332031 C 344.132812 130.148438 343.683594 131.988281 343.566406 133.421875 C 343.375 135.828125 343.535156 136.03125 345.617188 136.03125 C 347.164062 136.03125 348.375 135.367188 349.449219 133.933594 C 350.9375 131.945312 350.949219 131.730469 349.710938 129.839844 C 348.164062 127.488281 345.691406 127.242188 344.570312 129.332031 M 348.4375 130.710938 C 348.4375 132.105469 346.28125 134.863281 345.191406 134.863281 C 344.164062 134.863281 344.410156 133.4375 345.792969 131.328125 C 347.25 129.109375 348.4375 128.828125 348.4375 130.710938 M 203.515625 134.484375 C 199.84375 136.046875 195.921875 137.160156 194.007812 137.175781 C 192.21875 137.191406 190.199219 137.414062 189.523438 137.675781 C 187.066406 138.613281 189.261719 139.542969 193.945312 139.542969 C 198.140625 139.542969 199.394531 139.152344 204.015625 136.410156 C 206.921875 134.6875 209.511719 132.933594 209.773438 132.511719 C 210.390625 131.519531 210.734375 131.410156 203.515625 134.484375 M 51.191406 135.609375 C 50.9375 136.023438 48.628906 137.476562 46.0625 138.839844 C 41.535156 141.25 38.023438 145.214844 29.914062 157.082031 C 27.066406 161.246094 17.203125 180.570312 15.53125 185.261719 C 12.039062 195.058594 10.671875 221.050781 12.890625 235.425781 C 14.316406 244.671875 14.355469 254.117188 12.980469 259.203125 C 11.816406 263.511719 11.933594 263.660156 10.179688 255.695312 C 9.847656 254.195312 9.535156 237.980469 9.480469 219.660156 C 9.375 182.980469 9.542969 181.207031 14.054688 172.28125 C 17.84375 164.785156 20.691406 160.828125 26.769531 154.625 L 32.230469 149.046875 L 27.324219 150.070312 C 19.277344 151.746094 10.9375 150.769531 10.9375 148.152344 C 10.9375 147.011719 11.808594 146.632812 15.429688 146.195312 C 23.078125 145.273438 42.519531 139.488281 48.4375 136.371094 C 51.664062 134.671875 51.796875 134.636719 51.191406 135.609375 M 213.851562 137.59375 C 212.152344 143.421875 209.292969 157.6875 209.640625 158.597656 C 210.230469 160.128906 218.066406 166.214844 218.660156 165.601562 C 218.921875 165.328125 217.421875 163.585938 215.320312 161.734375 C 211.003906 157.929688 211.140625 159.292969 213.652344 145.144531 C 214.828125 138.523438 214.953125 133.816406 213.851562 137.59375 M 376.5625 137.957031 C 376.5625 138.324219 377.703125 139.570312 379.101562 140.726562 C 386.398438 146.769531 391.40625 152.246094 391.457031 154.234375 L 391.503906 156.300781 L 392.253906 154.433594 C 393.320312 151.777344 392.488281 149.667969 389.195312 146.679688 L 386.328125 144.074219 L 389.179688 144.476562 C 391.851562 144.847656 392.050781 144.730469 392.367188 142.574219 C 392.730469 140.097656 391.804688 140.472656 391.183594 143.050781 C 390.878906 144.3125 390.789062 144.230469 390.714844 142.621094 C 390.632812 140.828125 390.363281 140.664062 387.941406 140.945312 C 386.175781 141.152344 383.761719 140.578125 380.910156 139.273438 C 378.519531 138.183594 376.5625 137.589844 376.5625 137.957031 M 148.878906 142.074219 L 151.171875 144.609375 L 148.632812 142.320312 C 146.265625 140.183594 145.734375 139.542969 146.339844 139.542969 C 146.472656 139.542969 147.617188 140.679688 148.878906 142.074219 M 178.367188 153.070312 C 180.464844 153.945312 182.226562 156.0625 186.609375 162.976562 C 189.675781 167.808594 191.984375 171.964844 191.738281 172.210938 C 191.492188 172.457031 190.96875 172.085938 190.574219 171.382812 C 190.179688 170.683594 188.714844 168.710938 187.3125 166.996094 C 185.910156 165.285156 183.246094 161.910156 181.386719 159.496094 C 179.394531 156.902344 176.515625 154.296875 174.355469 153.132812 C 170.980469 151.308594 170.894531 151.191406 173.199219 151.558594 C 174.574219 151.777344 176.898438 152.460938 178.367188 153.070312 M 263.214844 164.109375 C 262.347656 166.230469 248.058594 175.703125 242.722656 177.695312 C 241.511719 178.148438 239.117188 178.519531 237.398438 178.519531 C 235.679688 178.519531 233.53125 178.914062 232.621094 179.398438 C 231.714844 179.882812 229.015625 180.261719 226.621094 180.242188 C 222.671875 180.207031 222.40625 180.304688 223.78125 181.308594 C 225.714844 182.71875 230.285156 182.6875 232.8125 181.246094 C 233.886719 180.632812 236.464844 180.121094 238.542969 180.105469 C 241.683594 180.082031 244.078125 179.152344 252.800781 174.558594 C 260.847656 170.320312 263.390625 168.605469 263.75 167.183594 C 264.234375 165.257812 263.792969 162.707031 263.214844 164.109375 M 305.835938 193.136719 C 305.539062 202.675781 305.011719 210.480469 304.664062 210.480469 C 303.652344 210.480469 301.5625 200.078125 301.5625 195.042969 C 301.5625 190.722656 304.015625 172.382812 305.285156 167.214844 C 306.226562 163.386719 306.445312 173.707031 305.835938 193.136719 M 175.421875 183.578125 C 182.796875 190.90625 191.273438 201.476562 193.707031 206.390625 C 197.773438 214.59375 197.765625 214.496094 197.09375 251.40625 L 196.46875 285.707031 L 193.96875 290.996094 C 192.589844 293.90625 189.265625 298.992188 186.578125 302.300781 C 179.8125 310.632812 167.703125 322.539062 162.210938 326.257812 C 157.871094 329.195312 157.261719 329.378906 150.871094 329.628906 C 147.152344 329.773438 140.089844 329.335938 135.175781 328.65625 C 130.257812 327.972656 124.988281 327.4375 123.46875 327.464844 C 120.972656 327.507812 120.878906 327.585938 122.511719 328.238281 C 123.507812 328.636719 126.40625 330.5625 128.957031 332.519531 C 131.503906 334.476562 136.40625 337.484375 139.84375 339.203125 C 145.914062 342.234375 146.121094 342.429688 147.003906 345.976562 C 147.710938 348.824219 148.917969 350.601562 152.472656 354.015625 C 157.183594 358.542969 157.871094 360.464844 156.542969 365.398438 L 156.078125 367.128906 L 152.84375 364.921875 C 148.226562 361.769531 145.957031 360.714844 136.71875 357.421875 C 126.953125 353.945312 115.929688 348.558594 112.347656 345.519531 C 110.925781 344.316406 107.449219 341.847656 104.621094 340.042969 C 98.3125 336.007812 96.570312 334.15625 95.304688 330.144531 C 94.03125 326.105469 90.714844 320.398438 89.640625 320.398438 C 89.179688 320.398438 88.988281 320.214844 89.214844 319.988281 C 89.441406 319.761719 90.644531 319.976562 91.882812 320.464844 C 95.109375 321.742188 101.5625 323.441406 101.5625 323.019531 C 101.5625 322.820312 98.839844 321.378906 95.507812 319.816406 C 86.777344 315.714844 82.1875 312.832031 77.585938 308.566406 C 75.355469 306.5 73.046875 304.808594 72.453125 304.808594 C 71.863281 304.808594 68.765625 305.5 65.570312 306.347656 C 58.097656 308.332031 51.394531 308.347656 47.074219 306.390625 C 39.175781 302.8125 32.515625 296.867188 26.601562 288.113281 C 17.542969 274.699219 12.953125 261.304688 16.992188 260.054688 C 20.289062 259.039062 32.222656 258.144531 33.921875 258.789062 C 35.351562 259.332031 37.5 262.925781 37.5 264.777344 C 37.5 264.925781 35.117188 265.050781 32.207031 265.050781 C 24.035156 265.050781 21.828125 267.414062 24.703125 273.078125 C 27.59375 278.769531 28.902344 279.203125 35.9375 276.777344 C 39.761719 275.457031 39.960938 275.289062 37.746094 275.238281 C 36.378906 275.210938 34.308594 275.542969 33.152344 275.984375 C 30.195312 277.105469 28.613281 276.378906 27.09375 273.199219 C 25.53125 269.929688 25.40625 267.484375 26.777344 266.957031 C 27.324219 266.75 30.203125 266.847656 33.175781 267.179688 L 38.578125 267.777344 L 42.738281 273.191406 C 45.027344 276.167969 48.125 279.722656 49.621094 281.09375 C 51.863281 283.140625 52.332031 284.109375 52.285156 286.59375 C 52.253906 288.25 51.613281 290.660156 50.859375 291.945312 C 49.761719 293.824219 48.886719 294.328125 46.425781 294.507812 C 43.890625 294.695312 42.421875 294.117188 37.960938 291.191406 C 34.992188 289.242188 32.355469 287.859375 32.101562 288.117188 C 31.421875 288.816406 37.820312 294.277344 41.179688 295.867188 C 45.421875 297.878906 50.253906 298.183594 55.328125 296.765625 C 57.769531 296.082031 60.730469 295.328125 61.914062 295.085938 C 63.097656 294.839844 64.0625 294.179688 64.0625 293.613281 C 64.0625 292.535156 60.890625 290.777344 58.949219 290.777344 C 56.71875 290.777344 54.6875 287.785156 54.6875 284.5 C 54.6875 281.140625 53.269531 277.699219 51.167969 275.960938 C 49.394531 274.492188 46.894531 269.4375 45.214844 263.921875 C 43.589844 258.59375 43.859375 257.457031 45.875 261.160156 C 49.214844 267.300781 55 275.332031 57.828125 277.746094 C 64.015625 283.03125 74 286.578125 76.28125 284.300781 C 77.039062 283.546875 75.863281 279.65625 72.28125 271.0625 C 70.710938 267.296875 69.25 262.914062 69.035156 261.320312 C 68.695312 258.8125 69.0625 259.246094 71.785156 264.582031 C 73.515625 267.96875 75.914062 271.785156 77.113281 273.0625 C 83.097656 279.425781 91.882812 284.601562 87.128906 278.960938 C 83.875 275.105469 79.859375 266.503906 76.117188 255.390625 C 71.628906 242.0625 71.640625 240.632812 76.246094 236.171875 C 80.550781 232.007812 85.621094 224.800781 87.070312 220.792969 C 87.644531 219.195312 89.179688 215.777344 90.472656 213.199219 C 91.769531 210.621094 93.628906 206.0625 94.609375 203.066406 L 96.390625 197.617188 L 96.992188 200.347656 C 97.324219 201.847656 97.832031 205.757812 98.121094 209.035156 L 98.648438 214.992188 L 95.222656 216.519531 C 93.339844 217.363281 91.109375 218.820312 90.269531 219.765625 C 88.890625 221.316406 89.21875 221.253906 93.71875 219.132812 C 98.980469 216.648438 100 216.648438 100 219.121094 C 100 220.128906 98.734375 221.382812 96.320312 222.777344 C 90.371094 226.210938 84.996094 231.742188 81.4375 238.089844 C 79.617188 241.34375 78.125 244.378906 78.125 244.839844 C 78.125 245.691406 83.464844 254.851562 85.554688 257.585938 C 87.792969 260.515625 87.589844 258.105469 85.21875 253.621094 C 83.898438 251.117188 82.816406 248.269531 82.8125 247.289062 C 82.808594 242.757812 88.417969 234.136719 93.878906 230.269531 C 97.359375 227.808594 102.769531 225.535156 101.933594 226.882812 C 101.195312 228.074219 102.480469 227.75 104.019531 226.359375 C 105.855469 224.703125 112.429688 224.816406 115.832031 226.5625 C 117.222656 227.277344 119.90625 229.214844 121.800781 230.875 C 123.691406 232.53125 125.402344 233.726562 125.601562 233.527344 C 126.359375 232.769531 122.292969 227.378906 119.367188 225.265625 C 117.679688 224.042969 114.039062 222.292969 111.273438 221.375 C 106.976562 219.949219 106.25 219.441406 106.25 217.859375 C 106.25 216.035156 106.300781 216.023438 109.355469 217.101562 C 111.0625 217.703125 113.769531 219.078125 115.367188 220.164062 C 116.964844 221.246094 118.4375 221.964844 118.644531 221.761719 C 119.441406 220.964844 115.285156 217.542969 111.601562 215.960938 C 107.441406 214.175781 106.605469 213.058594 107.316406 210.230469 C 107.726562 208.601562 108.488281 208.328125 115.113281 207.417969 C 119.148438 206.867188 123.1875 206.644531 124.082031 206.929688 C 124.976562 207.214844 127.332031 209.242188 129.3125 211.441406 L 132.914062 215.4375 L 132.421875 229.78125 L 136.71875 227.902344 C 139.082031 226.871094 141.9375 225.355469 143.066406 224.539062 C 144.222656 223.699219 145.804688 223.226562 146.6875 223.457031 C 150.800781 224.53125 157.8125 217.101562 161.679688 207.574219 C 163.714844 202.558594 164.011719 202.226562 167.652344 200.882812 C 169.761719 200.105469 172.011719 198.945312 172.65625 198.304688 C 173.886719 197.078125 173.488281 196.605469 166.808594 191.382812 C 165.109375 190.054688 164.695312 188.855469 164.007812 183.273438 C 163.566406 179.667969 162.691406 175.503906 162.070312 174.015625 C 161.445312 172.53125 160.9375 171.144531 160.9375 170.941406 C 160.9375 170.332031 170.347656 178.542969 175.421875 183.578125 M 344.125 199.175781 C 344.113281 216.917969 344.308594 223.089844 344.753906 219.054688 C 345.578125 211.636719 345.582031 184.296875 344.761719 178.128906 C 344.371094 175.175781 344.132812 182.933594 344.125 199.175781 M 179.855469 182.019531 C 180.707031 183.675781 180.441406 183.433594 177.332031 179.695312 C 175.460938 177.441406 175.457031 177.414062 177.222656 178.90625 C 178.226562 179.753906 179.414062 181.15625 179.855469 182.019531 M 109.640625 188.773438 L 112.492188 193.960938 L 109.867188 195.507812 L 107.242188 197.050781 L 106.816406 191.097656 C 106.582031 187.824219 106.132812 184.445312 105.816406 183.585938 C 104.792969 180.816406 106.648438 183.332031 109.640625 188.773438 M 204.445312 186.601562 C 205.117188 187.894531 205.957031 190.023438 206.320312 191.335938 L 206.972656 193.71875 L 205.058594 191.382812 C 204.003906 190.09375 202.621094 187.515625 201.980469 185.652344 C 200.941406 182.601562 200.945312 182.359375 202.023438 183.257812 C 202.6875 183.804688 203.777344 185.308594 204.445312 186.601562 M 212.175781 193.714844 C 213.054688 195.050781 213.273438 196.332031 212.878906 197.808594 L 212.300781 199.957031 L 211.324219 197.617188 C 209.59375 193.472656 209.234375 191.773438 210.085938 191.773438 C 210.535156 191.773438 211.476562 192.644531 212.175781 193.714844 M 129.023438 204.632812 C 130.132812 206.683594 120.671875 197.523438 118.554688 194.5 C 117.65625 193.214844 119.449219 194.617188 122.546875 197.617188 C 125.644531 200.621094 128.558594 203.777344 129.023438 204.632812 M 292.925781 203.855469 C 294.160156 211.136719 297.386719 222.488281 299.265625 226.160156 C 300.097656 227.792969 300.78125 229.855469 300.78125 230.742188 C 300.78125 235.808594 292.191406 254.839844 287.261719 260.6875 C 278.992188 270.503906 277.171875 274.683594 276.210938 286.097656 C 275.574219 293.625 274.929688 297.984375 274.515625 297.566406 C 273.253906 296.308594 271.84375 282.640625 271.921875 272.457031 C 272 261.863281 271.820312 260.175781 269.988281 254.527344 C 268.878906 251.097656 267.96875 247.71875 267.96875 247.023438 C 267.96875 246.324219 269.925781 241.597656 272.320312 236.519531 C 274.710938 231.4375 278.597656 222.535156 280.957031 216.738281 C 285.59375 205.332031 290.710938 196 291.507812 197.484375 C 291.777344 197.984375 292.414062 200.851562 292.925781 203.855469 M 219.828125 202.179688 C 233.335938 216.414062 236.503906 219.394531 239.609375 220.765625 L 243.011719 222.265625 L 241.488281 224.363281 C 238.769531 228.105469 231.003906 235.183594 224.722656 239.644531 C 218.792969 243.855469 216 245.199219 217.878906 242.9375 C 219.449219 241.054688 223.683594 219.707031 223.78125 213.210938 C 223.828125 210.105469 223.816406 210.09375 221.035156 210.304688 C 217.945312 210.535156 216.765625 209.550781 214.722656 205.023438 C 213.433594 202.164062 213.964844 198.789062 215.703125 198.789062 C 216.203125 198.789062 218.058594 200.3125 219.828125 202.179688 M 169.140625 206.90625 C 166.617188 208.023438 164.351562 210.273438 162.019531 213.988281 C 160.683594 216.109375 160.839844 216.042969 163.671875 213.300781 C 167.308594 209.773438 172.03125 207.402344 175.46875 207.378906 C 176.800781 207.371094 179.558594 208.246094 181.59375 209.328125 C 186.054688 211.691406 186.039062 210.105469 181.578125 207.570312 C 178.074219 205.578125 172.769531 205.292969 169.140625 206.90625 M 157.03125 209.515625 C 157.03125 210.457031 151.472656 218.445312 151.085938 218.058594 C 150.605469 217.578125 155.652344 208.921875 156.414062 208.921875 C 156.753906 208.921875 157.03125 209.191406 157.03125 209.515625 M 210.25 222.082031 C 211.214844 224.273438 212.015625 228.75 212.496094 234.59375 C 213.253906 243.847656 215.828125 256.269531 218.710938 264.582031 C 220.929688 270.96875 226.554688 281.292969 230.851562 286.871094 C 234.792969 291.976562 234.730469 292.003906 227.074219 288.410156 C 221.371094 285.738281 219 282.9375 218.007812 277.710938 C 216.617188 270.410156 212.605469 254.738281 208.113281 239.074219 C 204.382812 226.066406 203.90625 223.589844 203.921875 217.246094 L 203.933594 210.089844 L 206.339844 214.378906 C 207.664062 216.738281 209.421875 220.203125 210.25 222.082031 M 169.414062 212.832031 C 163.902344 215.738281 159.265625 223.011719 159.429688 228.5 C 159.476562 230.03125 159.730469 229.808594 160.878906 227.242188 C 163.601562 221.140625 171.898438 215.773438 176.734375 216.984375 C 179.425781 217.65625 184.644531 221.609375 187.121094 224.847656 C 189.902344 228.484375 191.328125 232.613281 191.371094 237.136719 C 191.429688 243.128906 192.640625 242.050781 193.554688 235.195312 C 194.519531 227.988281 193.867188 225.632812 189.128906 219.214844 C 183.789062 211.980469 175.882812 209.421875 169.414062 212.832031 M 221.863281 214.425781 C 221.4375 215.894531 221.09375 218.414062 221.09375 220.023438 C 221.09375 221.636719 220.742188 222.953125 220.3125 222.953125 C 218.945312 222.953125 219.382812 214.273438 220.828125 212.683594 C 222.542969 210.789062 222.789062 211.199219 221.863281 214.425781 M 146.8125 215.742188 C 144.558594 218.71875 141.855469 221.394531 141.097656 221.394531 C 140.660156 221.394531 141.851562 219.816406 143.75 217.886719 C 147.304688 214.273438 148.628906 213.347656 146.8125 215.742188 M 261.183594 220.808594 C 264.96875 224.625 265.1875 227.472656 262.96875 243.882812 C 261.601562 253.960938 260.433594 259.863281 259.398438 261.890625 C 257.242188 266.101562 242.953125 283.949219 242.976562 282.398438 C 242.996094 281.140625 247.570312 267.46875 249.90625 261.6875 C 251.257812 258.339844 254.292969 251.996094 256.652344 247.59375 C 259.007812 243.1875 260.925781 238.734375 260.914062 237.699219 C 260.890625 236.023438 260.671875 236.160156 258.917969 238.933594 C 251.164062 251.203125 241.863281 274.558594 239.785156 286.976562 L 238.789062 292.925781 L 234.796875 287.757812 C 228.257812 279.300781 227.882812 278.523438 228.425781 274.574219 C 229.597656 266.039062 236.988281 246.855469 241.101562 241.667969 C 244.46875 237.421875 243.34375 236.671875 238.648438 240.039062 C 231.679688 245.03125 217.128906 250.710938 217.222656 248.402344 C 217.246094 247.910156 221.851562 244.375 227.464844 240.542969 C 235.984375 234.722656 238.449219 232.566406 242.410156 227.46875 C 246.429688 222.296875 247.699219 221.191406 250.726562 220.261719 C 256.089844 218.613281 259.167969 218.773438 261.183594 220.808594 M 167.246094 222.222656 C 162.957031 225.320312 161.492188 228.855469 161.449219 236.207031 C 161.410156 243.128906 163.25 249.914062 165.960938 252.835938 C 167.460938 254.449219 168.625 254.914062 171.144531 254.914062 C 173.890625 254.914062 174.804688 254.472656 177.007812 252.070312 C 178.445312 250.507812 180.160156 247.640625 180.824219 245.695312 C 182.285156 241.417969 182.332031 240.367188 181.054688 240.355469 C 180.519531 240.351562 179.242188 240.082031 178.222656 239.753906 C 176.941406 239.34375 176.53125 239.425781 176.902344 240.019531 C 177.195312 240.496094 177.941406 240.882812 178.5625 240.882812 C 180.199219 240.882812 179.949219 242.757812 177.734375 247.117188 C 175.667969 251.1875 173.929688 252.578125 170.902344 252.578125 C 166.253906 252.578125 163.660156 246.820312 163.699219 236.597656 C 163.730469 229.042969 164.863281 225.679688 168.136719 223.390625 C 171.933594 220.738281 176.246094 223.121094 178.167969 228.933594 C 178.972656 231.363281 178.878906 231.84375 177.289062 233.539062 C 175.203125 235.75 175.449219 235.859375 178.785156 234.199219 C 181.675781 232.761719 181.894531 231.035156 179.765625 226.460938 C 176.484375 219.410156 172.839844 218.179688 167.246094 222.222656 M 381.152344 233.273438 C 380.757812 235.101562 377.71875 245.261719 374.402344 255.855469 C 367.847656 276.800781 367.683594 277.019531 365.597656 267.777344 C 364.765625 264.105469 364.882812 263.457031 367.585938 256.476562 C 369.167969 252.402344 371.089844 248.015625 371.855469 246.730469 C 374.046875 243.070312 378.707031 233.65625 379.253906 231.789062 C 379.613281 230.574219 379.113281 229.367188 377.476562 227.5 C 376.222656 226.070312 374.949219 223.675781 374.640625 222.175781 C 374.121094 219.617188 374.328125 219.777344 377.976562 224.699219 C 381.742188 229.777344 381.847656 230.058594 381.152344 233.273438 M 274.703125 225.808594 C 274.039062 227.027344 273.484375 227.773438 273.46875 227.472656 C 273.414062 226.546875 275.234375 222.925781 275.578125 223.269531 C 275.757812 223.449219 275.363281 224.589844 274.703125 225.808594 M 376.3125 231.882812 C 375.859375 234.535156 373.5 240.425781 373.066406 239.992188 C 372.910156 239.839844 373.175781 237.007812 373.652344 233.703125 C 374.378906 228.683594 374.703125 227.839844 375.617188 228.597656 C 376.316406 229.179688 376.570312 230.371094 376.3125 231.882812 M 98.046875 229.703125 C 91.414062 233.1875 88.9375 237.429688 88.976562 245.230469 C 89.042969 257.6875 96.992188 266.6875 106.15625 264.679688 C 110.875 263.644531 114.828125 256.964844 114.839844 249.996094 C 114.84375 246.3125 113.515625 246.886719 112.867188 250.851562 C 111.679688 258.113281 108.089844 262.714844 103.605469 262.707031 C 94.210938 262.699219 87.445312 246.894531 92.585938 236.96875 C 93.25 235.6875 95.167969 233.734375 96.847656 232.621094 C 101.441406 229.589844 104.386719 230.664062 109.296875 237.160156 C 110.144531 238.277344 110.105469 238.707031 109.0625 239.75 C 107.074219 241.734375 107.609375 242.425781 110.15625 241.15625 C 111.445312 240.515625 112.5 239.628906 112.5 239.191406 C 112.5 237.050781 109.566406 232.671875 106.78125 230.660156 C 103.277344 228.125 101.4375 227.925781 98.046875 229.703125 M 166.152344 231.800781 C 165.625 235.636719 167.359375 247.605469 168.625 248.867188 C 169.78125 250.023438 170.535156 243.824219 169.902344 238.320312 C 169.597656 235.65625 168.742188 232.289062 168 230.832031 L 166.648438 228.1875 L 166.152344 231.800781 M 388.441406 236.804688 C 390.410156 238.488281 390.9375 243.988281 389.828125 251.234375 C 388.820312 257.792969 384.15625 274.753906 381.289062 282.285156 C 380.410156 284.597656 379.679688 287.191406 379.667969 288.046875 C 379.652344 289.324219 379.085938 289.011719 376.542969 286.324219 C 373.125 282.707031 372.738281 280.703125 374.601562 276.25 C 376.488281 271.75 383.328125 248.804688 384.742188 242.257812 C 385.457031 238.9375 385.785156 235.8125 385.476562 235.316406 C 384.820312 234.253906 386.371094 235.03125 388.441406 236.804688 M 216.457031 241.925781 C 215.867188 242.511719 215.644531 241.738281 215.695312 239.285156 L 215.765625 235.816406 L 216.527344 238.457031 C 217.042969 240.253906 217.023438 241.359375 216.457031 241.925781 M 97.019531 244.230469 C 97.265625 248.941406 97.867188 251.738281 99.234375 254.558594 L 101.113281 258.425781 L 101.835938 255.367188 C 102.328125 253.300781 102.273438 251.519531 101.671875 249.855469 C 101.183594 248.503906 100.78125 246.265625 100.78125 244.882812 C 100.78125 242.035156 98.835938 237.765625 97.539062 237.765625 C 96.957031 237.765625 96.789062 239.84375 97.019531 244.230469 M 267.15625 253.667969 C 268.308594 256.6875 267.722656 257.007812 265.714844 254.460938 C 264.023438 252.316406 263.59375 248.472656 264.632812 244.78125 C 265.074219 243.199219 265.285156 243.644531 265.742188 247.128906 C 266.050781 249.492188 266.6875 252.4375 267.15625 253.667969 M 313.847656 256.855469 C 313.554688 264.800781 312.980469 269.367188 311.746094 273.613281 C 310.109375 279.242188 305.007812 290.023438 304.003906 289.972656 C 303.734375 289.957031 302 286.1875 300.148438 281.589844 C 298.292969 276.996094 296.386719 272.316406 295.910156 271.191406 C 295.113281 269.304688 295.453125 268.636719 300.234375 262.671875 C 303.089844 259.113281 306.75 253.9375 308.371094 251.175781 C 309.988281 248.410156 311.757812 245.976562 312.296875 245.769531 C 312.839844 245.5625 313.320312 244.816406 313.371094 244.113281 C 313.4375 243.183594 313.570312 243.257812 313.855469 244.382812 C 314.070312 245.234375 314.066406 250.847656 313.847656 256.855469 M 223.367188 254.332031 C 223.011719 256.152344 222.710938 259.382812 222.691406 261.503906 C 222.667969 263.84375 222.375 265.070312 221.945312 264.621094 C 221.097656 263.738281 218.75 255.980469 218.75 254.058594 C 218.75 252.945312 221.28125 251.367188 223.527344 251.078125 C 223.792969 251.046875 223.71875 252.507812 223.367188 254.332031 M 269.210938 260.691406 C 269.492188 261.964844 269.84375 269.164062 269.996094 276.695312 C 270.152344 284.226562 270.371094 291.964844 270.488281 293.894531 C 270.796875 298.960938 268.90625 298.90625 261.546875 293.636719 C 258.296875 291.308594 253.84375 288.429688 251.648438 287.238281 C 249.417969 286.027344 247.660156 284.523438 247.664062 283.832031 C 247.667969 283.148438 249.875 279.609375 252.570312 275.964844 C 257.980469 268.648438 262.5 261.546875 262.5 260.359375 C 262.5 259.9375 263.203125 258.890625 264.066406 258.03125 C 265.378906 256.71875 265.878906 256.621094 267.167969 257.421875 C 268.011719 257.949219 268.929688 259.417969 269.210938 260.691406 M 181.640625 259.351562 C 177.972656 260.890625 176.140625 261.222656 173.21875 260.878906 C 168.851562 260.367188 168.9375 261.457031 173.371094 262.78125 C 177.0625 263.886719 180.617188 262.882812 184.820312 259.550781 C 188.285156 256.800781 187.804688 256.773438 181.640625 259.351562 M 113.671875 268.296875 C 108.964844 269.839844 106.027344 269.738281 95.3125 267.667969 C 93.582031 267.332031 93.523438 267.394531 94.785156 268.191406 C 96.9375 269.550781 106.289062 272.066406 109.1875 272.066406 C 111.949219 272.066406 118.109375 269.488281 119.585938 267.710938 C 120.820312 266.230469 119.632812 266.347656 113.671875 268.296875 M 201.34375 273.417969 C 201.164062 274.605469 201.011719 273.820312 201.003906 271.675781 C 201 269.53125 201.144531 268.5625 201.332031 269.523438 C 201.515625 270.480469 201.519531 272.234375 201.34375 273.417969 M 154.6875 269.707031 C 154.6875 270.171875 155.253906 270.773438 155.945312 271.039062 C 156.636719 271.304688 157.679688 272.605469 158.257812 273.9375 C 159.296875 276.316406 159.3125 276.324219 159.34375 274.332031 C 159.371094 272.46875 158.132812 270.8125 155.664062 269.410156 C 155.128906 269.105469 154.6875 269.238281 154.6875 269.707031 M 298.78125 283.503906 L 301.796875 291.039062 L 300.03125 292.46875 C 299.058594 293.25 297.703125 293.894531 297.015625 293.894531 C 296.328125 293.894531 292.84375 295.359375 289.269531 297.148438 C 282.800781 300.390625 282.769531 300.398438 280.0625 299.109375 C 278.46875 298.351562 277.34375 297.246094 277.347656 296.441406 C 277.351562 293.824219 279.554688 281.519531 280.234375 280.308594 C 280.609375 279.636719 283.539062 277.511719 286.746094 275.582031 L 292.578125 272.078125 L 294.171875 274.023438 C 295.046875 275.09375 297.121094 279.359375 298.78125 283.503906 M 261.960938 279.738281 C 260.683594 280.570312 259.375 283.511719 259.375 285.550781 C 259.375 289.578125 264.722656 293.46875 265.933594 290.320312 C 267.785156 285.5 264.90625 277.824219 261.960938 279.738281 M 38.476562 282.589844 C 38.488281 284.304688 38.648438 284.914062 38.832031 283.945312 C 39.019531 282.976562 39.011719 281.570312 38.816406 280.828125 C 38.621094 280.082031 38.46875 280.875 38.476562 282.589844 M 263.671875 289.085938 C 262.960938 289.792969 261.746094 287.523438 261.730469 285.460938 C 261.722656 284.46875 262.160156 282.890625 262.695312 281.953125 C 263.578125 280.414062 263.695312 280.648438 263.910156 284.429688 C 264.042969 286.730469 263.933594 288.824219 263.671875 289.085938 M 363.28125 285.917969 C 363.28125 286.527344 362.679688 289.011719 361.945312 291.433594 L 360.613281 295.84375 L 360.0625 291.945312 C 359.757812 289.800781 359.480469 286.496094 359.445312 284.597656 L 359.375 281.148438 L 361.328125 282.980469 C 362.402344 283.988281 363.28125 285.308594 363.28125 285.917969 M 162.890625 287.605469 C 159.882812 287.863281 156.296875 288.683594 154.921875 289.425781 C 151.265625 291.398438 144.074219 293.097656 138.898438 293.214844 C 136.410156 293.273438 134.375 293.414062 134.375 293.53125 C 134.375 293.648438 135.628906 295.96875 137.164062 298.691406 C 142.566406 308.28125 149.328125 313.25 155.546875 312.199219 C 161.550781 311.1875 165.5625 305.933594 167.652344 296.34375 C 168.273438 293.496094 168.992188 290.199219 169.253906 289.023438 C 169.515625 287.84375 169.417969 286.933594 169.042969 287.003906 C 168.667969 287.074219 165.898438 287.34375 162.890625 287.605469 M 250.78125 290.027344 C 252.285156 290.792969 256.0625 293.210938 259.179688 295.40625 C 264.589844 299.210938 264.84375 299.53125 264.84375 302.488281 C 264.84375 305.574219 264.265625 306.257812 262.851562 304.847656 C 262.445312 304.441406 260.570312 303.863281 258.683594 303.5625 C 253.945312 302.804688 254.660156 304.660156 259.765625 306.367188 C 264.078125 307.804688 265.90625 310.773438 263.941406 313.144531 C 262.757812 314.566406 252.449219 319.464844 246.441406 321.453125 C 243.195312 322.53125 232.03125 324.398438 232.03125 323.867188 C 232.03125 323.785156 232.777344 322.035156 233.683594 319.984375 C 234.59375 317.933594 236.707031 311.015625 238.382812 304.613281 C 243.09375 286.597656 243.378906 286.261719 250.78125 290.027344 M 220.386719 293.679688 C 219.722656 294.820312 219.574219 294.570312 219.554688 292.269531 C 219.542969 290.734375 219.792969 289.207031 220.117188 288.882812 C 221.046875 287.941406 221.28125 292.144531 220.386719 293.679688 M 376.894531 292.355469 C 377.335938 292.796875 376.023438 296.621094 373.507812 302.21875 C 370.347656 309.25 369.507812 311.910156 369.863281 313.734375 L 370.324219 316.109375 L 368.71875 313.773438 C 365.496094 309.082031 363.917969 305.359375 364.300781 303.332031 C 364.75 300.933594 368.597656 291.582031 369.699219 290.210938 C 370.300781 289.46875 371.09375 289.519531 373.320312 290.449219 C 374.886719 291.101562 376.496094 291.960938 376.894531 292.355469 M 230.847656 292.574219 C 237.640625 295.054688 237.929688 296.042969 235.058594 307.042969 C 232.222656 317.90625 229.972656 322.476562 225.617188 326.226562 C 221.886719 329.4375 216.507812 332.453125 215.789062 331.734375 C 214.679688 330.628906 217.628906 321 221.246094 313.9375 C 223.402344 309.722656 224.988281 306.097656 224.769531 305.878906 C 224.550781 305.65625 223.265625 307.082031 221.914062 309.039062 C 220.5625 311 219.375 312.601562 219.277344 312.601562 C 219.179688 312.601562 219.324219 309.699219 219.601562 306.148438 C 220.066406 300.164062 221.789062 295.015625 224.410156 291.75 C 225.382812 290.539062 225.210938 290.515625 230.847656 292.574219 M 323.414062 292.695312 C 325.007812 294.609375 325.246094 305.300781 323.898438 314.164062 C 321.921875 327.125 318.699219 331.785156 312.238281 331.019531 C 308.09375 330.527344 297.488281 325.253906 291.46875 320.691406 C 281.597656 313.207031 281.378906 310.410156 290.539062 308.773438 C 293.546875 308.238281 296.445312 307.273438 296.980469 306.632812 C 297.832031 305.605469 297.246094 305.527344 292.140625 305.976562 C 288.941406 306.257812 285.890625 306.625 285.351562 306.792969 C 283.566406 307.351562 284.34375 304.351562 286.523438 302.265625 C 290.238281 298.71875 295.378906 296.914062 300.183594 297.476562 C 304.894531 298.03125 313.839844 295.921875 318.203125 293.226562 C 321.277344 291.328125 322.199219 291.234375 323.414062 292.695312 M 148.003906 295.796875 C 146.917969 297.453125 146.503906 297.589844 144.859375 296.84375 C 142.265625 295.660156 142.488281 294.832031 145.507812 294.457031 C 146.902344 294.285156 148.320312 294.085938 148.652344 294.019531 C 148.984375 293.949219 148.691406 294.75 148.003906 295.796875 M 143.222656 298.3125 C 145.761719 300.402344 147.828125 300.628906 149.207031 298.976562 C 149.953125 298.078125 150.535156 298.011719 151.839844 298.679688 C 154.605469 300.09375 159.375 305.027344 159.375 306.480469 C 159.375 308.246094 156.445312 310.265625 153.886719 310.265625 C 149.628906 310.265625 142.925781 304.53125 139.558594 298.007812 C 138.332031 295.632812 138.335938 295.523438 139.640625 295.996094 C 140.394531 296.273438 142.007812 297.316406 143.222656 298.3125 M 341 311.371094 C 341.734375 313.476562 343.214844 316.523438 344.285156 318.136719 C 345.441406 319.882812 346.046875 321.65625 345.777344 322.507812 C 345.527344 323.292969 343.191406 326.5625 340.589844 329.769531 C 337.984375 332.976562 333.8125 338.238281 331.3125 341.460938 C 326.441406 347.746094 304.109375 372.847656 303.007812 373.277344 C 302.640625 373.421875 302.339844 372.371094 302.335938 370.941406 C 302.320312 365.230469 294.21875 335.648438 289.945312 325.703125 L 288.390625 322.089844 L 293.359375 325.550781 C 302.804688 332.140625 313.953125 335.433594 318.535156 332.988281 C 321.484375 331.414062 324.238281 325.59375 325.867188 317.507812 C 326.746094 313.15625 328.058594 309.039062 328.929688 307.925781 C 329.765625 306.855469 332.300781 303.554688 334.5625 300.589844 L 338.671875 295.203125 L 339.167969 301.371094 C 339.441406 304.761719 340.265625 309.261719 341 311.371094 M 277.144531 301.328125 C 278.730469 301.988281 280.292969 302.953125 280.625 303.472656 C 281.488281 304.832031 281.386719 310.585938 280.453125 313.035156 C 279.691406 315.035156 279.457031 315.113281 275.050781 314.792969 C 268.800781 314.34375 267.964844 313.5 267.980469 307.636719 C 267.992188 302.613281 268.390625 301.429688 270.3125 300.699219 C 272.347656 299.925781 274.183594 300.09375 277.144531 301.328125 M 365.34375 321.179688 C 366.121094 322.679688 366.894531 324.203125 367.0625 324.570312 C 367.230469 324.933594 366.515625 324.671875 365.472656 323.992188 C 363.796875 322.894531 360.15625 317.535156 360.15625 316.164062 C 360.15625 314.925781 364.0625 318.699219 365.34375 321.179688 M 268.503906 319.035156 C 268.273438 320 266.984375 326.402344 265.640625 333.261719 C 264.292969 340.121094 261.960938 351.347656 260.457031 358.207031 C 258.953125 365.066406 257.152344 373.75 256.453125 377.5 C 255.296875 383.730469 255.03125 384.324219 253.390625 384.324219 C 252.042969 384.324219 250.71875 383.011719 248.078125 379.0625 C 246.144531 376.167969 243.164062 372.777344 241.457031 371.53125 C 236.402344 367.839844 235.800781 370.128906 248.714844 343.785156 C 253.445312 334.140625 260.921875 321.972656 264.019531 318.882812 C 264.902344 318 266.367188 317.28125 267.273438 317.28125 C 268.582031 317.28125 268.835938 317.636719 268.503906 319.035156 M 283.789062 319.289062 C 285.6875 321.464844 288.992188 330.070312 293.796875 345.339844 C 298.492188 360.265625 301.558594 376.453125 300.492188 380.6875 C 299.664062 383.980469 294.265625 385.492188 283.332031 385.492188 L 274.082031 385.492188 L 272.886719 382.375 C 271.425781 378.578125 271.453125 375.054688 272.953125 373.558594 C 273.917969 372.59375 274.140625 373.238281 274.625 378.382812 C 274.988281 382.246094 275.519531 384.324219 276.140625 384.324219 C 276.851562 384.324219 277.222656 379.699219 277.59375 366.199219 C 277.871094 356.230469 278.617188 342.460938 279.253906 335.601562 C 279.890625 328.738281 280.496094 321.8125 280.601562 320.203125 C 280.820312 316.753906 281.429688 316.578125 283.789062 319.289062 M 258.296875 322.152344 C 253.441406 328.132812 246.191406 341.679688 240.050781 356.257812 C 239.011719 358.714844 238.984375 358.636719 236.03125 345.34375 C 232.496094 329.410156 232.332031 327.726562 234.246094 326.703125 C 235.121094 326.238281 236.84375 325.855469 238.082031 325.855469 C 241.125 325.855469 252.554688 322.921875 256.535156 321.117188 C 258.3125 320.3125 259.898438 319.644531 260.0625 319.636719 C 260.222656 319.628906 259.429688 320.757812 258.296875 322.152344 M 85.585938 332.703125 C 85.4375 332.851562 82.867188 331.738281 79.871094 330.234375 C 74.457031 327.515625 73.484375 326.324219 73.441406 322.347656 C 73.425781 321.152344 74.878906 322.152344 79.640625 326.609375 C 83.058594 329.8125 85.734375 332.554688 85.585938 332.703125 M 275.902344 330.46875 C 276.113281 333.46875 275.960938 334.125 275.195312 333.492188 C 274.082031 332.570312 273.847656 326.636719 274.925781 326.636719 C 275.3125 326.636719 275.753906 328.359375 275.902344 330.46875 M 76.191406 331.527344 C 80.90625 333.785156 87.226562 337.011719 90.234375 338.695312 C 100.910156 344.671875 123.160156 355.316406 130.859375 358.132812 C 143.957031 362.921875 148.078125 364.804688 150.851562 367.257812 L 153.515625 369.613281 L 148.722656 369.191406 C 141.445312 368.558594 117.671875 363.5625 114.71875 362.050781 C 113.28125 361.316406 109.511719 359.007812 106.335938 356.925781 C 103.164062 354.84375 100.171875 353.140625 99.691406 353.140625 C 99.210938 353.140625 97.117188 352.238281 95.039062 351.132812 C 92.960938 350.03125 91.113281 349.273438 90.933594 349.453125 C 90.753906 349.632812 92.914062 350.949219 95.734375 352.375 C 98.554688 353.804688 102.824219 356.496094 105.226562 358.355469 C 112.09375 363.675781 119.640625 366.992188 128.835938 368.726562 C 139.875 370.8125 139.421875 370.589844 139.660156 374.082031 C 139.851562 376.910156 139.707031 377.140625 137.414062 377.597656 C 130.839844 378.910156 120.496094 378.097656 109.914062 375.4375 C 88.414062 370.035156 75.40625 364.207031 66.621094 356.050781 C 55.488281 345.714844 52.421875 343.949219 42.628906 342.25 C 34.886719 340.90625 32.089844 341.226562 26.367188 344.101562 C 23.46875 345.558594 21.09375 346.421875 21.09375 346.019531 C 21.09375 344.519531 28.113281 338.550781 32.917969 335.964844 C 37.34375 333.585938 38.574219 333.285156 44.140625 333.226562 C 49.207031 333.171875 50.949219 332.820312 53.339844 331.367188 C 56.875 329.222656 62.011719 327.539062 65.253906 327.46875 C 66.589844 327.4375 71.339844 329.199219 76.191406 331.527344 M 206.707031 333.746094 L 205.511719 336.378906 L 205.898438 333.261719 C 206.113281 331.546875 206.535156 329.441406 206.835938 328.585938 C 207.328125 327.195312 207.414062 327.246094 207.640625 329.070312 C 207.78125 330.195312 207.359375 332.300781 206.707031 333.746094 M 358.59375 331.796875 C 358.59375 332.929688 353.074219 341.191406 343.8125 353.917969 C 337.375 362.769531 330.863281 370.347656 320.867188 380.621094 C 316.058594 385.558594 315.535156 385.878906 312.363281 385.828125 C 305.078125 385.707031 305.097656 385.667969 317.691406 372.519531 C 330.902344 358.734375 340.054688 347.335938 346.082031 337.160156 C 352.171875 326.890625 351.9375 327.085938 355.578125 329.128906 C 357.238281 330.058594 358.59375 331.257812 358.59375 331.796875 M 225.824219 331.121094 L 224.132812 332.488281 L 227.304688 344.957031 C 229.046875 351.816406 231.46875 359.445312 232.683594 361.910156 C 233.898438 364.375 234.554688 366.394531 234.148438 366.394531 C 232.710938 366.394531 224.140625 360.761719 223.046875 359.097656 C 221.777344 357.164062 216.386719 335.90625 216.9375 335 C 217.355469 334.308594 225.839844 329.847656 226.84375 329.789062 C 227.214844 329.769531 226.753906 330.367188 225.824219 331.121094 M 161.117188 332.269531 C 160.140625 332.742188 159.136719 334.03125 158.890625 335.144531 C 158.640625 336.25 158.039062 338.5625 157.554688 340.277344 L 156.667969 343.394531 L 156.421875 340.230469 C 156.105469 336.164062 157.320312 333.015625 159.558594 332.121094 C 162.046875 331.125 163.257812 331.242188 161.117188 332.269531 M 154.511719 337.742188 C 153.722656 342.085938 152.777344 343.785156 151.160156 343.785156 C 149.894531 343.785156 149.21875 342.019531 149.21875 338.699219 C 149.21875 335.964844 151.398438 333.652344 153.972656 333.652344 C 155.09375 333.652344 155.160156 334.167969 154.511719 337.742188 M 96.535156 337.671875 C 102.195312 341.054688 106.046875 343.785156 105.160156 343.785156 C 104.546875 343.785156 97.449219 340.203125 91.40625 336.847656 C 87.84375 334.867188 87.453125 334.457031 89.113281 334.445312 C 90.214844 334.4375 93.554688 335.886719 96.535156 337.671875 M 183.292969 347.199219 C 181.65625 351.105469 175.335938 360.800781 172.382812 363.9375 C 171.027344 365.371094 167.988281 367.449219 165.625 368.554688 C 161.855469 370.316406 161.570312 370.601562 163.28125 370.890625 C 165.6875 371.296875 167.324219 372.558594 166.714844 373.542969 C 166.195312 374.382812 161.824219 373.625 160.351562 372.445312 C 158.324219 370.816406 159.4375 368.707031 164.367188 364.84375 C 168.957031 361.246094 175.101562 354.390625 179.707031 347.738281 C 180.726562 346.265625 181.050781 345.351562 180.425781 345.707031 C 179.648438 346.152344 179.539062 346.097656 180.078125 345.535156 C 180.804688 344.773438 183.683594 343.871094 184.226562 344.234375 C 184.359375 344.324219 183.9375 345.65625 183.292969 347.199219 M 51.101562 347.214844 C 52.539062 347.8125 56.941406 351.144531 60.890625 354.613281 C 73.730469 365.910156 78.773438 368.507812 102.789062 376.210938 L 116.796875 380.699219 L 127.734375 380.542969 C 136.90625 380.410156 138.828125 380.175781 139.648438 379.085938 C 140.414062 378.066406 140.621094 378.027344 140.613281 378.910156 C 140.589844 381.429688 139.613281 383.410156 138.019531 384.179688 C 136.582031 384.875 136.890625 385.003906 140.070312 385.050781 L 143.816406 385.101562 L 143.296875 379.0625 C 142.867188 374.097656 142.957031 373.191406 143.796875 373.980469 C 144.359375 374.511719 144.976562 377.082031 145.164062 379.695312 C 145.449219 383.640625 145.789062 384.554688 147.167969 385.089844 C 148.082031 385.441406 129.785156 385.6875 106.507812 385.632812 C 83.230469 385.578125 64.355469 385.261719 64.5625 384.925781 C 64.765625 384.59375 64.410156 384.324219 63.761719 384.324219 C 63.117188 384.324219 61.027344 382.304688 59.117188 379.839844 C 55.488281 375.160156 46.054688 365.855469 41.472656 362.4375 L 38.804688 360.449219 L 42.558594 357.378906 C 44.625 355.691406 47.230469 353.492188 48.351562 352.492188 L 50.390625 350.679688 L 47.003906 352.480469 C 45.140625 353.46875 42.277344 355.515625 40.640625 357.023438 C 37.234375 360.160156 37.421875 360.121094 33.007812 358.664062 C 29.945312 357.652344 28.519531 356.257812 30.550781 356.257812 C 31.023438 356.257812 33.21875 354.628906 35.433594 352.632812 C 42.800781 345.988281 45.734375 344.976562 51.101562 347.214844 M 164.902344 348.730469 C 168.707031 350.527344 169.574219 350.664062 172.300781 349.921875 C 174 349.460938 175.914062 348.679688 176.550781 348.1875 C 177.191406 347.695312 175.433594 349.882812 172.644531 353.050781 C 169.859375 356.214844 166.003906 360.007812 164.082031 361.480469 L 160.582031 364.152344 L 159.320312 359.230469 C 157.410156 351.789062 156.523438 350.128906 153.527344 348.367188 C 152.015625 347.476562 150.78125 346.5625 150.78125 346.328125 C 150.78125 345.164062 161.042969 346.90625 164.902344 348.730469 M 203.730469 348.269531 C 203.070312 349.019531 202.285156 350.433594 201.984375 351.410156 C 201.6875 352.386719 199.710938 355.335938 197.597656 357.96875 C 193.78125 362.710938 193.089844 364.054688 194.460938 364.054688 C 196.082031 364.054688 203.183594 357.597656 205.976562 353.582031 C 207.632812 351.207031 209.347656 349.257812 209.792969 349.25 C 211.066406 349.238281 213.28125 353.539062 213.28125 356.027344 C 213.28125 359.222656 208.988281 363.011719 200 367.75 C 189.910156 373.074219 179.246094 375.445312 176.515625 372.972656 C 175.679688 372.222656 175 371.335938 175 371.003906 C 175 370.675781 177.191406 369.074219 179.871094 367.449219 C 186.050781 363.707031 189.789062 360.332031 195.0625 353.742188 C 198.835938 349.023438 200.414062 347.90625 204.613281 346.972656 C 204.789062 346.9375 204.390625 347.519531 203.730469 348.269531 M 179.296875 363.273438 C 178.519531 364.132812 177.496094 364.820312 177.027344 364.808594 C 176.558594 364.792969 177 364.089844 178.015625 363.25 C 180.402344 361.265625 181.105469 361.28125 179.296875 363.273438 M 221.859375 363.332031 C 226.59375 365.476562 237.277344 371.8125 238.371094 373.125 C 240.285156 375.429688 236.316406 374.078125 227.734375 369.511719 C 222.902344 366.9375 218.464844 364.835938 217.871094 364.835938 C 216.457031 364.839844 220.65625 367.367188 229.148438 371.621094 C 232.9375 373.515625 235.921875 375.308594 235.785156 375.601562 C 235.648438 375.894531 234.582031 377.953125 233.410156 380.171875 C 231.871094 383.09375 231.546875 384.328125 232.242188 384.65625 C 232.769531 384.90625 232.246094 384.984375 231.078125 384.828125 C 229.910156 384.675781 229.152344 384.867188 229.390625 385.257812 C 229.898438 386.070312 180.890625 385.785156 180.074219 384.96875 C 179.445312 384.339844 177.953125 377.996094 178.34375 377.609375 C 178.492188 377.457031 181.40625 376.808594 184.816406 376.160156 C 191.449219 374.902344 203.652344 369.484375 211.066406 364.503906 C 215.839844 361.292969 217.058594 361.160156 221.859375 363.332031 M 30.621094 376.269531 C 30.535156 378.914062 30.265625 381.71875 30.019531 382.503906 C 29.601562 383.835938 29.628906 383.839844 30.445312 382.570312 C 30.945312 381.796875 31.203125 379.105469 31.046875 376.335938 L 30.769531 371.460938 L 30.621094 376.269531 M 152.734375 374.289062 C 148.882812 376.035156 147.953125 376.082031 147.363281 374.546875 C 146.753906 372.96875 149.246094 372.070312 152.972656 372.523438 L 155.859375 372.875 L 152.734375 374.289062 M 164.0625 376.773438 C 169.464844 377.941406 170.074219 378.347656 170.703125 381.207031 C 171.585938 385.21875 170.28125 385.71875 159.207031 385.597656 C 153.800781 385.539062 149.539062 385.230469 149.734375 384.90625 C 149.929688 384.585938 149.503906 384.324219 148.789062 384.324219 C 147.703125 384.324219 147.574219 383.828125 148.03125 381.398438 C 148.332031 379.792969 148.632812 378.460938 148.703125 378.441406 C 151.210938 377.71875 158.417969 375.941406 158.984375 375.902344 C 159.414062 375.871094 161.699219 376.265625 164.0625 376.773438 M 18.359375 380.425781 C 18.058594 382.199219 17.988281 383.824219 18.203125 384.039062 C 18.417969 384.253906 18.839844 382.976562 19.140625 381.203125 C 19.441406 379.433594 19.511719 377.804688 19.296875 377.589844 C 19.082031 377.375 18.660156 378.652344 18.359375 380.425781 "/>
</g>
</svg>
